G04 #@! TF.GenerationSoftware,KiCad,Pcbnew,(5.1.9)-1*
G04 #@! TF.CreationDate,2021-12-17T10:10:49-05:00*
G04 #@! TF.ProjectId,500x500-dc-metro-map-dev,35303078-3530-4302-9d64-632d6d657472,rev?*
G04 #@! TF.SameCoordinates,Original*
G04 #@! TF.FileFunction,Copper,L2,Bot*
G04 #@! TF.FilePolarity,Positive*
%FSLAX46Y46*%
G04 Gerber Fmt 4.6, Leading zero omitted, Abs format (unit mm)*
G04 Created by KiCad (PCBNEW (5.1.9)-1) date 2021-12-17 10:10:49*
%MOMM*%
%LPD*%
G01*
G04 APERTURE LIST*
G04 #@! TA.AperFunction,ComponentPad*
%ADD10C,4.000000*%
G04 #@! TD*
G04 #@! TA.AperFunction,SMDPad,CuDef*
%ADD11R,3.680000X1.270000*%
G04 #@! TD*
G04 #@! TA.AperFunction,ViaPad*
%ADD12C,0.399796*%
G04 #@! TD*
G04 #@! TA.AperFunction,Conductor*
%ADD13C,0.203200*%
G04 #@! TD*
G04 #@! TA.AperFunction,Conductor*
%ADD14C,0.254000*%
G04 #@! TD*
G04 APERTURE END LIST*
D10*
G04 #@! TO.P,REF\u002A\u002A,1*
G04 #@! TO.N,N/C*
X84759800Y-34747200D03*
G04 #@! TD*
D11*
G04 #@! TO.P,J1,40*
G04 #@! TO.N,GND*
X376797800Y-266547600D03*
G04 #@! TO.P,J1,39*
G04 #@! TO.N,Net-(J1-Pad39)*
X381747800Y-266547600D03*
G04 #@! TO.P,J1,38*
G04 #@! TO.N,GND*
X376797800Y-264007600D03*
G04 #@! TO.P,J1,37*
G04 #@! TO.N,Net-(J1-Pad37)*
X381747800Y-264007600D03*
G04 #@! TO.P,J1,36*
G04 #@! TO.N,GND*
X376797800Y-261467600D03*
G04 #@! TO.P,J1,35*
G04 #@! TO.N,Net-(J1-Pad35)*
X381747800Y-261467600D03*
G04 #@! TO.P,J1,34*
G04 #@! TO.N,GND*
X376797800Y-258927600D03*
G04 #@! TO.P,J1,33*
G04 #@! TO.N,+5V*
X381747800Y-258927600D03*
G04 #@! TO.P,J1,32*
G04 #@! TO.N,GND*
X376797800Y-256387600D03*
G04 #@! TO.P,J1,31*
G04 #@! TO.N,+5V*
X381747800Y-256387600D03*
G04 #@! TO.P,J1,30*
G04 #@! TO.N,GND*
X376797800Y-253847600D03*
G04 #@! TO.P,J1,29*
G04 #@! TO.N,+5V*
X381747800Y-253847600D03*
G04 #@! TO.P,J1,28*
G04 #@! TO.N,GND*
X376797800Y-251307600D03*
G04 #@! TO.P,J1,27*
G04 #@! TO.N,+5V*
X381747800Y-251307600D03*
G04 #@! TO.P,J1,26*
G04 #@! TO.N,GND*
X376797800Y-248767600D03*
G04 #@! TO.P,J1,25*
G04 #@! TO.N,+5V*
X381747800Y-248767600D03*
G04 #@! TO.P,J1,24*
G04 #@! TO.N,GND*
X376797800Y-246227600D03*
G04 #@! TO.P,J1,23*
G04 #@! TO.N,+5V*
X381747800Y-246227600D03*
G04 #@! TO.P,J1,22*
G04 #@! TO.N,GND*
X376797800Y-243687600D03*
G04 #@! TO.P,J1,21*
G04 #@! TO.N,+5V*
X381747800Y-243687600D03*
G04 #@! TO.P,J1,20*
G04 #@! TO.N,GND*
X376797800Y-241147600D03*
G04 #@! TO.P,J1,19*
G04 #@! TO.N,+5V*
X381747800Y-241147600D03*
G04 #@! TO.P,J1,18*
G04 #@! TO.N,GND*
X376797800Y-238607600D03*
G04 #@! TO.P,J1,17*
G04 #@! TO.N,+5V*
X381747800Y-238607600D03*
G04 #@! TO.P,J1,16*
G04 #@! TO.N,GND*
X376797800Y-236067600D03*
G04 #@! TO.P,J1,15*
G04 #@! TO.N,+5V*
X381747800Y-236067600D03*
G04 #@! TO.P,J1,14*
G04 #@! TO.N,GND*
X376797800Y-233527600D03*
G04 #@! TO.P,J1,13*
G04 #@! TO.N,+5V*
X381747800Y-233527600D03*
G04 #@! TO.P,J1,12*
G04 #@! TO.N,GND*
X376797800Y-230987600D03*
G04 #@! TO.P,J1,11*
G04 #@! TO.N,+5V*
X381747800Y-230987600D03*
G04 #@! TO.P,J1,10*
G04 #@! TO.N,GND*
X376797800Y-228447600D03*
G04 #@! TO.P,J1,09*
G04 #@! TO.N,+5V*
X381747800Y-228447600D03*
G04 #@! TO.P,J1,08*
G04 #@! TO.N,GND*
X376797800Y-225907600D03*
G04 #@! TO.P,J1,07*
G04 #@! TO.N,+5V*
X381747800Y-225907600D03*
G04 #@! TO.P,J1,06*
G04 #@! TO.N,GND*
X376797800Y-223367600D03*
G04 #@! TO.P,J1,05*
G04 #@! TO.N,+5V*
X381747800Y-223367600D03*
G04 #@! TO.P,J1,04*
G04 #@! TO.N,GND*
X376797800Y-220827600D03*
G04 #@! TO.P,J1,03*
G04 #@! TO.N,+5V*
X381747800Y-220827600D03*
G04 #@! TO.P,J1,02*
G04 #@! TO.N,GND*
X376797800Y-218287600D03*
G04 #@! TO.P,J1,01*
G04 #@! TO.N,+5V*
X381747800Y-218287600D03*
G04 #@! TO.P,J1,41*
X311747800Y-218287600D03*
G04 #@! TO.P,J1,76*
G04 #@! TO.N,GND*
X306797800Y-261467600D03*
G04 #@! TO.P,J1,42*
X306797800Y-218287600D03*
G04 #@! TO.P,J1,47*
G04 #@! TO.N,+5V*
X311747800Y-225907600D03*
G04 #@! TO.P,J1,57*
X311747800Y-238607600D03*
G04 #@! TO.P,J1,58*
G04 #@! TO.N,GND*
X306797800Y-238607600D03*
G04 #@! TO.P,J1,63*
G04 #@! TO.N,+5V*
X311747800Y-246227600D03*
G04 #@! TO.P,J1,68*
G04 #@! TO.N,GND*
X306797800Y-251307600D03*
G04 #@! TO.P,J1,44*
G04 #@! TO.N,Net-(J1-Pad44)*
X306797800Y-220827600D03*
G04 #@! TO.P,J1,46*
G04 #@! TO.N,GND*
X306797800Y-223367600D03*
G04 #@! TO.P,J1,45*
G04 #@! TO.N,+5V*
X311747800Y-223367600D03*
G04 #@! TO.P,J1,51*
X311747800Y-230987600D03*
G04 #@! TO.P,J1,65*
X311747800Y-248767600D03*
G04 #@! TO.P,J1,53*
X311747800Y-233527600D03*
G04 #@! TO.P,J1,66*
G04 #@! TO.N,GND*
X306797800Y-248767600D03*
G04 #@! TO.P,J1,69*
G04 #@! TO.N,+5V*
X311747800Y-253847600D03*
G04 #@! TO.P,J1,71*
X311747800Y-256387600D03*
G04 #@! TO.P,J1,52*
G04 #@! TO.N,Net-(J1-Pad52)*
X306797800Y-230987600D03*
G04 #@! TO.P,J1,75*
G04 #@! TO.N,+5V*
X311747800Y-261467600D03*
G04 #@! TO.P,J1,80*
G04 #@! TO.N,GND*
X306797800Y-266547600D03*
G04 #@! TO.P,J1,61*
G04 #@! TO.N,+5V*
X311747800Y-243687600D03*
G04 #@! TO.P,J1,50*
G04 #@! TO.N,GND*
X306797800Y-228447600D03*
G04 #@! TO.P,J1,73*
G04 #@! TO.N,+5V*
X311747800Y-258927600D03*
G04 #@! TO.P,J1,43*
X311747800Y-220827600D03*
G04 #@! TO.P,J1,64*
G04 #@! TO.N,GND*
X306797800Y-246227600D03*
G04 #@! TO.P,J1,56*
G04 #@! TO.N,Net-(J1-Pad56)*
X306797800Y-236067600D03*
G04 #@! TO.P,J1,70*
G04 #@! TO.N,GND*
X306797800Y-253847600D03*
G04 #@! TO.P,J1,79*
G04 #@! TO.N,+5V*
X311747800Y-266547600D03*
G04 #@! TO.P,J1,74*
G04 #@! TO.N,GND*
X306797800Y-258927600D03*
G04 #@! TO.P,J1,77*
G04 #@! TO.N,+5V*
X311747800Y-264007600D03*
G04 #@! TO.P,J1,62*
G04 #@! TO.N,GND*
X306797800Y-243687600D03*
G04 #@! TO.P,J1,49*
G04 #@! TO.N,+5V*
X311747800Y-228447600D03*
G04 #@! TO.P,J1,72*
G04 #@! TO.N,GND*
X306797800Y-256387600D03*
G04 #@! TO.P,J1,48*
G04 #@! TO.N,Net-(J1-Pad48)*
X306797800Y-225907600D03*
G04 #@! TO.P,J1,55*
G04 #@! TO.N,+5V*
X311747800Y-236067600D03*
G04 #@! TO.P,J1,59*
X311747800Y-241147600D03*
G04 #@! TO.P,J1,60*
G04 #@! TO.N,Net-(J1-Pad60)*
X306797800Y-241147600D03*
G04 #@! TO.P,J1,54*
G04 #@! TO.N,GND*
X306797800Y-233527600D03*
G04 #@! TO.P,J1,67*
G04 #@! TO.N,+5V*
X311747800Y-251307600D03*
G04 #@! TO.P,J1,78*
G04 #@! TO.N,GND*
X306797800Y-264007600D03*
G04 #@! TD*
D10*
G04 #@! TO.P,REF\u002A\u002A,1*
G04 #@! TO.N,N/C*
X570230000Y-34734500D03*
G04 #@! TD*
G04 #@! TO.P,REF\u002A\u002A,1*
G04 #@! TO.N,N/C*
X570230000Y-520192000D03*
G04 #@! TD*
G04 #@! TO.P,REF\u002A\u002A,1*
G04 #@! TO.N,N/C*
X84772500Y-520255500D03*
G04 #@! TD*
D12*
G04 #@! TO.N,*
X379095000Y-281152600D03*
X381127000Y-274955000D03*
X320268600Y-245287800D03*
X309397400Y-255143000D03*
X332257400Y-271246600D03*
X334797400Y-272211800D03*
X343128600Y-281152600D03*
X345160600Y-274955000D03*
X370763800Y-272211800D03*
X368223800Y-271246600D03*
X379399800Y-321792600D03*
X381228600Y-316306200D03*
X380263400Y-313207400D03*
X382193800Y-308330600D03*
X371525800Y-317474600D03*
X369697000Y-321487800D03*
X372694200Y-307619400D03*
X370713000Y-313156600D03*
X309372000Y-244652800D03*
X321411600Y-256540000D03*
X385013200Y-172415200D03*
X388823200Y-171348400D03*
X397103600Y-180340000D03*
X394563600Y-177139600D03*
X389026400Y-174142400D03*
X388467600Y-166776400D03*
G04 #@! TO.N,GND*
X467645800Y-299507800D03*
X467645800Y-297933000D03*
X445505800Y-286763000D03*
X464845400Y-286562800D03*
X445505800Y-288337800D03*
X465285800Y-287627800D03*
X445505800Y-299547800D03*
X445505800Y-297973000D03*
X318592200Y-478002600D03*
X320167000Y-478002600D03*
X318617600Y-456031600D03*
X320192400Y-456031600D03*
X290550600Y-384098800D03*
X292125400Y-384098800D03*
X296494200Y-365760000D03*
X297408600Y-366750600D03*
X387756400Y-183032400D03*
X386816600Y-182067200D03*
X403555200Y-167894000D03*
X402615400Y-166928800D03*
X399465800Y-182295800D03*
X398500600Y-183235600D03*
X412546800Y-218249500D03*
X414121600Y-218249500D03*
X450507100Y-119646700D03*
X451548500Y-120904000D03*
X366788700Y-334352900D03*
X368363500Y-334352900D03*
X379145800Y-242443000D03*
X377571000Y-242443000D03*
X343154000Y-199923400D03*
X341579200Y-199923400D03*
X324967600Y-340118700D03*
X324967600Y-341693500D03*
X318401700Y-512533900D03*
X319976500Y-512533900D03*
X418465000Y-356590600D03*
X418465000Y-358165400D03*
X564235600Y-297891200D03*
X564235600Y-299466000D03*
X521335000Y-297853100D03*
X521335000Y-299427900D03*
X502158000Y-256286000D03*
X501015000Y-255079500D03*
X538543500Y-220408500D03*
X537400500Y-219202000D03*
X450088000Y-384429000D03*
X448881500Y-385572000D03*
X500189500Y-407479500D03*
X498983000Y-408622500D03*
X308457600Y-414718500D03*
X309054500Y-413258000D03*
X428625000Y-140906500D03*
X429615600Y-141922500D03*
X379399800Y-284454600D03*
X377825000Y-284454600D03*
X388150100Y-269951200D03*
X388150100Y-271526000D03*
X361099100Y-305765200D03*
X361099100Y-307340000D03*
X356717600Y-316433200D03*
X356717600Y-318008000D03*
X366852200Y-327177400D03*
X368427000Y-327177400D03*
X379399800Y-333476600D03*
X377825000Y-333476600D03*
X392722100Y-316395100D03*
X392722100Y-317969900D03*
X397357600Y-305511200D03*
X397357600Y-307086000D03*
X377952000Y-262737600D03*
X379526800Y-262737600D03*
X347599000Y-284581600D03*
X349173800Y-284581600D03*
X254355600Y-253428500D03*
X349110300Y-263499600D03*
X238252000Y-166052500D03*
X327494900Y-271640300D03*
X336486500Y-263690100D03*
X192214500Y-120142000D03*
X304012600Y-424624500D03*
X186093100Y-289496500D03*
X327494900Y-270065500D03*
X309549800Y-215430100D03*
X342582500Y-78892400D03*
X250825000Y-324421500D03*
X157734000Y-82994500D03*
X256832100Y-475869000D03*
X186093100Y-287921700D03*
X351815400Y-270256000D03*
X254038100Y-240931700D03*
X215633300Y-509371600D03*
X332422500Y-199732900D03*
X337896200Y-263296400D03*
X351815400Y-271830800D03*
X133413500Y-60896500D03*
X155892500Y-289445700D03*
X254038100Y-242506500D03*
X156527500Y-84137500D03*
X193421000Y-118999000D03*
X155892500Y-287870900D03*
X111734600Y-289306000D03*
X254355600Y-251853700D03*
X347535500Y-263499600D03*
X217208100Y-509371600D03*
X111734600Y-287731200D03*
X341007700Y-78892400D03*
X239458500Y-164909500D03*
X310756300Y-214287100D03*
X252006100Y-323418200D03*
X304609500Y-423164000D03*
X134620000Y-59753500D03*
X256832100Y-474294200D03*
X330847700Y-199732900D03*
X266230100Y-180657500D03*
X300101000Y-242747800D03*
X383260600Y-166725600D03*
X227203000Y-259740400D03*
X317070200Y-241839400D03*
X318725000Y-252669400D03*
X214452200Y-259156200D03*
X307670200Y-455980800D03*
X281305000Y-363143800D03*
X323367400Y-252196600D03*
X318645000Y-241839400D03*
X279730200Y-363143800D03*
X323367400Y-253771400D03*
X300101000Y-241173000D03*
X226771200Y-280543000D03*
X321995800Y-242747800D03*
X215925400Y-280695400D03*
X307568600Y-474980000D03*
X266230100Y-179082700D03*
X304215800Y-253415800D03*
X342519000Y-39903400D03*
X342646000Y-123469400D03*
X382295400Y-167665400D03*
X281152600Y-384175000D03*
X321995800Y-241173000D03*
X380161800Y-175488600D03*
X225196400Y-280543000D03*
X279755600Y-384175000D03*
X306501800Y-474014800D03*
X317150200Y-252669400D03*
X309245000Y-455980800D03*
X214350600Y-280695400D03*
X304215800Y-251841000D03*
X340944200Y-39903400D03*
X216027000Y-259156200D03*
X341071200Y-123469400D03*
X379222000Y-174523400D03*
X225602800Y-259537200D03*
X377837700Y-301701200D03*
X379412500Y-301701200D03*
X337058000Y-302412400D03*
X336740500Y-296976800D03*
X338315300Y-292811200D03*
X336689700Y-285800800D03*
X336740500Y-299618400D03*
X338315300Y-302158400D03*
X338264500Y-285800800D03*
X336740500Y-294487600D03*
X338429600Y-300278800D03*
X338315300Y-296976800D03*
X338175600Y-288137600D03*
X337261200Y-291388800D03*
X338315300Y-294487600D03*
X337159600Y-289560000D03*
X366966500Y-285394400D03*
X368541300Y-285394400D03*
X366966500Y-298145200D03*
X366966500Y-295503600D03*
X366966500Y-293014400D03*
X368541300Y-290474400D03*
X368541300Y-293014400D03*
X368541300Y-287985200D03*
X366966500Y-287985200D03*
X368541300Y-300685200D03*
X368541300Y-295503600D03*
X368541300Y-298145200D03*
X366966500Y-290474400D03*
X366966500Y-300685200D03*
X481990400Y-288594800D03*
G04 #@! TO.N,Net-(J1-Pad39)*
X476808800Y-294995600D03*
G04 #@! TO.N,Net-(J1-Pad37)*
X475894400Y-293878000D03*
G04 #@! TO.N,Net-(J1-Pad35)*
X475030800Y-296011600D03*
G04 #@! TO.N,+5V*
X353466400Y-275780500D03*
X353466400Y-277355300D03*
X323215000Y-246786400D03*
X303504600Y-259359400D03*
X323570600Y-259461000D03*
X303504600Y-257784600D03*
X303758600Y-246761000D03*
X323570600Y-257886200D03*
X303758600Y-248335800D03*
X323215000Y-248361200D03*
X445636000Y-293052400D03*
X445545800Y-303943000D03*
X467365800Y-292847800D03*
X467665800Y-303993000D03*
X445636000Y-294627200D03*
X445545800Y-305517800D03*
X467665800Y-305567800D03*
X311091000Y-248716200D03*
X312665800Y-248716200D03*
X467046600Y-291439000D03*
X312665000Y-258709400D03*
X311090200Y-258709400D03*
X324383400Y-477850200D03*
X325958200Y-477850200D03*
X324256400Y-455726800D03*
X325831200Y-455726800D03*
X313563000Y-455879200D03*
X315137800Y-455879200D03*
X312877200Y-477697800D03*
X311404000Y-477037400D03*
X285445200Y-383921000D03*
X287020000Y-383921000D03*
X296265600Y-383235200D03*
X297840400Y-383235200D03*
X285394400Y-362178600D03*
X286969200Y-362178600D03*
X301269400Y-369011200D03*
X302260000Y-370027200D03*
X220065600Y-280466800D03*
X221640400Y-280466800D03*
X230962200Y-279882600D03*
X232537000Y-279882600D03*
X220319600Y-258902200D03*
X221919800Y-259003800D03*
X231470200Y-260070600D03*
X232994200Y-260680200D03*
X384352800Y-179705000D03*
X383413000Y-178739800D03*
X392430000Y-186664600D03*
X391490200Y-185699400D03*
X407797000Y-171805600D03*
X406857200Y-170840400D03*
X404368000Y-178892200D03*
X403402800Y-179832000D03*
X386638800Y-162255200D03*
X385673600Y-163195000D03*
X418706300Y-218249500D03*
X420281100Y-218249500D03*
X346976700Y-123278900D03*
X348551500Y-123278900D03*
X346849700Y-40157400D03*
X348424500Y-40157400D03*
X454571100Y-123774200D03*
X455803000Y-124904500D03*
X266293600Y-184924700D03*
X266293600Y-186499500D03*
X112687100Y-293636700D03*
X112687100Y-295211500D03*
X186410600Y-293509700D03*
X186410600Y-295084500D03*
X253847600Y-246773700D03*
X253847600Y-248348500D03*
X254165100Y-257314700D03*
X254165100Y-258889500D03*
X374205500Y-243230400D03*
X372630700Y-243230400D03*
X385051300Y-243636800D03*
X383476500Y-243636800D03*
X349059500Y-200050400D03*
X347484700Y-200050400D03*
X338264500Y-199796400D03*
X336689700Y-199796400D03*
X325729600Y-345960700D03*
X325729600Y-347535500D03*
X311467500Y-407860500D03*
X310870600Y-409321000D03*
X221538800Y-509308100D03*
X223113600Y-509308100D03*
X256768600Y-480326700D03*
X256768600Y-481901500D03*
X324434200Y-512406900D03*
X326009000Y-512406900D03*
X418719000Y-350621600D03*
X418719000Y-352196400D03*
X564616600Y-303733200D03*
X564616600Y-305308000D03*
X509308100Y-303860200D03*
X509308100Y-305435000D03*
X505079000Y-259207000D03*
X506222000Y-260413500D03*
X541464500Y-223329500D03*
X542607500Y-224536000D03*
X453009000Y-381508000D03*
X454215500Y-380365000D03*
X503110500Y-404558500D03*
X504317000Y-403415500D03*
X306298600Y-419100000D03*
X306895500Y-417639500D03*
X256832100Y-319671700D03*
X255651000Y-320675000D03*
X156210000Y-293458900D03*
X156210000Y-295033700D03*
X129349500Y-65151000D03*
X130556000Y-64008000D03*
X189357000Y-122999500D03*
X188150500Y-124142500D03*
X299999400Y-211569300D03*
X298792900Y-212712300D03*
X153479500Y-87249000D03*
X152273000Y-88392000D03*
X235394500Y-169164000D03*
X234188000Y-170307000D03*
X348488000Y-78701900D03*
X346913200Y-78701900D03*
X433044600Y-145173700D03*
X434149500Y-146177000D03*
X374256300Y-262420100D03*
X372681500Y-262420100D03*
X374319800Y-284073600D03*
X372745000Y-284073600D03*
X384987800Y-284264100D03*
X383413000Y-284264100D03*
X388150100Y-275856700D03*
X388150100Y-277431500D03*
X359257600Y-311480200D03*
X359257600Y-313055000D03*
X359003600Y-322211700D03*
X359003600Y-323786500D03*
X372694200Y-330606400D03*
X374269000Y-330606400D03*
X384987800Y-330809600D03*
X383413000Y-330809600D03*
X394373100Y-322529200D03*
X394373100Y-324104000D03*
X391299700Y-311581800D03*
X391299700Y-313156600D03*
X385114800Y-298869100D03*
X383540000Y-298869100D03*
X374192800Y-298805600D03*
X372618000Y-298805600D03*
X325716900Y-275717000D03*
X325716900Y-277291800D03*
X330771500Y-286867600D03*
X332346300Y-286867600D03*
X341718900Y-285356300D03*
X343293700Y-285356300D03*
X340995000Y-261810500D03*
X342569800Y-261810500D03*
X329819000Y-262928100D03*
X331393800Y-262928100D03*
X383476500Y-258927600D03*
X385051300Y-258927600D03*
X383476500Y-256387600D03*
X385051300Y-256387600D03*
X383476500Y-253746000D03*
X385051300Y-253746000D03*
X383476500Y-251256800D03*
X385051300Y-251256800D03*
X383476500Y-248716800D03*
X385051300Y-248716800D03*
X383476500Y-246227600D03*
X385051300Y-246227600D03*
X311155800Y-256530200D03*
X312730600Y-256530200D03*
X311105000Y-253837800D03*
X312679800Y-253837800D03*
X311105000Y-251348600D03*
X312679800Y-251348600D03*
X311105000Y-246268600D03*
X312679800Y-246268600D03*
X311105000Y-243728600D03*
X312679800Y-243728600D03*
X311105000Y-241188600D03*
X312679800Y-241188600D03*
G04 #@! TO.N,Net-(J1-Pad44)*
X89712800Y-291693600D03*
G04 #@! TO.N,Net-(J1-Pad52)*
X518160000Y-419633400D03*
G04 #@! TO.N,Net-(J1-Pad56)*
X219710000Y-521614400D03*
G04 #@! TO.N,Net-(J1-Pad48)*
X320903602Y-523595600D03*
G04 #@! TO.N,Net-(J1-Pad60)*
X120904000Y-52476400D03*
X88544400Y-296265600D03*
X94691200Y-296265600D03*
G04 #@! TD*
D13*
G04 #@! TO.N,*
X381127000Y-274955000D02*
X379095000Y-276987000D01*
X379095000Y-276987000D02*
X379095000Y-281152600D01*
X333832200Y-271246600D02*
X334797400Y-272211800D01*
X332257400Y-271246600D02*
X333832200Y-271246600D01*
X343128600Y-276987000D02*
X343128600Y-281152600D01*
X345160600Y-274955000D02*
X343128600Y-276987000D01*
X369798600Y-271246600D02*
X370763800Y-272211800D01*
X368223800Y-271246600D02*
X369798600Y-271246600D01*
D14*
X379399800Y-318135000D02*
X379399800Y-321792600D01*
X381228600Y-316306200D02*
X379399800Y-318135000D01*
X380263400Y-310261000D02*
X380263400Y-313207400D01*
X382193800Y-308330600D02*
X380263400Y-310261000D01*
X371525800Y-317474600D02*
X369697000Y-319303400D01*
X369697000Y-319303400D02*
X369697000Y-321487800D01*
X372694200Y-307619400D02*
X370713000Y-309600600D01*
X370713000Y-309600600D02*
X370713000Y-313156600D01*
D13*
X309676800Y-244957600D02*
X309372000Y-244652800D01*
X319938400Y-244957600D02*
X309676800Y-244957600D01*
X320268600Y-245287800D02*
X319938400Y-244957600D01*
X320014600Y-255143000D02*
X321411600Y-256540000D01*
X309397400Y-255143000D02*
X320014600Y-255143000D01*
X386080000Y-171348400D02*
X388823200Y-171348400D01*
X385013200Y-172415200D02*
X386080000Y-171348400D01*
X394563600Y-177800000D02*
X394563600Y-177139600D01*
X397103600Y-180340000D02*
X394563600Y-177800000D01*
X389026400Y-174142400D02*
X389940800Y-173228000D01*
X389940800Y-173228000D02*
X389940800Y-170789600D01*
X389940800Y-170789600D02*
X388061200Y-168910000D01*
X388061200Y-167182800D02*
X388061200Y-168859200D01*
X388467600Y-166776400D02*
X388061200Y-167182800D01*
D14*
G04 #@! TO.N,Net-(J1-Pad39)*
X384657600Y-324916800D02*
X384657600Y-305866800D01*
X383438400Y-269646400D02*
X385749800Y-267335000D01*
X476808800Y-303174400D02*
X469239600Y-310743600D01*
X444804800Y-310743600D02*
X426313600Y-329234800D01*
X469239600Y-310743600D02*
X444804800Y-310743600D01*
X384962400Y-266547600D02*
X381747800Y-266547600D01*
X388975600Y-329234800D02*
X384657600Y-324916800D01*
X384657600Y-305866800D02*
X375208800Y-296418000D01*
X476808800Y-294995600D02*
X476808800Y-303174400D01*
X375208800Y-296418000D02*
X375208800Y-273964400D01*
X375208800Y-273964400D02*
X379526800Y-269646400D01*
X379526800Y-269646400D02*
X383438400Y-269646400D01*
X426313600Y-329234800D02*
X388975600Y-329234800D01*
X385749800Y-267335000D02*
X384962400Y-266547600D01*
G04 #@! TO.N,Net-(J1-Pad37)*
X381747800Y-264007600D02*
X388061200Y-264007600D01*
X388061200Y-264007600D02*
X388467600Y-264414000D01*
X388467600Y-264414000D02*
X388467600Y-266242800D01*
X388467600Y-266242800D02*
X384200400Y-270510000D01*
X384200400Y-270510000D02*
X379780800Y-270510000D01*
X379780800Y-270510000D02*
X376021600Y-274269200D01*
X376021600Y-274269200D02*
X375970800Y-274320000D01*
X375970800Y-274320000D02*
X375970800Y-295859200D01*
X375970800Y-295859200D02*
X385572000Y-305460400D01*
X385572000Y-305460400D02*
X385572000Y-324713600D01*
X385572000Y-324713600D02*
X389178800Y-328320400D01*
X389178800Y-328320400D02*
X426161200Y-328320400D01*
X426161200Y-328320400D02*
X444500000Y-309981600D01*
X444500000Y-309981600D02*
X468630000Y-309981600D01*
X475894400Y-302717200D02*
X475894400Y-293878000D01*
X468630000Y-309981600D02*
X475894400Y-302717200D01*
G04 #@! TO.N,Net-(J1-Pad35)*
X388620000Y-261467600D02*
X381747800Y-261467600D01*
X389636000Y-262483600D02*
X388620000Y-261467600D01*
X475030800Y-296011600D02*
X475030800Y-302361600D01*
X475030800Y-302361600D02*
X468172800Y-309219600D01*
X443788800Y-309219600D02*
X425551600Y-327456800D01*
X376732800Y-295351200D02*
X376732800Y-274726400D01*
X468172800Y-309219600D02*
X443788800Y-309219600D01*
X386435600Y-305054000D02*
X376732800Y-295351200D01*
X425551600Y-327456800D02*
X389534400Y-327456800D01*
X389534400Y-327456800D02*
X386435600Y-324358000D01*
X384962400Y-271424400D02*
X389636000Y-266750800D01*
X386435600Y-324358000D02*
X386435600Y-305054000D01*
X380034800Y-271424400D02*
X384962400Y-271424400D01*
X376732800Y-274726400D02*
X380034800Y-271424400D01*
X389636000Y-266750800D02*
X389636000Y-262483600D01*
G04 #@! TO.N,Net-(J1-Pad44)*
X97891600Y-228447600D02*
X89712800Y-236626400D01*
X89712800Y-236626400D02*
X89712800Y-291693600D01*
X293827200Y-228447600D02*
X97891600Y-228447600D01*
X301447200Y-220827600D02*
X293827200Y-228447600D01*
X306797800Y-220827600D02*
X301447200Y-220827600D01*
G04 #@! TO.N,Net-(J1-Pad52)*
X517960103Y-419833297D02*
X518160000Y-419633400D01*
X306797800Y-230987600D02*
X101904800Y-230987600D01*
X101904800Y-230987600D02*
X92202000Y-240690400D01*
X92202000Y-240690400D02*
X92202000Y-509016000D01*
X92202000Y-509016000D02*
X105664000Y-522478000D01*
X105664000Y-522478000D02*
X415315400Y-522478000D01*
X415315400Y-522478000D02*
X517960103Y-419833297D01*
G04 #@! TO.N,Net-(J1-Pad56)*
X109372400Y-521614400D02*
X219710000Y-521614400D01*
X93421200Y-505663200D02*
X109372400Y-521614400D01*
X93421200Y-242519200D02*
X93421200Y-505663200D01*
X103682800Y-232257600D02*
X93421200Y-242519200D01*
X297586400Y-232257600D02*
X103682800Y-232257600D01*
X301396400Y-236067600D02*
X297586400Y-232257600D01*
X306797800Y-236067600D02*
X301396400Y-236067600D01*
G04 #@! TO.N,Net-(J1-Pad48)*
X90932000Y-513029200D02*
X101498400Y-523595600D01*
X90932000Y-238760000D02*
X90932000Y-513029200D01*
X101498400Y-523595600D02*
X320852800Y-523595600D01*
X99923600Y-229768400D02*
X90932000Y-238760000D01*
X297891200Y-229768400D02*
X99923600Y-229768400D01*
X301752000Y-225907600D02*
X297891200Y-229768400D01*
X306797800Y-225907600D02*
X301752000Y-225907600D01*
G04 #@! TO.N,Net-(J1-Pad60)*
X88544400Y-84836000D02*
X88544400Y-296265600D01*
X120904000Y-52476400D02*
X88544400Y-84836000D01*
X302666400Y-241147600D02*
X306797800Y-241147600D01*
X295198800Y-233680000D02*
X302666400Y-241147600D01*
X105105200Y-233680000D02*
X295198800Y-233680000D01*
X94691200Y-244094000D02*
X105105200Y-233680000D01*
X94691200Y-296214804D02*
X94691200Y-244094000D01*
X94741996Y-296265600D02*
X94691200Y-296214804D01*
G04 #@! TD*
M02*
