M48
; DRILL file {KiCad (5.1.9)-1} date 12/17/21 10:11:03
; FORMAT={-:-/ absolute / inch / decimal}
; #@! TF.CreationDate,2021-12-17T10:11:03-05:00
; #@! TF.GenerationSoftware,Kicad,Pcbnew,(5.1.9)-1
; #@! TF.FileFunction,Plated,1,2,PTH
FMAT,2
INCH
T1C0.0078
T2C0.1260
%
G90
G05
T1
X3.486Y-11.664
X3.532Y-11.484
X3.728Y-11.664
X4.399Y-11.328
X4.399Y-11.39
X4.4365Y-11.5605
X4.4365Y-11.6225
X4.76Y-2.066
X5.0925Y-2.565
X5.14Y-2.52
X5.2525Y-2.3975
X5.3Y-2.3525
X5.995Y-3.48
X6.0425Y-3.435
X6.1375Y-11.3335
X6.1375Y-11.3955
X6.15Y-11.5535
X6.15Y-11.6155
X6.1625Y-3.3125
X6.21Y-3.2675
X7.3265Y-11.3355
X7.3265Y-11.3975
X7.339Y-11.5555
X7.339Y-11.6175
X7.4075Y-4.8875
X7.455Y-4.8425
X7.5675Y-4.73
X7.615Y-4.685
X8.439Y-11.051
X8.443Y-10.203
X8.4895Y-20.054
X8.501Y-11.051
X8.505Y-10.203
X8.5515Y-20.054
X8.65Y-20.536
X8.664Y-11.042
X8.674Y-10.193
X8.722Y-20.0515
X8.726Y-11.042
X8.737Y-10.197
X8.784Y-20.0515
X8.866Y-11.045
X8.882Y-10.218
X8.928Y-11.045
X8.945Y-10.226
X9.093Y-11.019
X9.113Y-10.239
X9.155Y-11.019
X9.173Y-10.263
X9.22Y-6.705
X9.2675Y-6.66
X9.38Y-6.5375
X9.4275Y-6.4925
X9.875Y-12.7725
X9.9215Y-12.733
X9.994Y-9.7155
X9.994Y-9.7775
X10.0015Y-9.4855
X10.0015Y-9.5475
X10.0065Y-10.1305
X10.0065Y-10.1925
X10.014Y-9.9155
X10.014Y-9.9775
X10.065Y-12.625
X10.109Y-18.9105
X10.109Y-18.9725
X10.1115Y-12.5855
X10.1115Y-18.673
X10.1115Y-18.735
X10.4815Y-7.0505
X10.4815Y-7.1125
X10.484Y-7.2805
X10.484Y-7.3425
X11.013Y-14.297
X11.014Y-15.125
X11.069Y-15.125
X11.075Y-14.297
X11.236Y-14.259
X11.238Y-15.115
X11.298Y-14.259
X11.3Y-15.115
X11.439Y-15.122
X11.501Y-15.122
X11.664Y-15.088
X11.673Y-14.4
X11.709Y-14.439
X11.726Y-15.088
X11.7635Y-8.3745
X11.811Y-8.3295
X11.815Y-9.495
X11.815Y-9.557
X11.861Y-14.528
X11.9Y-14.568
X11.949Y-10.149
X11.949Y-10.211
X11.959Y-9.715
X11.959Y-9.777
X11.969Y-16.7175
X11.977Y-9.915
X11.977Y-9.977
X11.9925Y-16.66
X12.059Y-16.5
X12.067Y-18.662
X12.0825Y-16.4425
X12.109Y-18.7
X12.113Y-17.952
X12.144Y-16.3275
X12.1675Y-16.27
X12.175Y-17.952
X12.18Y-9.632
X12.181Y-10.045
X12.187Y-8.4815
X12.2345Y-8.4365
X12.239Y-16.115
X12.2476Y-10.1854
X12.2477Y-9.792
X12.2482Y-9.4956
X12.2482Y-9.5956
X12.2482Y-9.6956
X12.2482Y-9.8956
X12.2482Y-9.9936
X12.2502Y-10.0996
X12.26Y-18.781
X12.2625Y-16.0575
X12.3096Y-10.1854
X12.3097Y-9.792
X12.3102Y-9.4956
X12.3102Y-9.5956
X12.3102Y-9.6956
X12.3102Y-9.8956
X12.3102Y-9.9936
X12.3122Y-10.0996
X12.318Y-18.807
X12.345Y-17.948
X12.407Y-17.948
X12.4831Y-9.5212
X12.4862Y-9.9476
X12.5355Y-20.1785
X12.543Y-18.819
X12.544Y-17.954
X12.5451Y-9.5212
X12.5482Y-9.9476
X12.5975Y-20.1785
X12.605Y-18.819
X12.606Y-17.954
X12.609Y-9.657
X12.634Y-20.614
X12.654Y-10.1
X12.677Y-9.495
X12.677Y-9.557
X12.725Y-9.716
X12.725Y-9.778
X12.731Y-9.929
X12.731Y-9.991
X12.739Y-10.153
X12.739Y-10.215
X12.766Y-17.942
X12.771Y-18.813
X12.773Y-20.1735
X12.794Y-13.3905
X12.794Y-13.4525
X12.8235Y-10.855
X12.8235Y-10.917
X12.824Y-13.6205
X12.824Y-13.6825
X12.828Y-17.942
X12.833Y-18.813
X12.835Y-20.1735
X12.8935Y-10.6325
X12.8935Y-10.6945
X12.985Y-10.3515
X13.0225Y-11.294
X13.0255Y-7.8635
X13.047Y-10.3515
X13.081Y-10.679
X13.0845Y-11.294
X13.0875Y-7.8635
X13.181Y-10.717
X13.2475Y-10.3815
X13.2555Y-7.866
X13.2555Y-11.252
X13.2575Y-11.594
X13.2575Y-11.692
X13.2575Y-11.796
X13.27Y-11.906
X13.274Y-11.4
X13.278Y-11.472
X13.303Y-10.366
X13.314Y-11.344
X13.3175Y-7.866
X13.3175Y-11.252
X13.3195Y-11.528
X13.3195Y-11.594
X13.3195Y-11.692
X13.3195Y-11.896
X13.324Y-11.822
X13.423Y-1.571
X13.425Y-10.3075
X13.4255Y-3.106
X13.428Y-4.861
X13.448Y-7.871
X13.4535Y-11.2345
X13.485Y-1.571
X13.487Y-10.3075
X13.4875Y-3.106
X13.49Y-4.861
X13.509Y-11.069
X13.51Y-7.871
X13.5155Y-11.2345
X13.589Y-10.825
X13.6555Y-1.581
X13.658Y-3.0985
X13.6605Y-4.8535
X13.6805Y-7.876
X13.6825Y-10.374
X13.685Y-11.204
X13.7175Y-1.581
X13.72Y-3.0985
X13.7225Y-4.8535
X13.7425Y-7.876
X13.7445Y-10.374
X13.747Y-11.204
X13.851Y-10.64
X13.851Y-10.702
X13.916Y-10.8575
X13.916Y-10.9195
X14.044Y-12.458
X14.044Y-12.52
X14.134Y-12.6855
X14.134Y-12.7475
X14.144Y-12.263
X14.144Y-12.325
X14.2165Y-12.038
X14.2165Y-12.1
X14.4405Y-13.1635
X14.443Y-12.881
X14.4475Y-11.236
X14.4475Y-11.338
X14.4475Y-11.436
X14.4475Y-11.536
X14.4475Y-11.634
X14.4475Y-11.738
X14.4475Y-11.838
X14.497Y-10.679
X14.5025Y-13.1635
X14.505Y-12.881
X14.5095Y-11.236
X14.5095Y-11.338
X14.5095Y-11.436
X14.5095Y-11.536
X14.5095Y-11.634
X14.5095Y-11.738
X14.5095Y-11.838
X14.555Y-12.657
X14.595Y-12.329
X14.597Y-10.717
X14.627Y-12.499
X14.67Y-11.764
X14.6705Y-9.576
X14.6725Y-10.3315
X14.673Y-12.111
X14.673Y-13.016
X14.675Y-11.184
X14.732Y-11.764
X14.7325Y-9.576
X14.7345Y-10.3315
X14.735Y-13.016
X14.737Y-11.184
X14.865Y-9.545
X14.875Y-11.199
X14.875Y-13.129
X14.8755Y-11.878
X14.88Y-10.344
X14.925Y-11.069
X14.927Y-9.545
X14.93Y-6.871
X14.937Y-11.199
X14.937Y-12.669
X14.937Y-13.129
X14.9375Y-11.878
X14.942Y-10.344
X14.967Y-6.909
X14.971Y-12.331
X15.005Y-10.825
X15.009Y-12.453
X15.047Y-12.139
X15.051Y-6.601
X15.089Y-6.564
X15.095Y-7.037
X15.095Y-11.1915
X15.095Y-13.024
X15.0975Y-9.592
X15.0975Y-9.694
X15.0975Y-9.792
X15.0975Y-9.892
X15.0975Y-9.99
X15.0975Y-10.094
X15.0975Y-10.194
X15.1Y-11.7665
X15.132Y-7.075
X15.157Y-11.1915
X15.157Y-13.024
X15.158Y-6.788
X15.1595Y-9.592
X15.1595Y-9.694
X15.1595Y-9.792
X15.1595Y-9.892
X15.1595Y-9.99
X15.1595Y-10.094
X15.1595Y-10.194
X15.162Y-11.7665
X15.184Y-6.425
X15.222Y-6.388
X15.229Y-7.168
X15.266Y-7.206
X15.2815Y-10.628
X15.2815Y-10.69
X15.2815Y-10.8605
X15.2815Y-10.9225
X15.294Y-6.566
X15.308Y-6.746
X15.316Y-6.856
X15.4055Y-12.267
X15.4055Y-12.329
X15.413Y-7.311
X15.45Y-7.349
X15.4615Y-12.4565
X15.4615Y-12.5185
X15.5265Y-12.698
X15.5265Y-12.76
X15.534Y-6.974
X15.634Y-7.1
X15.644Y-12.028
X15.644Y-12.09
X15.689Y-7.214
X15.727Y-7.177
X15.851Y-6.572
X15.882Y-7.08
X15.888Y-6.61
X15.92Y-7.043
X16.018Y-6.726
X16.055Y-6.764
X16.242Y-8.5925
X16.304Y-8.5925
X16.475Y-14.039
X16.475Y-14.101
X16.4845Y-8.5925
X16.485Y-13.804
X16.485Y-13.866
X16.5465Y-8.5925
X16.875Y-5.5475
X16.914Y-5.5875
X17.049Y-5.7155
X17.0925Y-5.755
X17.5396Y-11.2899
X17.5396Y-11.3519
X17.5396Y-11.7312
X17.5396Y-11.7932
X17.5412Y-11.9663
X17.5412Y-12.0283
X17.5447Y-11.5375
X17.5447Y-11.5995
X17.6725Y-15.18
X17.72Y-15.135
X17.7365Y-4.7105
X17.7775Y-4.76
X17.835Y-15.02
X17.8825Y-14.975
X17.8965Y-4.873
X17.945Y-4.9175
X18.301Y-11.282
X18.3183Y-11.3239
X18.3877Y-11.474
X18.4002Y-11.5294
X18.4113Y-11.7296
X18.4113Y-11.7916
X18.412Y-11.9682
X18.412Y-12.0302
X18.702Y-11.654
X18.736Y-11.57
X18.772Y-11.614
X18.976Y-11.362
X19.645Y-16.0875
X19.6925Y-16.0425
X19.725Y-10.0425
X19.77Y-10.09
X19.8075Y-15.9275
X19.855Y-15.8825
X19.885Y-10.205
X19.93Y-10.2525
X20.0515Y-11.963
X20.0515Y-12.025
X20.4Y-16.521
X20.525Y-11.7265
X20.525Y-11.7885
X21.1575Y-8.63
X21.2025Y-8.6775
X21.3175Y-8.7925
X21.3625Y-8.84
X22.214Y-11.728
X22.214Y-11.79
X22.229Y-11.958
X22.229Y-12.02
T2
X3.337Y-1.368
X3.3375Y-20.4825
X22.45Y-1.3675
X22.45Y-20.48
T0
M30
