%TF.GenerationSoftware,KiCad,Pcbnew,(5.1.9)-1*%
%TF.CreationDate,2021-12-03T12:33:04-05:00*%
%TF.ProjectId,500x500-dc-metro-map-dev,35303078-3530-4302-9d64-632d6d657472,rev?*%
%TF.SameCoordinates,Original*%
%TF.FileFunction,Paste,Bot*%
%TF.FilePolarity,Positive*%
%FSLAX46Y46*%
G04 Gerber Fmt 4.6, Leading zero omitted, Abs format (unit mm)*
G04 Created by KiCad (PCBNEW (5.1.9)-1) date 2021-12-03 12:33:04*
%MOMM*%
%LPD*%
G01*
G04 APERTURE LIST*
%ADD10R,3.680000X1.270000*%
G04 APERTURE END LIST*
D10*
%TO.C,J1*%
X376797800Y-266547600D03*
X381747800Y-266547600D03*
X376797800Y-264007600D03*
X381747800Y-264007600D03*
X376797800Y-261467600D03*
X381747800Y-261467600D03*
X376797800Y-258927600D03*
X381747800Y-258927600D03*
X376797800Y-256387600D03*
X381747800Y-256387600D03*
X376797800Y-253847600D03*
X381747800Y-253847600D03*
X376797800Y-251307600D03*
X381747800Y-251307600D03*
X376797800Y-248767600D03*
X381747800Y-248767600D03*
X376797800Y-246227600D03*
X381747800Y-246227600D03*
X376797800Y-243687600D03*
X381747800Y-243687600D03*
X376797800Y-241147600D03*
X381747800Y-241147600D03*
X376797800Y-238607600D03*
X381747800Y-238607600D03*
X376797800Y-236067600D03*
X381747800Y-236067600D03*
X376797800Y-233527600D03*
X381747800Y-233527600D03*
X376797800Y-230987600D03*
X381747800Y-230987600D03*
X376797800Y-228447600D03*
X381747800Y-228447600D03*
X376797800Y-225907600D03*
X381747800Y-225907600D03*
X376797800Y-223367600D03*
X381747800Y-223367600D03*
X376797800Y-220827600D03*
X381747800Y-220827600D03*
X376797800Y-218287600D03*
X381747800Y-218287600D03*
X311747800Y-218287600D03*
X306797800Y-261467600D03*
X306797800Y-218287600D03*
X311747800Y-225907600D03*
X311747800Y-238607600D03*
X306797800Y-238607600D03*
X311747800Y-246227600D03*
X306797800Y-251307600D03*
X306797800Y-220827600D03*
X306797800Y-223367600D03*
X311747800Y-223367600D03*
X311747800Y-230987600D03*
X311747800Y-248767600D03*
X311747800Y-233527600D03*
X306797800Y-248767600D03*
X311747800Y-253847600D03*
X311747800Y-256387600D03*
X306797800Y-230987600D03*
X311747800Y-261467600D03*
X306797800Y-266547600D03*
X311747800Y-243687600D03*
X306797800Y-228447600D03*
X311747800Y-258927600D03*
X311747800Y-220827600D03*
X306797800Y-246227600D03*
X306797800Y-236067600D03*
X306797800Y-253847600D03*
X311747800Y-266547600D03*
X306797800Y-258927600D03*
X311747800Y-264007600D03*
X306797800Y-243687600D03*
X311747800Y-228447600D03*
X306797800Y-256387600D03*
X306797800Y-225907600D03*
X311747800Y-236067600D03*
X311747800Y-241147600D03*
X306797800Y-241147600D03*
X306797800Y-233527600D03*
X311747800Y-251307600D03*
X306797800Y-264007600D03*
%TD*%
M02*
