M48
; DRILL file {KiCad (5.1.9)-1} date 12/03/21 12:33:23
; FORMAT={-:-/ absolute / metric / decimal}
; #@! TF.CreationDate,2021-12-03T12:33:23-05:00
; #@! TF.GenerationSoftware,Kicad,Pcbnew,(5.1.9)-1
; #@! TF.FileFunction,Plated,1,2,PTH
FMAT,2
METRIC
T1C0.198
T2C3.200
%
G90
G05
T1
X88.544Y-296.266
X89.713Y-291.694
X94.691Y-296.266
X111.735Y-287.731
X111.735Y-289.306
X112.687Y-293.637
X112.687Y-295.212
X120.904Y-52.476
X129.35Y-65.151
X130.556Y-64.008
X133.413Y-60.896
X134.62Y-59.753
X152.273Y-88.392
X153.48Y-87.249
X155.892Y-287.871
X155.892Y-289.446
X156.21Y-293.459
X156.21Y-295.034
X156.528Y-84.138
X157.734Y-82.995
X186.093Y-287.922
X186.093Y-289.496
X186.411Y-293.51
X186.411Y-295.084
X188.15Y-124.142
X189.357Y-122.999
X192.214Y-120.142
X193.421Y-118.999
X214.351Y-280.695
X214.452Y-259.156
X215.633Y-509.372
X215.925Y-280.695
X216.027Y-259.156
X217.208Y-509.372
X219.71Y-521.614
X220.066Y-280.467
X220.32Y-258.902
X221.539Y-509.308
X221.64Y-280.467
X221.92Y-259.004
X223.114Y-509.308
X225.196Y-280.543
X225.603Y-259.537
X226.771Y-280.543
X227.203Y-259.74
X230.962Y-279.883
X231.47Y-260.071
X232.537Y-279.883
X232.994Y-260.68
X234.188Y-170.307
X235.394Y-169.164
X238.252Y-166.052
X239.458Y-164.909
X250.825Y-324.421
X252.006Y-323.418
X253.848Y-246.774
X253.848Y-248.349
X254.038Y-240.932
X254.038Y-242.506
X254.165Y-257.315
X254.165Y-258.889
X254.356Y-251.854
X254.356Y-253.428
X255.651Y-320.675
X256.769Y-480.327
X256.769Y-481.901
X256.832Y-319.672
X256.832Y-474.294
X256.832Y-475.869
X266.23Y-179.083
X266.23Y-180.657
X266.294Y-184.925
X266.294Y-186.499
X279.73Y-363.144
X279.756Y-384.175
X281.153Y-384.175
X281.305Y-363.144
X285.394Y-362.179
X285.445Y-383.921
X286.969Y-362.179
X287.02Y-383.921
X290.551Y-384.099
X292.125Y-384.099
X296.266Y-383.235
X296.494Y-365.76
X297.409Y-366.751
X297.84Y-383.235
X298.793Y-212.712
X299.999Y-211.569
X300.101Y-241.173
X300.101Y-242.748
X301.269Y-369.011
X302.26Y-370.027
X303.505Y-257.785
X303.505Y-259.359
X303.759Y-246.761
X303.759Y-248.336
X304.013Y-424.624
X304.216Y-251.841
X304.216Y-253.416
X304.609Y-423.164
X306.299Y-419.1
X306.502Y-474.015
X306.895Y-417.639
X307.569Y-474.98
X307.67Y-455.981
X308.458Y-414.719
X309.054Y-413.258
X309.245Y-455.981
X309.372Y-244.653
X309.397Y-255.143
X309.55Y-215.43
X310.756Y-214.287
X310.871Y-409.321
X311.09Y-258.709
X311.091Y-248.716
X311.105Y-241.189
X311.105Y-243.729
X311.105Y-246.269
X311.105Y-251.349
X311.105Y-253.838
X311.156Y-256.53
X311.404Y-477.037
X311.467Y-407.861
X312.665Y-258.709
X312.666Y-248.716
X312.68Y-241.189
X312.68Y-243.729
X312.68Y-246.269
X312.68Y-251.349
X312.68Y-253.838
X312.731Y-256.53
X312.877Y-477.698
X313.563Y-455.879
X315.138Y-455.879
X317.07Y-241.839
X317.15Y-252.669
X318.402Y-512.534
X318.592Y-478.003
X318.618Y-456.032
X318.645Y-241.839
X318.725Y-252.669
X319.976Y-512.534
X320.167Y-478.003
X320.192Y-456.032
X320.269Y-245.288
X320.904Y-523.596
X321.412Y-256.54
X321.996Y-241.173
X321.996Y-242.748
X323.215Y-246.786
X323.215Y-248.361
X323.367Y-252.197
X323.367Y-253.771
X323.571Y-257.886
X323.571Y-259.461
X324.256Y-455.727
X324.383Y-477.85
X324.434Y-512.407
X324.968Y-340.119
X324.968Y-341.693
X325.717Y-275.717
X325.717Y-277.292
X325.73Y-345.961
X325.73Y-347.535
X325.831Y-455.727
X325.958Y-477.85
X326.009Y-512.407
X327.495Y-270.065
X327.495Y-271.64
X329.819Y-262.928
X330.772Y-286.868
X330.848Y-199.733
X331.394Y-262.928
X332.257Y-271.247
X332.346Y-286.868
X332.422Y-199.733
X334.797Y-272.212
X336.486Y-263.69
X336.69Y-199.796
X336.74Y-286.868
X336.74Y-289.458
X336.74Y-291.948
X336.74Y-294.488
X336.74Y-296.977
X336.74Y-299.618
X336.74Y-302.158
X337.896Y-263.296
X338.264Y-199.796
X338.315Y-286.868
X338.315Y-289.458
X338.315Y-291.948
X338.315Y-294.488
X338.315Y-296.977
X338.315Y-299.618
X338.315Y-302.158
X340.944Y-39.903
X340.995Y-261.81
X341.008Y-78.892
X341.071Y-123.469
X341.566Y-286.931
X341.579Y-199.923
X342.519Y-39.903
X342.57Y-261.81
X342.582Y-78.892
X342.646Y-123.469
X343.129Y-281.153
X343.141Y-286.931
X343.154Y-199.923
X345.161Y-274.955
X346.85Y-40.157
X346.913Y-78.702
X346.977Y-123.279
X347.485Y-200.05
X347.535Y-263.5
X347.599Y-284.582
X348.424Y-40.157
X348.488Y-78.702
X348.551Y-123.279
X349.059Y-200.05
X349.11Y-263.5
X349.174Y-284.582
X351.815Y-270.256
X351.815Y-271.831
X353.466Y-275.78
X353.466Y-277.355
X356.718Y-316.433
X356.718Y-318.008
X359.004Y-322.212
X359.004Y-323.786
X359.258Y-311.48
X359.258Y-313.055
X361.099Y-305.765
X361.099Y-307.34
X366.789Y-334.353
X366.852Y-327.177
X366.966Y-285.394
X366.966Y-287.985
X366.966Y-290.474
X366.966Y-293.014
X366.966Y-295.504
X366.966Y-298.145
X366.966Y-300.685
X368.224Y-271.247
X368.363Y-334.353
X368.427Y-327.177
X368.541Y-285.394
X368.541Y-287.985
X368.541Y-290.474
X368.541Y-293.014
X368.541Y-295.504
X368.541Y-298.145
X368.541Y-300.685
X369.697Y-321.488
X370.713Y-313.157
X370.764Y-272.212
X371.526Y-317.475
X372.618Y-298.806
X372.631Y-243.23
X372.681Y-262.42
X372.694Y-307.619
X372.694Y-330.606
X372.745Y-284.074
X374.193Y-298.806
X374.205Y-243.23
X374.256Y-262.42
X374.269Y-330.606
X374.32Y-284.074
X377.571Y-242.443
X377.825Y-284.455
X377.825Y-333.477
X377.838Y-301.701
X377.952Y-262.738
X379.095Y-281.153
X379.146Y-242.443
X379.222Y-174.523
X379.4Y-284.455
X379.4Y-321.793
X379.4Y-333.477
X379.412Y-301.701
X379.527Y-262.738
X380.162Y-175.489
X380.263Y-313.207
X381.127Y-274.955
X381.229Y-316.306
X382.194Y-308.331
X382.295Y-167.665
X383.261Y-166.726
X383.413Y-178.74
X383.413Y-284.264
X383.413Y-330.81
X383.476Y-243.637
X383.476Y-246.228
X383.476Y-248.717
X383.476Y-251.257
X383.476Y-253.746
X383.476Y-256.388
X383.476Y-258.928
X383.54Y-298.869
X384.353Y-179.705
X384.988Y-284.264
X384.988Y-330.81
X385.013Y-172.415
X385.051Y-243.637
X385.051Y-246.228
X385.051Y-248.717
X385.051Y-251.257
X385.051Y-253.746
X385.051Y-256.388
X385.051Y-258.928
X385.115Y-298.869
X385.674Y-163.195
X386.639Y-162.255
X386.817Y-182.067
X387.756Y-183.032
X388.15Y-269.951
X388.15Y-271.526
X388.15Y-275.857
X388.15Y-277.431
X388.468Y-166.776
X388.823Y-171.348
X389.026Y-174.142
X391.3Y-311.582
X391.3Y-313.157
X391.49Y-185.699
X392.43Y-186.665
X392.722Y-316.395
X392.722Y-317.97
X394.373Y-322.529
X394.373Y-324.104
X394.564Y-177.14
X397.104Y-180.34
X397.358Y-305.511
X397.358Y-307.086
X398.501Y-183.236
X399.466Y-182.296
X402.615Y-166.929
X403.403Y-179.832
X403.555Y-167.894
X404.368Y-178.892
X406.857Y-170.84
X407.797Y-171.806
X412.547Y-218.249
X414.122Y-218.249
X418.465Y-356.591
X418.465Y-358.165
X418.706Y-218.249
X418.719Y-350.622
X418.719Y-352.196
X420.281Y-218.249
X428.625Y-140.906
X429.616Y-141.922
X433.045Y-145.174
X434.149Y-146.177
X445.506Y-286.763
X445.506Y-288.338
X445.506Y-297.973
X445.506Y-299.548
X445.546Y-303.943
X445.546Y-305.518
X445.636Y-293.052
X445.636Y-294.627
X448.881Y-385.572
X450.088Y-384.429
X450.507Y-119.647
X451.548Y-120.904
X453.009Y-381.508
X454.215Y-380.365
X454.571Y-123.774
X455.803Y-124.904
X464.845Y-286.563
X465.286Y-287.628
X467.047Y-291.439
X467.366Y-292.848
X467.646Y-297.933
X467.646Y-299.508
X467.666Y-303.993
X467.666Y-305.568
X475.031Y-296.012
X475.894Y-293.878
X476.809Y-294.996
X481.99Y-288.595
X498.983Y-408.623
X500.189Y-407.479
X501.015Y-255.079
X502.158Y-256.286
X503.111Y-404.558
X504.317Y-403.416
X505.079Y-259.207
X506.222Y-260.413
X509.308Y-303.86
X509.308Y-305.435
X518.16Y-419.633
X521.335Y-297.853
X521.335Y-299.428
X537.4Y-219.202
X538.543Y-220.409
X541.464Y-223.329
X542.607Y-224.536
X564.236Y-297.891
X564.236Y-299.466
X564.617Y-303.733
X564.617Y-305.308
T2
X84.76Y-34.747
X84.772Y-520.255
X570.23Y-34.734
X570.23Y-520.192
T0
M30
