G04 #@! TF.GenerationSoftware,KiCad,Pcbnew,(5.1.9)-1*
G04 #@! TF.CreationDate,2022-01-14T01:04:14-05:00*
G04 #@! TF.ProjectId,500x500-dc-metro-map-dev,35303078-3530-4302-9d64-632d6d657472,rev?*
G04 #@! TF.SameCoordinates,Original*
G04 #@! TF.FileFunction,Other,User*
%FSLAX46Y46*%
G04 Gerber Fmt 4.6, Leading zero omitted, Abs format (unit mm)*
G04 Created by KiCad (PCBNEW (5.1.9)-1) date 2022-01-14 01:04:14*
%MOMM*%
%LPD*%
G01*
G04 APERTURE LIST*
%ADD10C,0.100000*%
%ADD11C,0.050000*%
%ADD12C,0.120000*%
G04 APERTURE END LIST*
D10*
G04 #@! TO.C,M1*
G36*
X346193500Y-288947000D02*
G01*
X344693500Y-288947000D01*
X344693500Y-287447000D01*
X346193500Y-287447000D01*
X346193500Y-288947000D01*
G37*
G36*
X261583500Y-329024000D02*
G01*
X260489500Y-330050000D01*
X259463500Y-328957000D01*
X260556500Y-327930000D01*
X261583500Y-329024000D01*
G37*
G36*
X220044500Y-512312000D02*
G01*
X218544500Y-512312000D01*
X218544500Y-510812000D01*
X220044500Y-510812000D01*
X220044500Y-512312000D01*
G37*
G36*
X220044500Y-510080000D02*
G01*
X218544500Y-510080000D01*
X218544500Y-508580000D01*
X220044500Y-508580000D01*
X220044500Y-510080000D01*
G37*
G36*
X220044500Y-507848000D02*
G01*
X218544500Y-507848000D01*
X218544500Y-506348000D01*
X220044500Y-506348000D01*
X220044500Y-507848000D01*
G37*
G36*
X220044500Y-505616000D02*
G01*
X218544500Y-505616000D01*
X218544500Y-504116000D01*
X220044500Y-504116000D01*
X220044500Y-505616000D01*
G37*
G36*
X220044500Y-503384000D02*
G01*
X218544500Y-503384000D01*
X218544500Y-501884000D01*
X220044500Y-501884000D01*
X220044500Y-503384000D01*
G37*
G36*
X220044500Y-501152000D02*
G01*
X218544500Y-501152000D01*
X218544500Y-499652000D01*
X220044500Y-499652000D01*
X220044500Y-501152000D01*
G37*
G36*
X220044500Y-498920000D02*
G01*
X218544500Y-498920000D01*
X218544500Y-497420000D01*
X220044500Y-497420000D01*
X220044500Y-498920000D01*
G37*
G36*
X220044500Y-496688000D02*
G01*
X218544500Y-496688000D01*
X218544500Y-495188000D01*
X220044500Y-495188000D01*
X220044500Y-496688000D01*
G37*
G36*
X220044500Y-494456000D02*
G01*
X218544500Y-494456000D01*
X218544500Y-492956000D01*
X220044500Y-492956000D01*
X220044500Y-494456000D01*
G37*
G36*
X220044500Y-492224000D02*
G01*
X218544500Y-492224000D01*
X218544500Y-490724000D01*
X220044500Y-490724000D01*
X220044500Y-492224000D01*
G37*
G36*
X220044500Y-489992000D02*
G01*
X218544500Y-489992000D01*
X218544500Y-488492000D01*
X220044500Y-488492000D01*
X220044500Y-489992000D01*
G37*
G36*
X220130500Y-486322000D02*
G01*
X220013500Y-487817000D01*
X218517500Y-487700000D01*
X218634500Y-486204000D01*
X220130500Y-486322000D01*
G37*
G36*
X220697500Y-484341000D02*
G01*
X220238500Y-485769000D01*
X218810500Y-485310000D01*
X219270500Y-483882000D01*
X220697500Y-484341000D01*
G37*
G36*
X221708500Y-482547000D02*
G01*
X220931500Y-483830000D01*
X219648500Y-483053000D01*
X220425500Y-481770000D01*
X221708500Y-482547000D01*
G37*
G36*
X223105500Y-481031000D02*
G01*
X222054500Y-482102000D01*
X220984500Y-481051000D01*
X222034500Y-479980000D01*
X223105500Y-481031000D01*
G37*
G36*
X224812500Y-479875000D02*
G01*
X223544500Y-480676000D01*
X222742500Y-479408000D01*
X224010500Y-478607000D01*
X224812500Y-479875000D01*
G37*
G36*
X226738500Y-479145000D02*
G01*
X225319500Y-479631000D01*
X224832500Y-478213000D01*
X226251500Y-477726000D01*
X226738500Y-479145000D01*
G37*
G36*
X228781500Y-478881000D02*
G01*
X227288500Y-479026000D01*
X227142500Y-477533000D01*
X228635500Y-477388000D01*
X228781500Y-478881000D01*
G37*
G36*
X230942500Y-478911000D02*
G01*
X229442500Y-478911000D01*
X229442500Y-477411000D01*
X230942500Y-477411000D01*
X230942500Y-478911000D01*
G37*
G36*
X233174500Y-478911000D02*
G01*
X231674500Y-478911000D01*
X231674500Y-477411000D01*
X233174500Y-477411000D01*
X233174500Y-478911000D01*
G37*
G36*
X235406500Y-478911000D02*
G01*
X233906500Y-478911000D01*
X233906500Y-477411000D01*
X235406500Y-477411000D01*
X235406500Y-478911000D01*
G37*
G36*
X237638500Y-478912000D02*
G01*
X236138500Y-478912000D01*
X236138500Y-477411000D01*
X237638500Y-477411000D01*
X237638500Y-478912000D01*
G37*
G36*
X243560500Y-478914000D02*
G01*
X242060500Y-478914000D01*
X242060500Y-477414000D01*
X243560500Y-477414000D01*
X243560500Y-478914000D01*
G37*
G36*
X245827500Y-478915000D02*
G01*
X244327500Y-478915000D01*
X244327500Y-477415000D01*
X245827500Y-477415000D01*
X245827500Y-478915000D01*
G37*
G36*
X248094500Y-478917000D02*
G01*
X246594500Y-478917000D01*
X246594500Y-477417000D01*
X248094500Y-477417000D01*
X248094500Y-478917000D01*
G37*
G36*
X250361500Y-478918000D02*
G01*
X248861500Y-478918000D01*
X248861500Y-477418000D01*
X250361500Y-477418000D01*
X250361500Y-478918000D01*
G37*
G36*
X252628500Y-478919000D02*
G01*
X251128500Y-478919000D01*
X251128500Y-477419000D01*
X252628500Y-477419000D01*
X252628500Y-478919000D01*
G37*
G36*
X254895500Y-478920000D02*
G01*
X253395500Y-478920000D01*
X253395500Y-477420000D01*
X254895500Y-477420000D01*
X254895500Y-478920000D01*
G37*
G36*
X257162500Y-478921000D02*
G01*
X255662500Y-478921000D01*
X255662500Y-477421000D01*
X257162500Y-477421000D01*
X257162500Y-478921000D01*
G37*
G36*
X259429500Y-478923000D02*
G01*
X257929500Y-478923000D01*
X257929500Y-477423000D01*
X259429500Y-477423000D01*
X259429500Y-478923000D01*
G37*
G36*
X261696500Y-478924000D02*
G01*
X260196500Y-478924000D01*
X260196500Y-477424000D01*
X261696500Y-477424000D01*
X261696500Y-478924000D01*
G37*
G36*
X263963500Y-478925000D02*
G01*
X262463500Y-478925000D01*
X262463500Y-477425000D01*
X263963500Y-477425000D01*
X263963500Y-478925000D01*
G37*
G36*
X266230500Y-478926000D02*
G01*
X264730500Y-478926000D01*
X264730500Y-477426000D01*
X266230500Y-477426000D01*
X266230500Y-478926000D01*
G37*
G36*
X268497500Y-478927000D02*
G01*
X266997500Y-478927000D01*
X266997500Y-477427000D01*
X268497500Y-477427000D01*
X268497500Y-478927000D01*
G37*
G36*
X270764500Y-478929000D02*
G01*
X269264500Y-478929000D01*
X269264500Y-477429000D01*
X270764500Y-477429000D01*
X270764500Y-478929000D01*
G37*
G36*
X273031500Y-478930000D02*
G01*
X271531500Y-478930000D01*
X271531500Y-477430000D01*
X273031500Y-477430000D01*
X273031500Y-478930000D01*
G37*
G36*
X275298500Y-478931000D02*
G01*
X273798500Y-478931000D01*
X273798500Y-477431000D01*
X275298500Y-477431000D01*
X275298500Y-478931000D01*
G37*
G36*
X277565500Y-478932000D02*
G01*
X276065500Y-478932000D01*
X276065500Y-477432000D01*
X277565500Y-477432000D01*
X277565500Y-478932000D01*
G37*
G36*
X279832500Y-478933000D02*
G01*
X278332500Y-478933000D01*
X278332500Y-477433000D01*
X279832500Y-477433000D01*
X279832500Y-478933000D01*
G37*
G36*
X282099500Y-478935000D02*
G01*
X280599500Y-478935000D01*
X280599500Y-477435000D01*
X282099500Y-477435000D01*
X282099500Y-478935000D01*
G37*
G36*
X284366500Y-478936000D02*
G01*
X282866500Y-478936000D01*
X282866500Y-477436000D01*
X284366500Y-477436000D01*
X284366500Y-478936000D01*
G37*
G36*
X286633500Y-478937000D02*
G01*
X285133500Y-478937000D01*
X285133500Y-477437000D01*
X286633500Y-477437000D01*
X286633500Y-478937000D01*
G37*
G36*
X286118500Y-410100000D02*
G01*
X284753500Y-410722000D01*
X284131500Y-409357000D01*
X285496500Y-408735000D01*
X286118500Y-410100000D01*
G37*
G36*
X285264500Y-408131000D02*
G01*
X283835500Y-408587000D01*
X283379500Y-407158000D01*
X284808500Y-406702000D01*
X285264500Y-408131000D01*
G37*
G36*
X284647500Y-406074000D02*
G01*
X283175500Y-406359000D01*
X282889500Y-404887000D01*
X284362500Y-404601000D01*
X284647500Y-406074000D01*
G37*
G36*
X284276500Y-403957000D02*
G01*
X282780500Y-404071000D01*
X282667500Y-402575000D01*
X284163500Y-402462000D01*
X284276500Y-403957000D01*
G37*
G36*
X284166500Y-401783000D02*
G01*
X282665500Y-401783000D01*
X282665500Y-400283000D01*
X284166500Y-400283000D01*
X284166500Y-401783000D01*
G37*
G36*
X284166500Y-399695000D02*
G01*
X282665500Y-399695000D01*
X282665500Y-398195000D01*
X284166500Y-398195000D01*
X284166500Y-399695000D01*
G37*
G36*
X284166500Y-397411000D02*
G01*
X282665500Y-397411000D01*
X282665500Y-395911000D01*
X284166500Y-395911000D01*
X284166500Y-397411000D01*
G37*
G36*
X284166500Y-395127000D02*
G01*
X282665500Y-395127000D01*
X282665500Y-393627000D01*
X284166500Y-393627000D01*
X284166500Y-395127000D01*
G37*
G36*
X284166500Y-392843000D02*
G01*
X282665500Y-392843000D01*
X282665500Y-391343000D01*
X284166500Y-391343000D01*
X284166500Y-392843000D01*
G37*
G36*
X284166500Y-390559000D02*
G01*
X282665500Y-390559000D01*
X282665500Y-389059000D01*
X284166500Y-389059000D01*
X284166500Y-390559000D01*
G37*
G36*
X284166500Y-388275000D02*
G01*
X282665500Y-388275000D01*
X282665500Y-386775000D01*
X284166500Y-386775000D01*
X284166500Y-388275000D01*
G37*
G36*
X284166500Y-385991000D02*
G01*
X282665500Y-385991000D01*
X282665500Y-384491000D01*
X284166500Y-384491000D01*
X284166500Y-385991000D01*
G37*
G36*
X284166500Y-383707000D02*
G01*
X282665500Y-383707000D01*
X282665500Y-382207000D01*
X284166500Y-382207000D01*
X284166500Y-383707000D01*
G37*
G36*
X284166500Y-364405000D02*
G01*
X282666500Y-364405000D01*
X282666500Y-362905000D01*
X284166500Y-362905000D01*
X284166500Y-364405000D01*
G37*
G36*
X284166500Y-362057000D02*
G01*
X282666500Y-362057000D01*
X282666500Y-360557000D01*
X284166500Y-360557000D01*
X284166500Y-362057000D01*
G37*
G36*
X284141500Y-359633000D02*
G01*
X282649500Y-359784000D01*
X282497500Y-358292000D01*
X283989500Y-358140000D01*
X284141500Y-359633000D01*
G37*
G36*
X283836500Y-357211000D02*
G01*
X282374500Y-357546000D01*
X282039500Y-356083000D01*
X283501500Y-355748000D01*
X283836500Y-357211000D01*
G37*
G36*
X283235500Y-354845000D02*
G01*
X281825500Y-355358000D01*
X281312500Y-353948000D01*
X282722500Y-353435000D01*
X283235500Y-354845000D01*
G37*
G36*
X282345500Y-352571000D02*
G01*
X281010500Y-353255000D01*
X280326500Y-351919000D01*
X281662500Y-351236000D01*
X282345500Y-352571000D01*
G37*
G36*
X281181500Y-350425000D02*
G01*
X279941500Y-351269000D01*
X279098500Y-350028000D01*
X280338500Y-349185000D01*
X281181500Y-350425000D01*
G37*
G36*
X279761500Y-348440000D02*
G01*
X278634500Y-349430000D01*
X277644500Y-348303000D01*
X278771500Y-347313000D01*
X279761500Y-348440000D01*
G37*
G36*
X278160500Y-346689000D02*
G01*
X277067500Y-347716000D01*
X276040500Y-346622000D01*
X277134500Y-345595000D01*
X278160500Y-346689000D01*
G37*
G36*
X276554500Y-344977000D02*
G01*
X275460500Y-346003000D01*
X274433500Y-344910000D01*
X275527500Y-343883000D01*
X276554500Y-344977000D01*
G37*
G36*
X274947500Y-343265000D02*
G01*
X273853500Y-344291000D01*
X272827500Y-343197000D01*
X273920500Y-342171000D01*
X274947500Y-343265000D01*
G37*
G36*
X273340500Y-341553000D02*
G01*
X272246500Y-342579000D01*
X271220500Y-341485000D01*
X272314500Y-340459000D01*
X273340500Y-341553000D01*
G37*
G36*
X271733500Y-339840000D02*
G01*
X270640500Y-340867000D01*
X269613500Y-339773000D01*
X270707500Y-338747000D01*
X271733500Y-339840000D01*
G37*
G36*
X287213500Y-245517000D02*
G01*
X285713500Y-245517000D01*
X285713500Y-244017000D01*
X287213500Y-244017000D01*
X287213500Y-245517000D01*
G37*
G36*
X284978500Y-245517000D02*
G01*
X283478500Y-245517000D01*
X283478500Y-244017000D01*
X284978500Y-244017000D01*
X284978500Y-245517000D01*
G37*
G36*
X282743500Y-245517000D02*
G01*
X281243500Y-245517000D01*
X281243500Y-244017000D01*
X282743500Y-244017000D01*
X282743500Y-245517000D01*
G37*
G36*
X280508500Y-245517000D02*
G01*
X279008500Y-245517000D01*
X279008500Y-244017000D01*
X280508500Y-244017000D01*
X280508500Y-245517000D01*
G37*
G36*
X278273500Y-245517000D02*
G01*
X276773500Y-245517000D01*
X276773500Y-244017000D01*
X278273500Y-244017000D01*
X278273500Y-245517000D01*
G37*
G36*
X276038500Y-245517000D02*
G01*
X274538500Y-245517000D01*
X274538500Y-244017000D01*
X276038500Y-244017000D01*
X276038500Y-245517000D01*
G37*
G36*
X273803500Y-245517000D02*
G01*
X272303500Y-245517000D01*
X272303500Y-244017000D01*
X273803500Y-244017000D01*
X273803500Y-245517000D01*
G37*
G36*
X271568500Y-245517000D02*
G01*
X270068500Y-245517000D01*
X270068500Y-244017000D01*
X271568500Y-244017000D01*
X271568500Y-245517000D01*
G37*
G36*
X269333500Y-245517000D02*
G01*
X267833500Y-245517000D01*
X267833500Y-244017000D01*
X269333500Y-244017000D01*
X269333500Y-245517000D01*
G37*
G36*
X267098500Y-245517000D02*
G01*
X265598500Y-245517000D01*
X265598500Y-244017000D01*
X267098500Y-244017000D01*
X267098500Y-245517000D01*
G37*
G36*
X264790500Y-245517000D02*
G01*
X263290500Y-245517000D01*
X263290500Y-244017000D01*
X264790500Y-244017000D01*
X264790500Y-245517000D01*
G37*
G36*
X262455500Y-245517000D02*
G01*
X260955500Y-245517000D01*
X260955500Y-244017000D01*
X262455500Y-244017000D01*
X262455500Y-245517000D01*
G37*
G36*
X260120500Y-245517000D02*
G01*
X258620500Y-245517000D01*
X258620500Y-244017000D01*
X260120500Y-244017000D01*
X260120500Y-245517000D01*
G37*
G36*
X257785500Y-245517000D02*
G01*
X256285500Y-245517000D01*
X256285500Y-244017000D01*
X257785500Y-244017000D01*
X257785500Y-245517000D01*
G37*
G36*
X255450500Y-245517000D02*
G01*
X253949500Y-245517000D01*
X253949500Y-244017000D01*
X255450500Y-244017000D01*
X255450500Y-245517000D01*
G37*
G36*
X253114500Y-245517000D02*
G01*
X251614500Y-245517000D01*
X251614500Y-244017000D01*
X253114500Y-244017000D01*
X253114500Y-245517000D01*
G37*
G36*
X250779500Y-245517000D02*
G01*
X249279500Y-245517000D01*
X249279500Y-244017000D01*
X250779500Y-244017000D01*
X250779500Y-245517000D01*
G37*
G36*
X248444500Y-245517000D02*
G01*
X246944500Y-245517000D01*
X246944500Y-244017000D01*
X248444500Y-244017000D01*
X248444500Y-245517000D01*
G37*
G36*
X246109500Y-245517000D02*
G01*
X244609500Y-245517000D01*
X244609500Y-244017000D01*
X246109500Y-244017000D01*
X246109500Y-245517000D01*
G37*
G36*
X243774500Y-245517000D02*
G01*
X242274500Y-245517000D01*
X242274500Y-244017000D01*
X243774500Y-244017000D01*
X243774500Y-245517000D01*
G37*
G36*
X241439500Y-245517000D02*
G01*
X239939500Y-245517000D01*
X239939500Y-244017000D01*
X241439500Y-244017000D01*
X241439500Y-245517000D01*
G37*
G36*
X239104500Y-245517000D02*
G01*
X237604500Y-245517000D01*
X237604500Y-244017000D01*
X239104500Y-244017000D01*
X239104500Y-245517000D01*
G37*
G36*
X236769500Y-245517000D02*
G01*
X235269500Y-245517000D01*
X235269500Y-244017000D01*
X236769500Y-244017000D01*
X236769500Y-245517000D01*
G37*
G36*
X234514500Y-245535000D02*
G01*
X233022500Y-245694000D01*
X232862500Y-244203000D01*
X234354500Y-244043000D01*
X234514500Y-245535000D01*
G37*
G36*
X232294500Y-245821000D02*
G01*
X230836500Y-246173000D01*
X230484500Y-244715000D01*
X231942500Y-244363000D01*
X232294500Y-245821000D01*
G37*
G36*
X230129500Y-246393000D02*
G01*
X228728500Y-246929000D01*
X228192500Y-245528000D01*
X229593500Y-244992000D01*
X230129500Y-246393000D01*
G37*
G36*
X228055500Y-247238000D02*
G01*
X226733500Y-247947000D01*
X226023500Y-246626000D01*
X227345500Y-245916000D01*
X228055500Y-247238000D01*
G37*
G36*
X226104500Y-248339000D02*
G01*
X224883500Y-249210000D01*
X224011500Y-247989000D01*
X225232500Y-247118000D01*
X226104500Y-248339000D01*
G37*
G36*
X224308500Y-249677000D02*
G01*
X223208500Y-250698000D01*
X222188500Y-249598000D01*
X223288500Y-248578000D01*
X224308500Y-249677000D01*
G37*
G36*
X222701500Y-251233000D02*
G01*
X221745500Y-252389000D01*
X220589500Y-251433000D01*
X221545500Y-250277000D01*
X222701500Y-251233000D01*
G37*
G36*
X221318500Y-252983000D02*
G01*
X220532500Y-254261000D01*
X219254500Y-253475000D01*
X220040500Y-252198000D01*
X221318500Y-252983000D01*
G37*
G36*
X220198500Y-254904000D02*
G01*
X219613500Y-256285000D01*
X218232500Y-255700000D01*
X218817500Y-254318000D01*
X220198500Y-254904000D01*
G37*
G36*
X219386500Y-256962000D02*
G01*
X219035500Y-258420000D01*
X217577500Y-258070000D01*
X217928500Y-256611000D01*
X219386500Y-256962000D01*
G37*
G36*
X218930500Y-259115000D02*
G01*
X218847500Y-260613000D01*
X217349500Y-260530000D01*
X217433500Y-259032000D01*
X218930500Y-259115000D01*
G37*
G36*
X218744500Y-280222000D02*
G01*
X217244500Y-280222000D01*
X217244500Y-278722000D01*
X218744500Y-278722000D01*
X218744500Y-280222000D01*
G37*
G36*
X218744500Y-282651000D02*
G01*
X217244500Y-282651000D01*
X217244500Y-281151000D01*
X218744500Y-281151000D01*
X218744500Y-282651000D01*
G37*
G36*
X218744500Y-285080000D02*
G01*
X217244500Y-285080000D01*
X217244500Y-283580000D01*
X218744500Y-283580000D01*
X218744500Y-285080000D01*
G37*
G36*
X218758500Y-286033000D02*
G01*
X218709500Y-287533000D01*
X217210500Y-287484000D01*
X217259500Y-285984000D01*
X218758500Y-286033000D01*
G37*
G36*
X218484500Y-288795000D02*
G01*
X217787500Y-290123000D01*
X216459500Y-289426000D01*
X217156500Y-288098000D01*
X218484500Y-288795000D01*
G37*
G36*
X216851500Y-291108000D02*
G01*
X215567500Y-291883000D01*
X214792500Y-290599000D01*
X216076500Y-289824000D01*
X216851500Y-291108000D01*
G37*
G36*
X214288500Y-292195000D02*
G01*
X212790500Y-292270000D01*
X212716500Y-290771000D01*
X214214500Y-290697000D01*
X214288500Y-292195000D01*
G37*
G36*
X211823500Y-292246000D02*
G01*
X210323500Y-292246000D01*
X210323500Y-290746000D01*
X211823500Y-290746000D01*
X211823500Y-292246000D01*
G37*
G36*
X206073500Y-292248000D02*
G01*
X204573500Y-292248000D01*
X204573500Y-290748000D01*
X206073500Y-290748000D01*
X206073500Y-292248000D01*
G37*
G36*
X203789500Y-292248000D02*
G01*
X202289500Y-292248000D01*
X202289500Y-290748000D01*
X203789500Y-290748000D01*
X203789500Y-292248000D01*
G37*
G36*
X201505500Y-292248000D02*
G01*
X200005500Y-292248000D01*
X200005500Y-290748000D01*
X201505500Y-290748000D01*
X201505500Y-292248000D01*
G37*
G36*
X199221500Y-292248000D02*
G01*
X197721500Y-292248000D01*
X197721500Y-290748000D01*
X199221500Y-290748000D01*
X199221500Y-292248000D01*
G37*
G36*
X196937500Y-292248000D02*
G01*
X195437500Y-292248000D01*
X195437500Y-290748000D01*
X196937500Y-290748000D01*
X196937500Y-292248000D01*
G37*
G36*
X190952500Y-292249000D02*
G01*
X189452500Y-292249000D01*
X189452500Y-290749000D01*
X190952500Y-290749000D01*
X190952500Y-292249000D01*
G37*
G36*
X188717500Y-292249000D02*
G01*
X187217500Y-292249000D01*
X187217500Y-290749000D01*
X188717500Y-290749000D01*
X188717500Y-292249000D01*
G37*
G36*
X186482500Y-292249000D02*
G01*
X184982500Y-292249000D01*
X184982500Y-290749000D01*
X186482500Y-290749000D01*
X186482500Y-292249000D01*
G37*
G36*
X184247500Y-292250000D02*
G01*
X182747500Y-292250000D01*
X182747500Y-290750000D01*
X184247500Y-290750000D01*
X184247500Y-292250000D01*
G37*
G36*
X182012500Y-292250000D02*
G01*
X180512500Y-292250000D01*
X180512500Y-290750000D01*
X182012500Y-290750000D01*
X182012500Y-292250000D01*
G37*
G36*
X175634000Y-292251000D02*
G01*
X174134000Y-292251000D01*
X174134000Y-290751000D01*
X175634000Y-290751000D01*
X175634000Y-292251000D01*
G37*
G36*
X173488900Y-292251000D02*
G01*
X171988900Y-292251000D01*
X171988900Y-290751000D01*
X173488900Y-290751000D01*
X173488900Y-292251000D01*
G37*
G36*
X171343900Y-292251000D02*
G01*
X169843900Y-292251000D01*
X169843900Y-290751000D01*
X171343900Y-290751000D01*
X171343900Y-292251000D01*
G37*
G36*
X169198900Y-292251000D02*
G01*
X167698900Y-292251000D01*
X167698900Y-290751000D01*
X169198900Y-290751000D01*
X169198900Y-292251000D01*
G37*
G36*
X167053900Y-292252000D02*
G01*
X165553900Y-292252000D01*
X165553900Y-290752000D01*
X167053900Y-290752000D01*
X167053900Y-292252000D01*
G37*
G36*
X161224100Y-292252000D02*
G01*
X159724100Y-292252000D01*
X159724100Y-290752000D01*
X161224100Y-290752000D01*
X161224100Y-292252000D01*
G37*
G36*
X158956100Y-292253000D02*
G01*
X157456100Y-292253000D01*
X157456100Y-290753000D01*
X158956100Y-290753000D01*
X158956100Y-292253000D01*
G37*
G36*
X156688100Y-292253000D02*
G01*
X155188000Y-292253000D01*
X155188000Y-290753000D01*
X156688100Y-290753000D01*
X156688100Y-292253000D01*
G37*
G36*
X154420000Y-292253000D02*
G01*
X152920000Y-292253000D01*
X152920000Y-290753000D01*
X154420000Y-290753000D01*
X154420000Y-292253000D01*
G37*
G36*
X152152000Y-292254000D02*
G01*
X150652000Y-292254000D01*
X150652000Y-290754000D01*
X152152000Y-290754000D01*
X152152000Y-292254000D01*
G37*
G36*
X145498900Y-292256000D02*
G01*
X143998900Y-292256000D01*
X143998900Y-290756000D01*
X145498900Y-290756000D01*
X145498900Y-292256000D01*
G37*
G36*
X143452900Y-292256000D02*
G01*
X141952900Y-292256000D01*
X141952900Y-290756000D01*
X143452900Y-290756000D01*
X143452900Y-292256000D01*
G37*
G36*
X141406900Y-292257000D02*
G01*
X139906900Y-292257000D01*
X139906900Y-290757000D01*
X141406900Y-290757000D01*
X141406900Y-292257000D01*
G37*
G36*
X139360900Y-292257000D02*
G01*
X137860900Y-292257000D01*
X137860900Y-290757000D01*
X139360900Y-290757000D01*
X139360900Y-292257000D01*
G37*
G36*
X137314900Y-292257000D02*
G01*
X135814900Y-292257000D01*
X135814900Y-290757000D01*
X137314900Y-290757000D01*
X137314900Y-292257000D01*
G37*
G36*
X131405800Y-292256000D02*
G01*
X129905800Y-292256000D01*
X129905800Y-290756000D01*
X131405800Y-290756000D01*
X131405800Y-292256000D01*
G37*
G36*
X129138800Y-292256000D02*
G01*
X127638800Y-292256000D01*
X127638800Y-290756000D01*
X129138800Y-290756000D01*
X129138800Y-292256000D01*
G37*
G36*
X126871800Y-292257000D02*
G01*
X125371800Y-292257000D01*
X125371800Y-290757000D01*
X126871800Y-290757000D01*
X126871800Y-292257000D01*
G37*
G36*
X124604700Y-292257000D02*
G01*
X123104700Y-292257000D01*
X123104700Y-290757000D01*
X124604700Y-290757000D01*
X124604700Y-292257000D01*
G37*
G36*
X122337700Y-292257000D02*
G01*
X120837700Y-292257000D01*
X120837700Y-290757000D01*
X122337700Y-290757000D01*
X122337700Y-292257000D01*
G37*
G36*
X116330500Y-292258000D02*
G01*
X114830500Y-292258000D01*
X114830500Y-290758000D01*
X116330500Y-290758000D01*
X116330500Y-292258000D01*
G37*
G36*
X114098500Y-292258000D02*
G01*
X112598500Y-292258000D01*
X112598500Y-290758000D01*
X114098500Y-290758000D01*
X114098500Y-292258000D01*
G37*
G36*
X111866500Y-292258000D02*
G01*
X110366500Y-292258000D01*
X110366500Y-290758000D01*
X111866500Y-290758000D01*
X111866500Y-292258000D01*
G37*
G36*
X109634500Y-292259000D02*
G01*
X108134500Y-292259000D01*
X108134500Y-290759000D01*
X109634500Y-290759000D01*
X109634500Y-292259000D01*
G37*
G36*
X107402500Y-292259000D02*
G01*
X105902500Y-292259000D01*
X105902500Y-290759000D01*
X107402500Y-290759000D01*
X107402500Y-292259000D01*
G37*
G36*
X208841500Y-292246000D02*
G01*
X207341500Y-292246000D01*
X207341500Y-290746000D01*
X208841500Y-290746000D01*
X208841500Y-292246000D01*
G37*
G36*
X164108700Y-292252000D02*
G01*
X162608600Y-292252000D01*
X162608600Y-290752000D01*
X164108700Y-290752000D01*
X164108700Y-292252000D01*
G37*
G36*
X149174700Y-292254000D02*
G01*
X147674700Y-292254000D01*
X147674700Y-290754000D01*
X149174700Y-290754000D01*
X149174700Y-292254000D01*
G37*
G36*
X134257700Y-292256000D02*
G01*
X132757700Y-292256000D01*
X132757700Y-290756000D01*
X134257700Y-290756000D01*
X134257700Y-292256000D01*
G37*
G36*
X119340800Y-292257000D02*
G01*
X117840800Y-292257000D01*
X117840800Y-290757000D01*
X119340800Y-290757000D01*
X119340800Y-292257000D01*
G37*
G36*
X287263500Y-256338000D02*
G01*
X285763500Y-256338000D01*
X285763500Y-254838000D01*
X287263500Y-254838000D01*
X287263500Y-256338000D01*
G37*
G36*
X285022500Y-256338000D02*
G01*
X283522500Y-256338000D01*
X283522500Y-254838000D01*
X285022500Y-254838000D01*
X285022500Y-256338000D01*
G37*
G36*
X282781500Y-256338000D02*
G01*
X281281500Y-256338000D01*
X281281500Y-254838000D01*
X282781500Y-254838000D01*
X282781500Y-256338000D01*
G37*
G36*
X280540500Y-256338000D02*
G01*
X279040500Y-256338000D01*
X279040500Y-254838000D01*
X280540500Y-254838000D01*
X280540500Y-256338000D01*
G37*
G36*
X278299500Y-256338000D02*
G01*
X276799500Y-256338000D01*
X276799500Y-254838000D01*
X278299500Y-254838000D01*
X278299500Y-256338000D01*
G37*
G36*
X276058500Y-256338000D02*
G01*
X274557500Y-256338000D01*
X274557500Y-254838000D01*
X276058500Y-254838000D01*
X276058500Y-256338000D01*
G37*
G36*
X273817500Y-256338000D02*
G01*
X272316500Y-256338000D01*
X272316500Y-254838000D01*
X273817500Y-254838000D01*
X273817500Y-256338000D01*
G37*
G36*
X271575500Y-256338000D02*
G01*
X270075500Y-256338000D01*
X270075500Y-254838000D01*
X271575500Y-254838000D01*
X271575500Y-256338000D01*
G37*
G36*
X269334500Y-256338000D02*
G01*
X267834500Y-256338000D01*
X267834500Y-254838000D01*
X269334500Y-254838000D01*
X269334500Y-256338000D01*
G37*
G36*
X267093500Y-256338000D02*
G01*
X265593500Y-256338000D01*
X265593500Y-254838000D01*
X267093500Y-254838000D01*
X267093500Y-256338000D01*
G37*
G36*
X264851500Y-256338000D02*
G01*
X263351500Y-256338000D01*
X263351500Y-254838000D01*
X264851500Y-254838000D01*
X264851500Y-256338000D01*
G37*
G36*
X262527500Y-256338000D02*
G01*
X261027500Y-256338000D01*
X261027500Y-254838000D01*
X262527500Y-254838000D01*
X262527500Y-256338000D01*
G37*
G36*
X260203500Y-256338000D02*
G01*
X258703500Y-256338000D01*
X258703500Y-254838000D01*
X260203500Y-254838000D01*
X260203500Y-256338000D01*
G37*
G36*
X257879500Y-256338000D02*
G01*
X256379500Y-256338000D01*
X256379500Y-254838000D01*
X257879500Y-254838000D01*
X257879500Y-256338000D01*
G37*
G36*
X255555500Y-256338000D02*
G01*
X254055500Y-256338000D01*
X254055500Y-254838000D01*
X255555500Y-254838000D01*
X255555500Y-256338000D01*
G37*
G36*
X250907500Y-256338000D02*
G01*
X249406500Y-256338000D01*
X249406500Y-254838000D01*
X250907500Y-254838000D01*
X250907500Y-256338000D01*
G37*
G36*
X248583500Y-256338000D02*
G01*
X247082500Y-256338000D01*
X247082500Y-254838000D01*
X248583500Y-254838000D01*
X248583500Y-256338000D01*
G37*
G36*
X246258500Y-256338000D02*
G01*
X244758500Y-256338000D01*
X244758500Y-254838000D01*
X246258500Y-254838000D01*
X246258500Y-256338000D01*
G37*
G36*
X243934500Y-256338000D02*
G01*
X242434500Y-256338000D01*
X242434500Y-254838000D01*
X243934500Y-254838000D01*
X243934500Y-256338000D01*
G37*
G36*
X241610500Y-256338000D02*
G01*
X240110500Y-256338000D01*
X240110500Y-254838000D01*
X241610500Y-254838000D01*
X241610500Y-256338000D01*
G37*
G36*
X239286500Y-256338000D02*
G01*
X237786500Y-256338000D01*
X237786500Y-254838000D01*
X239286500Y-254838000D01*
X239286500Y-256338000D01*
G37*
G36*
X236962500Y-256338000D02*
G01*
X235462500Y-256338000D01*
X235462500Y-254838000D01*
X236962500Y-254838000D01*
X236962500Y-256338000D01*
G37*
G36*
X234832500Y-256379000D02*
G01*
X233385500Y-256772000D01*
X232992500Y-255324000D01*
X234439500Y-254931000D01*
X234832500Y-256379000D01*
G37*
G36*
X232840500Y-257016000D02*
G01*
X231588500Y-257841000D01*
X230763500Y-256588000D01*
X232016500Y-255763000D01*
X232840500Y-257016000D01*
G37*
G36*
X231153500Y-258234000D02*
G01*
X230238500Y-259422000D01*
X229050500Y-258507000D01*
X229965500Y-257319000D01*
X231153500Y-258234000D01*
G37*
G36*
X229981500Y-259856000D02*
G01*
X229689500Y-261327000D01*
X228218500Y-261035000D01*
X228510500Y-259564000D01*
X229981500Y-259856000D01*
G37*
G36*
X229563500Y-279899000D02*
G01*
X228063500Y-279901000D01*
X228062500Y-278401000D01*
X229562500Y-278399000D01*
X229563500Y-279899000D01*
G37*
G36*
X229566500Y-282262000D02*
G01*
X228066500Y-282264000D01*
X228064500Y-280764000D01*
X229564500Y-280762000D01*
X229566500Y-282262000D01*
G37*
G36*
X229567500Y-284626000D02*
G01*
X228067500Y-284626000D01*
X228067500Y-283126000D01*
X229567500Y-283126000D01*
X229567500Y-284626000D01*
G37*
G36*
X229570500Y-286989000D02*
G01*
X228070500Y-286989000D01*
X228070500Y-285489000D01*
X229570500Y-285489000D01*
X229570500Y-286989000D01*
G37*
G36*
X229571500Y-289352000D02*
G01*
X228071500Y-289352000D01*
X228071500Y-287852000D01*
X229571500Y-287852000D01*
X229571500Y-289352000D01*
G37*
G36*
X229573500Y-291715000D02*
G01*
X228073500Y-291715000D01*
X228073500Y-290215000D01*
X229573500Y-290215000D01*
X229573500Y-291715000D01*
G37*
G36*
X229758500Y-293955000D02*
G01*
X228274500Y-294176000D01*
X228053500Y-292692000D01*
X229537500Y-292472000D01*
X229758500Y-293955000D01*
G37*
G36*
X230613500Y-295910000D02*
G01*
X229268500Y-296575000D01*
X228603500Y-295230000D01*
X229948500Y-294565000D01*
X230613500Y-295910000D01*
G37*
G36*
X232025500Y-297527000D02*
G01*
X230931500Y-298553000D01*
X229905500Y-297459000D01*
X230998500Y-296433000D01*
X232025500Y-297527000D01*
G37*
G36*
X233642500Y-299250000D02*
G01*
X232548500Y-300276000D01*
X231522500Y-299182000D01*
X232615500Y-298156000D01*
X233642500Y-299250000D01*
G37*
G36*
X235259500Y-300973000D02*
G01*
X234165500Y-301999000D01*
X233139500Y-300905000D01*
X234233500Y-299879000D01*
X235259500Y-300973000D01*
G37*
G36*
X236876500Y-302696000D02*
G01*
X235782500Y-303722000D01*
X234756500Y-302629000D01*
X235850500Y-301602000D01*
X236876500Y-302696000D01*
G37*
G36*
X238493500Y-304419000D02*
G01*
X237399500Y-305445000D01*
X236373500Y-304352000D01*
X237467500Y-303325000D01*
X238493500Y-304419000D01*
G37*
G36*
X240110500Y-306142000D02*
G01*
X239016500Y-307169000D01*
X237990500Y-306075000D01*
X239084500Y-305048000D01*
X240110500Y-306142000D01*
G37*
G36*
X241727500Y-307865000D02*
G01*
X240633500Y-308892000D01*
X239607500Y-307798000D01*
X240701500Y-306771000D01*
X241727500Y-307865000D01*
G37*
G36*
X243344500Y-309588000D02*
G01*
X242250500Y-310615000D01*
X241224500Y-309521000D01*
X242318500Y-308495000D01*
X243344500Y-309588000D01*
G37*
G36*
X244961500Y-311311000D02*
G01*
X243867500Y-312338000D01*
X242841500Y-311244000D01*
X243935500Y-310218000D01*
X244961500Y-311311000D01*
G37*
G36*
X246578500Y-313035000D02*
G01*
X245484500Y-314061000D01*
X244458500Y-312967000D01*
X245552500Y-311941000D01*
X246578500Y-313035000D01*
G37*
G36*
X248195500Y-314758000D02*
G01*
X247101500Y-315784000D01*
X246075500Y-314690000D01*
X247169500Y-313664000D01*
X248195500Y-314758000D01*
G37*
G36*
X249812500Y-316481000D02*
G01*
X248718500Y-317507000D01*
X247692500Y-316413000D01*
X248786500Y-315387000D01*
X249812500Y-316481000D01*
G37*
G36*
X251429500Y-318204000D02*
G01*
X250335500Y-319230000D01*
X249309500Y-318136000D01*
X250403500Y-317110000D01*
X251429500Y-318204000D01*
G37*
G36*
X253046500Y-319927000D02*
G01*
X251952500Y-320953000D01*
X250926500Y-319860000D01*
X252020500Y-318833000D01*
X253046500Y-319927000D01*
G37*
G36*
X254663500Y-321650000D02*
G01*
X253569500Y-322677000D01*
X252543500Y-321583000D01*
X253637500Y-320556000D01*
X254663500Y-321650000D01*
G37*
G36*
X256280500Y-323373000D02*
G01*
X255186500Y-324400000D01*
X254160500Y-323306000D01*
X255254500Y-322279000D01*
X256280500Y-323373000D01*
G37*
G36*
X257897500Y-325096000D02*
G01*
X256803500Y-326123000D01*
X255777500Y-325029000D01*
X256871500Y-324002000D01*
X257897500Y-325096000D01*
G37*
G36*
X259514500Y-326819000D02*
G01*
X258420500Y-327846000D01*
X257394500Y-326752000D01*
X258488500Y-325726000D01*
X259514500Y-326819000D01*
G37*
G36*
X263700500Y-331280000D02*
G01*
X262606500Y-332306000D01*
X261579500Y-331212000D01*
X262673500Y-330186000D01*
X263700500Y-331280000D01*
G37*
G36*
X265306500Y-332992000D02*
G01*
X264213500Y-334018000D01*
X263186500Y-332924000D01*
X264280500Y-331898000D01*
X265306500Y-332992000D01*
G37*
G36*
X266913500Y-334704000D02*
G01*
X265819500Y-335730000D01*
X264793500Y-334637000D01*
X265887500Y-333610000D01*
X266913500Y-334704000D01*
G37*
G36*
X268520500Y-336416000D02*
G01*
X267426500Y-337443000D01*
X266400500Y-336349000D01*
X267493500Y-335322000D01*
X268520500Y-336416000D01*
G37*
G36*
X270127500Y-338128000D02*
G01*
X269033500Y-339155000D01*
X268006500Y-338061000D01*
X269100500Y-337034000D01*
X270127500Y-338128000D01*
G37*
G36*
X287175500Y-194577000D02*
G01*
X286114500Y-195637000D01*
X285053500Y-194576000D01*
X286114500Y-193516000D01*
X287175500Y-194577000D01*
G37*
G36*
X275696500Y-183420000D02*
G01*
X275034500Y-184766000D01*
X273688500Y-184104000D01*
X274350500Y-182758000D01*
X275696500Y-183420000D01*
G37*
G36*
X146774000Y-76504800D02*
G01*
X145713400Y-77565400D01*
X144652700Y-76504800D01*
X145713400Y-75444100D01*
X146774000Y-76504800D01*
G37*
G36*
X240589500Y-478913000D02*
G01*
X239089500Y-478913000D01*
X239089500Y-477413000D01*
X240589500Y-477413000D01*
X240589500Y-478913000D01*
G37*
G36*
X294344500Y-372659000D02*
G01*
X294338500Y-374159000D01*
X292838500Y-374152000D01*
X292844500Y-372652000D01*
X294344500Y-372659000D01*
G37*
G36*
X288900500Y-478938000D02*
G01*
X287400500Y-478938000D01*
X287400500Y-477438000D01*
X288900500Y-477438000D01*
X288900500Y-478938000D01*
G37*
G36*
X291167500Y-478939000D02*
G01*
X289667500Y-478939000D01*
X289667500Y-477439000D01*
X291167500Y-477439000D01*
X291167500Y-478939000D01*
G37*
G36*
X293434500Y-478940000D02*
G01*
X291934500Y-478940000D01*
X291934500Y-477440000D01*
X293434500Y-477440000D01*
X293434500Y-478940000D01*
G37*
G36*
X295701500Y-478942000D02*
G01*
X294201500Y-478942000D01*
X294201500Y-477442000D01*
X295701500Y-477442000D01*
X295701500Y-478942000D01*
G37*
G36*
X297968500Y-478943000D02*
G01*
X296468500Y-478943000D01*
X296468500Y-477443000D01*
X297968500Y-477443000D01*
X297968500Y-478943000D01*
G37*
G36*
X300235500Y-478944000D02*
G01*
X298735500Y-478944000D01*
X298735500Y-477444000D01*
X300235500Y-477444000D01*
X300235500Y-478944000D01*
G37*
G36*
X302502500Y-478945000D02*
G01*
X301002500Y-478945000D01*
X301002500Y-477445000D01*
X302502500Y-477445000D01*
X302502500Y-478945000D01*
G37*
G36*
X304769500Y-478945000D02*
G01*
X303269500Y-478945000D01*
X303269500Y-477445000D01*
X304769500Y-477445000D01*
X304769500Y-478945000D01*
G37*
G36*
X307178500Y-478540000D02*
G01*
X305722500Y-478902000D01*
X305361500Y-477446000D01*
X306817500Y-477084000D01*
X307178500Y-478540000D01*
G37*
G36*
X309377500Y-477315000D02*
G01*
X308118500Y-478132000D01*
X307302500Y-476873000D01*
X308560500Y-476057000D01*
X309377500Y-477315000D01*
G37*
G36*
X311059500Y-475446000D02*
G01*
X310132500Y-476626000D01*
X308953500Y-475698000D01*
X309880500Y-474519000D01*
X311059500Y-475446000D01*
G37*
G36*
X312221500Y-457841000D02*
G01*
X310721500Y-457841000D01*
X310721500Y-456341000D01*
X312221500Y-456341000D01*
X312221500Y-457841000D01*
G37*
G36*
X312221500Y-455795000D02*
G01*
X310721500Y-455795000D01*
X310721500Y-454295000D01*
X312221500Y-454295000D01*
X312221500Y-455795000D01*
G37*
G36*
X312221500Y-453749000D02*
G01*
X310721500Y-453749000D01*
X310721500Y-452249000D01*
X312221500Y-452249000D01*
X312221500Y-453749000D01*
G37*
G36*
X312221500Y-451703000D02*
G01*
X310721500Y-451703000D01*
X310721500Y-450203000D01*
X312221500Y-450203000D01*
X312221500Y-451703000D01*
G37*
G36*
X312221500Y-449764000D02*
G01*
X310721500Y-449764000D01*
X310721500Y-448264000D01*
X312221500Y-448264000D01*
X312221500Y-449764000D01*
G37*
G36*
X312221500Y-447496000D02*
G01*
X310721500Y-447496000D01*
X310721500Y-445996000D01*
X312221500Y-445996000D01*
X312221500Y-447496000D01*
G37*
G36*
X312221500Y-445228000D02*
G01*
X310721500Y-445228000D01*
X310721500Y-443728000D01*
X312221500Y-443728000D01*
X312221500Y-445228000D01*
G37*
G36*
X312221500Y-442960000D02*
G01*
X310721500Y-442960000D01*
X310721500Y-441460000D01*
X312221500Y-441460000D01*
X312221500Y-442960000D01*
G37*
G36*
X312221500Y-440692000D02*
G01*
X310721500Y-440692000D01*
X310721500Y-439192000D01*
X312221500Y-439192000D01*
X312221500Y-440692000D01*
G37*
G36*
X312221500Y-438424000D02*
G01*
X310721500Y-438424000D01*
X310721500Y-436924000D01*
X312221500Y-436924000D01*
X312221500Y-438424000D01*
G37*
G36*
X312221500Y-436156000D02*
G01*
X310721500Y-436156000D01*
X310721500Y-434656000D01*
X312221500Y-434656000D01*
X312221500Y-436156000D01*
G37*
G36*
X312221500Y-433888000D02*
G01*
X310721500Y-433888000D01*
X310721500Y-432388000D01*
X312221500Y-432388000D01*
X312221500Y-433888000D01*
G37*
G36*
X312221500Y-431620000D02*
G01*
X310721500Y-431620000D01*
X310721500Y-430120000D01*
X312221500Y-430120000D01*
X312221500Y-431620000D01*
G37*
G36*
X312232500Y-429250000D02*
G01*
X310745500Y-429448000D01*
X310546500Y-427962000D01*
X312033500Y-427763000D01*
X312232500Y-429250000D01*
G37*
G36*
X311841500Y-427001000D02*
G01*
X310438500Y-427533000D01*
X309906500Y-426130000D01*
X311309500Y-425598000D01*
X311841500Y-427001000D01*
G37*
G36*
X310929500Y-424867000D02*
G01*
X309687500Y-425707000D01*
X308846500Y-424465000D01*
X310088500Y-423624000D01*
X310929500Y-424867000D01*
G37*
G36*
X309552500Y-423001000D02*
G01*
X308535500Y-424103000D01*
X307432500Y-423086000D01*
X308449500Y-421984000D01*
X309552500Y-423001000D01*
G37*
G36*
X307784500Y-421498000D02*
G01*
X307047500Y-422805000D01*
X305740500Y-422067000D01*
X306478500Y-420761000D01*
X307784500Y-421498000D01*
G37*
G36*
X305717500Y-420442000D02*
G01*
X305302500Y-421883000D01*
X303860500Y-421468000D01*
X304276500Y-420026000D01*
X305717500Y-420442000D01*
G37*
G36*
X303463500Y-419892000D02*
G01*
X303390500Y-421390000D01*
X301892500Y-421318000D01*
X301965500Y-419820000D01*
X303463500Y-419892000D01*
G37*
G36*
X301337500Y-419817000D02*
G01*
X301230500Y-421314000D01*
X299734500Y-421207000D01*
X299841500Y-419711000D01*
X301337500Y-419817000D01*
G37*
G36*
X299286500Y-419639000D02*
G01*
X299006500Y-421113000D01*
X297533500Y-420833000D01*
X297812500Y-419359000D01*
X299286500Y-419639000D01*
G37*
G36*
X297271500Y-419223000D02*
G01*
X296820500Y-420654000D01*
X295390500Y-420203000D01*
X295841500Y-418772000D01*
X297271500Y-419223000D01*
G37*
G36*
X295320500Y-418573000D02*
G01*
X294703500Y-419941000D01*
X293336500Y-419324000D01*
X293953500Y-417956000D01*
X295320500Y-418573000D01*
G37*
G36*
X293465500Y-417701000D02*
G01*
X292692500Y-418986000D01*
X291407500Y-418213000D01*
X292180500Y-416928000D01*
X293465500Y-417701000D01*
G37*
G36*
X291649500Y-416562000D02*
G01*
X290725500Y-417743000D01*
X289543500Y-416819000D01*
X290468500Y-415638000D01*
X291649500Y-416562000D01*
G37*
G36*
X289984500Y-415210000D02*
G01*
X288924500Y-416271000D01*
X287863500Y-415210000D01*
X288923500Y-414149000D01*
X289984500Y-415210000D01*
G37*
G36*
X288494500Y-413666000D02*
G01*
X287314500Y-414592000D01*
X286388500Y-413412000D01*
X287568500Y-412486000D01*
X288494500Y-413666000D01*
G37*
G36*
X287200500Y-411954000D02*
G01*
X285918500Y-412733000D01*
X285139500Y-411452000D01*
X286421500Y-410672000D01*
X287200500Y-411954000D01*
G37*
G36*
X322996500Y-485549000D02*
G01*
X321496500Y-485552000D01*
X321493500Y-484052000D01*
X322993500Y-484049000D01*
X322996500Y-485549000D01*
G37*
G36*
X245495500Y-175226000D02*
G01*
X244434500Y-176287000D01*
X243374500Y-175226000D01*
X244434500Y-174165000D01*
X245495500Y-175226000D01*
G37*
G36*
X181375500Y-111106600D02*
G01*
X180315500Y-112167300D01*
X179254500Y-111106600D01*
X180315500Y-110045900D01*
X181375500Y-111106600D01*
G37*
G36*
X164094000Y-93824700D02*
G01*
X163033300Y-94885300D01*
X161972600Y-93824700D01*
X163033300Y-92764000D01*
X164094000Y-93824700D01*
G37*
G36*
X129435500Y-59166200D02*
G01*
X128374800Y-60226900D01*
X127314100Y-59166200D01*
X128374800Y-58105500D01*
X129435500Y-59166200D01*
G37*
G36*
X285085500Y-192486000D02*
G01*
X284024500Y-193546000D01*
X282963500Y-192485000D01*
X284024500Y-191425000D01*
X285085500Y-192486000D01*
G37*
G36*
X283691500Y-191091000D02*
G01*
X282630500Y-192151000D01*
X281569500Y-191090000D01*
X282630500Y-190030000D01*
X283691500Y-191091000D01*
G37*
G36*
X282297500Y-189696000D02*
G01*
X281236500Y-190756000D01*
X280176500Y-189695000D01*
X281237500Y-188635000D01*
X282297500Y-189696000D01*
G37*
G36*
X280904500Y-188301000D02*
G01*
X279842500Y-189361000D01*
X278783500Y-188299000D01*
X279845500Y-187239000D01*
X280904500Y-188301000D01*
G37*
G36*
X279512500Y-186905000D02*
G01*
X278449500Y-187964000D01*
X277390500Y-186901000D01*
X278453500Y-185843000D01*
X279512500Y-186905000D01*
G37*
G36*
X278114500Y-185501000D02*
G01*
X277064500Y-186573000D01*
X275993500Y-185523000D01*
X277043500Y-184452000D01*
X278114500Y-185501000D01*
G37*
G36*
X272622500Y-182277000D02*
G01*
X272492500Y-183771000D01*
X270998500Y-183642000D01*
X271128500Y-182147000D01*
X272622500Y-182277000D01*
G37*
G36*
X270589500Y-183679000D02*
G01*
X269089500Y-183679000D01*
X269089500Y-182179000D01*
X270589500Y-182179000D01*
X270589500Y-183679000D01*
G37*
G36*
X268617500Y-183679000D02*
G01*
X267117500Y-183679000D01*
X267117500Y-182179000D01*
X268617500Y-182179000D01*
X268617500Y-183679000D01*
G37*
G36*
X266645500Y-183679000D02*
G01*
X265145500Y-183679000D01*
X265145500Y-182179000D01*
X266645500Y-182179000D01*
X266645500Y-183679000D01*
G37*
G36*
X264673500Y-183679000D02*
G01*
X263173500Y-183679000D01*
X263173500Y-182179000D01*
X264673500Y-182179000D01*
X264673500Y-183679000D01*
G37*
G36*
X262701500Y-183679000D02*
G01*
X261201500Y-183679000D01*
X261201500Y-182179000D01*
X262701500Y-182179000D01*
X262701500Y-183679000D01*
G37*
G36*
X260729500Y-183679000D02*
G01*
X259229500Y-183679000D01*
X259229500Y-182179000D01*
X260729500Y-182179000D01*
X260729500Y-183679000D01*
G37*
G36*
X254894500Y-182196000D02*
G01*
X254626500Y-183672000D01*
X253150500Y-183405000D01*
X253418500Y-181929000D01*
X254894500Y-182196000D01*
G37*
G36*
X252796500Y-181718000D02*
G01*
X252109500Y-183051000D01*
X250776500Y-182364000D01*
X251463500Y-181031000D01*
X252796500Y-181718000D01*
G37*
G36*
X250931500Y-180647000D02*
G01*
X249884500Y-181721000D01*
X248809500Y-180674000D01*
X249856500Y-179600000D01*
X250931500Y-180647000D01*
G37*
G36*
X249254500Y-178985000D02*
G01*
X248194500Y-180046000D01*
X247133500Y-178985000D01*
X248194500Y-177925000D01*
X249254500Y-178985000D01*
G37*
G36*
X247579500Y-177309000D02*
G01*
X246518500Y-178370000D01*
X245457500Y-177309000D01*
X246518500Y-176249000D01*
X247579500Y-177309000D01*
G37*
G36*
X243387500Y-173118000D02*
G01*
X242327500Y-174179000D01*
X241266500Y-173118000D01*
X242327500Y-172058000D01*
X243387500Y-173118000D01*
G37*
G36*
X241857500Y-171588000D02*
G01*
X240796500Y-172648000D01*
X239735500Y-171588000D01*
X240796500Y-170527000D01*
X241857500Y-171588000D01*
G37*
G36*
X240326500Y-170057000D02*
G01*
X239265500Y-171117000D01*
X238204500Y-170057000D01*
X239265500Y-168996000D01*
X240326500Y-170057000D01*
G37*
G36*
X238795500Y-168526000D02*
G01*
X237734500Y-169586000D01*
X236673500Y-168526000D01*
X237734500Y-167465000D01*
X238795500Y-168526000D01*
G37*
G36*
X237264500Y-166995000D02*
G01*
X236203500Y-168056000D01*
X235143500Y-166995000D01*
X236203500Y-165934000D01*
X237264500Y-166995000D01*
G37*
G36*
X235733500Y-165464000D02*
G01*
X234672500Y-166525000D01*
X233612500Y-165464000D01*
X234672500Y-164403000D01*
X235733500Y-165464000D01*
G37*
G36*
X234202500Y-163933000D02*
G01*
X233141500Y-164994000D01*
X232081500Y-163933000D01*
X233141500Y-162872000D01*
X234202500Y-163933000D01*
G37*
G36*
X229981500Y-159712000D02*
G01*
X228920500Y-160773000D01*
X227860500Y-159712000D01*
X228920500Y-158651000D01*
X229981500Y-159712000D01*
G37*
G36*
X228561500Y-158292000D02*
G01*
X227500500Y-159353000D01*
X226440500Y-158292000D01*
X227500500Y-157231000D01*
X228561500Y-158292000D01*
G37*
G36*
X227141500Y-156872000D02*
G01*
X226081500Y-157933000D01*
X225020500Y-156872000D01*
X226081500Y-155812000D01*
X227141500Y-156872000D01*
G37*
G36*
X225721500Y-155452000D02*
G01*
X224661500Y-156513000D01*
X223600500Y-155452000D01*
X224661500Y-154392000D01*
X225721500Y-155452000D01*
G37*
G36*
X224301500Y-154032000D02*
G01*
X223241500Y-155093000D01*
X222180500Y-154032000D01*
X223241500Y-152972000D01*
X224301500Y-154032000D01*
G37*
G36*
X222882500Y-152613000D02*
G01*
X221821500Y-153673000D01*
X220760500Y-152613000D01*
X221821500Y-151552000D01*
X222882500Y-152613000D01*
G37*
G36*
X221462500Y-151193000D02*
G01*
X220401500Y-152253000D01*
X219340500Y-151193000D01*
X220401500Y-150132000D01*
X221462500Y-151193000D01*
G37*
G36*
X220042500Y-149773000D02*
G01*
X218981500Y-150834000D01*
X217920500Y-149773000D01*
X218981500Y-148712000D01*
X220042500Y-149773000D01*
G37*
G36*
X215800500Y-145531000D02*
G01*
X214740500Y-146592000D01*
X213679500Y-145531000D01*
X214740500Y-144471000D01*
X215800500Y-145531000D01*
G37*
G36*
X214364500Y-144095000D02*
G01*
X213304500Y-145156000D01*
X212243500Y-144095000D01*
X213304500Y-143035000D01*
X214364500Y-144095000D01*
G37*
G36*
X212928500Y-142659000D02*
G01*
X211867500Y-143720000D01*
X210807500Y-142659000D01*
X211867500Y-141599000D01*
X212928500Y-142659000D01*
G37*
G36*
X211492500Y-141223000D02*
G01*
X210431500Y-142284000D01*
X209371500Y-141223000D01*
X210431500Y-140162000D01*
X211492500Y-141223000D01*
G37*
G36*
X210056500Y-139787000D02*
G01*
X208995500Y-140848000D01*
X207934500Y-139787000D01*
X208995500Y-138726000D01*
X210056500Y-139787000D01*
G37*
G36*
X208620500Y-138351000D02*
G01*
X207559500Y-139411000D01*
X206498500Y-138351000D01*
X207559500Y-137290000D01*
X208620500Y-138351000D01*
G37*
G36*
X207184500Y-136915000D02*
G01*
X206123500Y-137975000D01*
X205062500Y-136915000D01*
X206123500Y-135854000D01*
X207184500Y-136915000D01*
G37*
G36*
X205747500Y-135479000D02*
G01*
X204687500Y-136539000D01*
X203626500Y-135479000D01*
X204687500Y-134418000D01*
X205747500Y-135479000D01*
G37*
G36*
X204311500Y-134042000D02*
G01*
X203251500Y-135103000D01*
X202190500Y-134042000D01*
X203251500Y-132982000D01*
X204311500Y-134042000D01*
G37*
G36*
X202875500Y-132606000D02*
G01*
X201814500Y-133667000D01*
X200754500Y-132606000D01*
X201814500Y-131546000D01*
X202875500Y-132606000D01*
G37*
G36*
X201439500Y-131170000D02*
G01*
X200378500Y-132231000D01*
X199318500Y-131170000D01*
X200378500Y-130109000D01*
X201439500Y-131170000D01*
G37*
G36*
X197261500Y-126992600D02*
G01*
X196201500Y-128053000D01*
X195140500Y-126992600D01*
X196201500Y-125931900D01*
X197261500Y-126992600D01*
G37*
G36*
X195727500Y-125458200D02*
G01*
X194666500Y-126518800D01*
X193606500Y-125458200D01*
X194666500Y-124397500D01*
X195727500Y-125458200D01*
G37*
G36*
X194193500Y-123923700D02*
G01*
X193132500Y-124984400D01*
X192071500Y-123923700D01*
X193132500Y-122863100D01*
X194193500Y-123923700D01*
G37*
G36*
X192658500Y-122389300D02*
G01*
X191597500Y-123450000D01*
X190537500Y-122389300D01*
X191597500Y-121328600D01*
X192658500Y-122389300D01*
G37*
G36*
X191124500Y-120854900D02*
G01*
X190063500Y-121915500D01*
X189002500Y-120854900D01*
X190063500Y-119794200D01*
X191124500Y-120854900D01*
G37*
G36*
X189589500Y-119320400D02*
G01*
X188529500Y-120381100D01*
X187468500Y-119320500D01*
X188529500Y-118259800D01*
X189589500Y-119320400D01*
G37*
G36*
X188055500Y-117786000D02*
G01*
X186994500Y-118846700D01*
X185933500Y-117786000D01*
X186994500Y-116725300D01*
X188055500Y-117786000D01*
G37*
G36*
X186520500Y-116251600D02*
G01*
X185460500Y-117312300D01*
X184399500Y-116251600D01*
X185460500Y-115190900D01*
X186520500Y-116251600D01*
G37*
G36*
X184986500Y-114717200D02*
G01*
X183925500Y-115777800D01*
X182865500Y-114717100D01*
X183925500Y-113656500D01*
X184986500Y-114717200D01*
G37*
G36*
X183452500Y-113182700D02*
G01*
X182391500Y-114243400D01*
X181330500Y-113182700D01*
X182391500Y-112122100D01*
X183452500Y-113182700D01*
G37*
G36*
X179282500Y-109013700D02*
G01*
X178222500Y-110074300D01*
X177161600Y-109013700D01*
X178222500Y-107953000D01*
X179282500Y-109013700D01*
G37*
G36*
X177829500Y-107560600D02*
G01*
X176769200Y-108621200D01*
X175708500Y-107560600D01*
X176769100Y-106499900D01*
X177829500Y-107560600D01*
G37*
G36*
X176376700Y-106107400D02*
G01*
X175316100Y-107168100D01*
X174255400Y-106107400D01*
X175316100Y-105046800D01*
X176376700Y-106107400D01*
G37*
G36*
X174923600Y-104654300D02*
G01*
X173863000Y-105715000D01*
X172802300Y-104654300D01*
X173863000Y-103593700D01*
X174923600Y-104654300D01*
G37*
G36*
X173470500Y-103201200D02*
G01*
X172409800Y-104261900D01*
X171349200Y-103201200D01*
X172409800Y-102140600D01*
X173470500Y-103201200D01*
G37*
G36*
X172017400Y-101748100D02*
G01*
X170956700Y-102808800D01*
X169896100Y-101748100D01*
X170956700Y-100687400D01*
X172017400Y-101748100D01*
G37*
G36*
X170564300Y-100295000D02*
G01*
X169503600Y-101355700D01*
X168442900Y-100295000D01*
X169503600Y-99234300D01*
X170564300Y-100295000D01*
G37*
G36*
X169111200Y-98841900D02*
G01*
X168050500Y-99902600D01*
X166989800Y-98841900D01*
X168050500Y-97781200D01*
X169111200Y-98841900D01*
G37*
G36*
X167658100Y-97388800D02*
G01*
X166597400Y-98449400D01*
X165536700Y-97388800D01*
X166597400Y-96328100D01*
X167658100Y-97388800D01*
G37*
G36*
X166204900Y-95935700D02*
G01*
X165144300Y-96996300D01*
X164083600Y-95935700D01*
X165144300Y-94875000D01*
X166204900Y-95935700D01*
G37*
G36*
X161959400Y-91690200D02*
G01*
X160898800Y-92750800D01*
X159838100Y-91690200D01*
X160898800Y-90629500D01*
X161959400Y-91690200D01*
G37*
G36*
X160506300Y-90237000D02*
G01*
X159445700Y-91297700D01*
X158385000Y-90237000D01*
X159445700Y-89176400D01*
X160506300Y-90237000D01*
G37*
G36*
X159053200Y-88783900D02*
G01*
X157992500Y-89844600D01*
X156931900Y-88783900D01*
X157992500Y-87723300D01*
X159053200Y-88783900D01*
G37*
G36*
X157600100Y-87330800D02*
G01*
X156539400Y-88391500D01*
X155478800Y-87330800D01*
X156539400Y-86270200D01*
X157600100Y-87330800D01*
G37*
G36*
X156147000Y-85877700D02*
G01*
X155086300Y-86938400D01*
X154025700Y-85877700D01*
X155086300Y-84817000D01*
X156147000Y-85877700D01*
G37*
G36*
X154693900Y-84424600D02*
G01*
X153633200Y-85485300D01*
X152572500Y-84424600D01*
X153633200Y-83363900D01*
X154693900Y-84424600D01*
G37*
G36*
X153240800Y-82971500D02*
G01*
X152180100Y-84032200D01*
X151119400Y-82971500D01*
X152180100Y-81910800D01*
X153240800Y-82971500D01*
G37*
G36*
X151787600Y-81518400D02*
G01*
X150726900Y-82579000D01*
X149666300Y-81518300D01*
X150727000Y-80457700D01*
X151787600Y-81518400D01*
G37*
G36*
X150334500Y-80065300D02*
G01*
X149273900Y-81125900D01*
X148213200Y-80065300D01*
X149273900Y-79004600D01*
X150334500Y-80065300D01*
G37*
G36*
X148881400Y-78612200D02*
G01*
X147820800Y-79672800D01*
X146760100Y-78612200D01*
X147820800Y-77551500D01*
X148881400Y-78612200D01*
G37*
G36*
X144700900Y-74431600D02*
G01*
X143640200Y-75492300D01*
X142579600Y-74431600D01*
X143640200Y-73371000D01*
X144700900Y-74431600D01*
G37*
G36*
X143237900Y-72968600D02*
G01*
X142177200Y-74029300D01*
X141116600Y-72968600D01*
X142177200Y-71908000D01*
X143237900Y-72968600D01*
G37*
G36*
X141774900Y-71505600D02*
G01*
X140714200Y-72566300D01*
X139653500Y-71505600D01*
X140714200Y-70444900D01*
X141774900Y-71505600D01*
G37*
G36*
X140311900Y-70042600D02*
G01*
X139251200Y-71103300D01*
X138190500Y-70042600D01*
X139251200Y-68981900D01*
X140311900Y-70042600D01*
G37*
G36*
X138848900Y-68579600D02*
G01*
X137788200Y-69640300D01*
X136727500Y-68579600D01*
X137788200Y-67518900D01*
X138848900Y-68579600D01*
G37*
G36*
X137385800Y-67116600D02*
G01*
X136325200Y-68177200D01*
X135264500Y-67116600D01*
X136325200Y-66055900D01*
X137385800Y-67116600D01*
G37*
G36*
X135922800Y-65653600D02*
G01*
X134862200Y-66714200D01*
X133801500Y-65653600D01*
X134862200Y-64592900D01*
X135922800Y-65653600D01*
G37*
G36*
X134459800Y-64190500D02*
G01*
X133399100Y-65251200D01*
X132338500Y-64190500D01*
X133399100Y-63129900D01*
X134459800Y-64190500D01*
G37*
G36*
X132996800Y-62727500D02*
G01*
X131936100Y-63788200D01*
X130875500Y-62727500D01*
X131936100Y-61666900D01*
X132996800Y-62727500D01*
G37*
G36*
X131533800Y-61264500D02*
G01*
X130473100Y-62325200D01*
X129412400Y-61264500D01*
X130473100Y-60203800D01*
X131533800Y-61264500D01*
G37*
G36*
X232109500Y-161841000D02*
G01*
X231049500Y-162901000D01*
X229988500Y-161841000D01*
X231049500Y-160780000D01*
X232109500Y-161841000D01*
G37*
G36*
X217910500Y-147641000D02*
G01*
X216849500Y-148701000D01*
X215788500Y-147641000D01*
X216849500Y-146580000D01*
X217910500Y-147641000D01*
G37*
G36*
X199339500Y-129070000D02*
G01*
X198278500Y-130131000D01*
X197218500Y-129070000D01*
X198278500Y-128010000D01*
X199339500Y-129070000D01*
G37*
G36*
X322967500Y-502891000D02*
G01*
X321467500Y-502891000D01*
X321467500Y-501391000D01*
X322967500Y-501391000D01*
X322967500Y-502891000D01*
G37*
G36*
X322967500Y-500497000D02*
G01*
X321467500Y-500497000D01*
X321467500Y-498997000D01*
X322967500Y-498997000D01*
X322967500Y-500497000D01*
G37*
G36*
X322967500Y-498103000D02*
G01*
X321467500Y-498103000D01*
X321467500Y-496603000D01*
X322967500Y-496603000D01*
X322967500Y-498103000D01*
G37*
G36*
X322967500Y-495709000D02*
G01*
X321467500Y-495709000D01*
X321467500Y-494209000D01*
X322967500Y-494209000D01*
X322967500Y-495709000D01*
G37*
G36*
X322968500Y-493315000D02*
G01*
X321467500Y-493315000D01*
X321467500Y-491815000D01*
X322968500Y-491815000D01*
X322968500Y-493315000D01*
G37*
G36*
X322968500Y-490921000D02*
G01*
X321468500Y-490921000D01*
X321468500Y-489421000D01*
X322968500Y-489421000D01*
X322968500Y-490921000D01*
G37*
G36*
X322968500Y-488527000D02*
G01*
X321468500Y-488527000D01*
X321468500Y-487027000D01*
X322968500Y-487027000D01*
X322968500Y-488527000D01*
G37*
G36*
X322968500Y-482602000D02*
G01*
X321468500Y-482602000D01*
X321468500Y-481102000D01*
X322968500Y-481102000D01*
X322968500Y-482602000D01*
G37*
G36*
X322968500Y-480107000D02*
G01*
X321468500Y-480107000D01*
X321468500Y-478607000D01*
X322968500Y-478607000D01*
X322968500Y-480107000D01*
G37*
G36*
X322968500Y-477612000D02*
G01*
X321468500Y-477612000D01*
X321468500Y-476112000D01*
X322968500Y-476112000D01*
X322968500Y-477612000D01*
G37*
G36*
X322969500Y-457488000D02*
G01*
X321469500Y-457488000D01*
X321469500Y-455988000D01*
X322969500Y-455988000D01*
X322969500Y-457488000D01*
G37*
G36*
X322969500Y-454885000D02*
G01*
X321469500Y-454885000D01*
X321469500Y-453385000D01*
X322969500Y-453385000D01*
X322969500Y-454885000D01*
G37*
G36*
X322969500Y-452282000D02*
G01*
X321469500Y-452282000D01*
X321469500Y-450782000D01*
X322969500Y-450782000D01*
X322969500Y-452282000D01*
G37*
G36*
X322969500Y-449761000D02*
G01*
X321469500Y-449761000D01*
X321469500Y-448261000D01*
X322969500Y-448261000D01*
X322969500Y-449761000D01*
G37*
G36*
X322969500Y-447433000D02*
G01*
X321469500Y-447433000D01*
X321469500Y-445933000D01*
X322969500Y-445933000D01*
X322969500Y-447433000D01*
G37*
G36*
X322969500Y-445105000D02*
G01*
X321469500Y-445105000D01*
X321469500Y-443605000D01*
X322969500Y-443605000D01*
X322969500Y-445105000D01*
G37*
G36*
X322969500Y-442777000D02*
G01*
X321469500Y-442777000D01*
X321469500Y-441277000D01*
X322969500Y-441277000D01*
X322969500Y-442777000D01*
G37*
G36*
X322969500Y-440449000D02*
G01*
X321469500Y-440449000D01*
X321469500Y-438949000D01*
X322969500Y-438949000D01*
X322969500Y-440449000D01*
G37*
G36*
X322969500Y-438121000D02*
G01*
X321469500Y-438121000D01*
X321469500Y-436621000D01*
X322969500Y-436621000D01*
X322969500Y-438121000D01*
G37*
G36*
X322969500Y-435793000D02*
G01*
X321469500Y-435793000D01*
X321469500Y-434293000D01*
X322969500Y-434293000D01*
X322969500Y-435793000D01*
G37*
G36*
X322969500Y-433465000D02*
G01*
X321469500Y-433465000D01*
X321469500Y-431965000D01*
X322969500Y-431965000D01*
X322969500Y-433465000D01*
G37*
G36*
X322969500Y-431137000D02*
G01*
X321469500Y-431137000D01*
X321469500Y-429637000D01*
X322969500Y-429637000D01*
X322969500Y-431137000D01*
G37*
G36*
X322978500Y-428762000D02*
G01*
X321480500Y-428854000D01*
X321388500Y-427357000D01*
X322886500Y-427265000D01*
X322978500Y-428762000D01*
G37*
G36*
X322774500Y-426352000D02*
G01*
X321299500Y-426624000D01*
X321027500Y-425149000D01*
X322502500Y-424877000D01*
X322774500Y-426352000D01*
G37*
G36*
X322317500Y-424119000D02*
G01*
X320882500Y-424558000D01*
X320443500Y-423124000D01*
X321877500Y-422685000D01*
X322317500Y-424119000D01*
G37*
G36*
X321576500Y-421878000D02*
G01*
X320204500Y-422485000D01*
X319598500Y-421113000D01*
X320969500Y-420507000D01*
X321576500Y-421878000D01*
G37*
G36*
X320575500Y-419742000D02*
G01*
X319285500Y-420507000D01*
X318520500Y-419217000D01*
X319810500Y-418452000D01*
X320575500Y-419742000D01*
G37*
G36*
X319329500Y-417739000D02*
G01*
X318138500Y-418651000D01*
X317226500Y-417459000D01*
X318418500Y-416548000D01*
X319329500Y-417739000D01*
G37*
G36*
X317856500Y-415897000D02*
G01*
X316780500Y-416942000D01*
X315735500Y-415866000D01*
X316811500Y-414821000D01*
X317856500Y-415897000D01*
G37*
G36*
X316177500Y-414241000D02*
G01*
X315231500Y-415405000D01*
X314067500Y-414458000D01*
X315013500Y-413295000D01*
X316177500Y-414241000D01*
G37*
G36*
X314316500Y-412792000D02*
G01*
X313513500Y-414060000D01*
X312246500Y-413257000D01*
X313049500Y-411990000D01*
X314316500Y-412792000D01*
G37*
G36*
X312296500Y-411573000D02*
G01*
X311649500Y-412926000D01*
X310296500Y-412279000D01*
X310943500Y-410926000D01*
X312296500Y-411573000D01*
G37*
G36*
X310146500Y-410601000D02*
G01*
X309664500Y-412021000D01*
X308243500Y-411539000D01*
X308726500Y-410119000D01*
X310146500Y-410601000D01*
G37*
G36*
X307896500Y-409891000D02*
G01*
X307586500Y-411359000D01*
X306118500Y-411049000D01*
X306428500Y-409581000D01*
X307896500Y-409891000D01*
G37*
G36*
X305578500Y-409454000D02*
G01*
X305443500Y-410948000D01*
X303949500Y-410813000D01*
X304084500Y-409319000D01*
X305578500Y-409454000D01*
G37*
G36*
X303281500Y-409330000D02*
G01*
X303209500Y-410828000D01*
X301710500Y-410755000D01*
X301783500Y-409257000D01*
X303281500Y-409330000D01*
G37*
G36*
X301196500Y-409166000D02*
G01*
X300766500Y-410604000D01*
X299329500Y-410174000D01*
X299759500Y-408737000D01*
X301196500Y-409166000D01*
G37*
G36*
X299399500Y-408581000D02*
G01*
X298616500Y-409860000D01*
X297337500Y-409078000D01*
X298120500Y-407798000D01*
X299399500Y-408581000D01*
G37*
G36*
X297691500Y-407438000D02*
G01*
X296574500Y-408440000D01*
X295572500Y-407324000D01*
X296689500Y-406322000D01*
X297691500Y-407438000D01*
G37*
G36*
X296368500Y-405840000D02*
G01*
X295030500Y-406518000D01*
X294352500Y-405180000D01*
X295690500Y-404502000D01*
X296368500Y-405840000D01*
G37*
G36*
X295484500Y-403929000D02*
G01*
X294030500Y-404298000D01*
X293661500Y-402844000D01*
X295115500Y-402475000D01*
X295484500Y-403929000D01*
G37*
G36*
X295022500Y-401847000D02*
G01*
X293525500Y-401945000D01*
X293426500Y-400449000D01*
X294923500Y-400350000D01*
X295022500Y-401847000D01*
G37*
G36*
X294944500Y-399692000D02*
G01*
X293444500Y-399692000D01*
X293444500Y-398192000D01*
X294944500Y-398192000D01*
X294944500Y-399692000D01*
G37*
G36*
X294944500Y-397401000D02*
G01*
X293444500Y-397401000D01*
X293444500Y-395901000D01*
X294944500Y-395901000D01*
X294944500Y-397401000D01*
G37*
G36*
X294944500Y-395110000D02*
G01*
X293444500Y-395110000D01*
X293444500Y-393610000D01*
X294944500Y-393610000D01*
X294944500Y-395110000D01*
G37*
G36*
X294944500Y-392819000D02*
G01*
X293444500Y-392819000D01*
X293444500Y-391319000D01*
X294944500Y-391319000D01*
X294944500Y-392819000D01*
G37*
G36*
X294944500Y-390528000D02*
G01*
X293444500Y-390528000D01*
X293444500Y-389028000D01*
X294944500Y-389028000D01*
X294944500Y-390528000D01*
G37*
G36*
X294944500Y-388237000D02*
G01*
X293444500Y-388237000D01*
X293444500Y-386737000D01*
X294944500Y-386737000D01*
X294944500Y-388237000D01*
G37*
G36*
X294944500Y-385946000D02*
G01*
X293444500Y-385946000D01*
X293444500Y-384446000D01*
X294944500Y-384446000D01*
X294944500Y-385946000D01*
G37*
G36*
X294944500Y-383655000D02*
G01*
X293444500Y-383655000D01*
X293444500Y-382155000D01*
X294944500Y-382155000D01*
X294944500Y-383655000D01*
G37*
G36*
X299949500Y-368258000D02*
G01*
X298907500Y-369336000D01*
X297828500Y-368294000D01*
X298871500Y-367215000D01*
X299949500Y-368258000D01*
G37*
G36*
X301650500Y-366500000D02*
G01*
X300607500Y-367578000D01*
X299529500Y-366535000D01*
X300571500Y-365457000D01*
X301650500Y-366500000D01*
G37*
G36*
X303350500Y-364741000D02*
G01*
X302307500Y-365819000D01*
X301229500Y-364777000D01*
X302272500Y-363698000D01*
X303350500Y-364741000D01*
G37*
G36*
X345515500Y-66066000D02*
G01*
X344015500Y-66066000D01*
X344015500Y-64566000D01*
X345515500Y-64566000D01*
X345515500Y-66066000D01*
G37*
G36*
X353078500Y-134023000D02*
G01*
X352043500Y-135108000D01*
X350957500Y-134073000D01*
X351992500Y-132988000D01*
X353078500Y-134023000D01*
G37*
G36*
X345515500Y-85659400D02*
G01*
X344015500Y-85659400D01*
X344015500Y-84159400D01*
X345515500Y-84159400D01*
X345515500Y-85659400D01*
G37*
G36*
X440793500Y-135465000D02*
G01*
X439725500Y-136518000D01*
X438671500Y-135450000D01*
X439739500Y-134397000D01*
X440793500Y-135465000D01*
G37*
G36*
X442324500Y-133954000D02*
G01*
X441256500Y-135008000D01*
X440203500Y-133940000D01*
X441271500Y-132886000D01*
X442324500Y-133954000D01*
G37*
G36*
X443855500Y-132444000D02*
G01*
X442788500Y-133497000D01*
X441734500Y-132429000D01*
X442802500Y-131376000D01*
X443855500Y-132444000D01*
G37*
G36*
X445387500Y-130933000D02*
G01*
X444319500Y-131987000D01*
X443266500Y-130919000D01*
X444334500Y-129866000D01*
X445387500Y-130933000D01*
G37*
G36*
X446918500Y-129423000D02*
G01*
X445850500Y-130476000D01*
X444797500Y-129408000D01*
X445865500Y-128355000D01*
X446918500Y-129423000D01*
G37*
G36*
X448450500Y-127913000D02*
G01*
X447382500Y-128966000D01*
X446329500Y-127898000D01*
X447397500Y-126844600D01*
X448450500Y-127913000D01*
G37*
G36*
X428029500Y-148054000D02*
G01*
X426961500Y-149107000D01*
X425908500Y-148039000D01*
X426976500Y-146986000D01*
X428029500Y-148054000D01*
G37*
G36*
X429724500Y-146383000D02*
G01*
X428656500Y-147436000D01*
X427603500Y-146368000D01*
X428670500Y-145315000D01*
X429724500Y-146383000D01*
G37*
G36*
X431418500Y-144711000D02*
G01*
X430350500Y-145765000D01*
X429297500Y-144697000D01*
X430365500Y-143643000D01*
X431418500Y-144711000D01*
G37*
G36*
X433113500Y-143040000D02*
G01*
X432045500Y-144093000D01*
X430991500Y-143025000D01*
X432059500Y-141972000D01*
X433113500Y-143040000D01*
G37*
G36*
X434807500Y-141369000D02*
G01*
X433739500Y-142422000D01*
X432686500Y-141354000D01*
X433754500Y-140301000D01*
X434807500Y-141369000D01*
G37*
G36*
X436502500Y-139697000D02*
G01*
X435434500Y-140751000D01*
X434380500Y-139683000D01*
X435448500Y-138629000D01*
X436502500Y-139697000D01*
G37*
G36*
X419197500Y-156766000D02*
G01*
X418129500Y-157819000D01*
X417076500Y-156751000D01*
X418144500Y-155698000D01*
X419197500Y-156766000D01*
G37*
G36*
X420744500Y-155240000D02*
G01*
X419676500Y-156294000D01*
X418622500Y-155226000D01*
X419690500Y-154172000D01*
X420744500Y-155240000D01*
G37*
G36*
X422290500Y-153715000D02*
G01*
X421222500Y-154768000D01*
X420169500Y-153701000D01*
X421237500Y-152647000D01*
X422290500Y-153715000D01*
G37*
G36*
X423836500Y-152190000D02*
G01*
X422768500Y-153243000D01*
X421715500Y-152175000D01*
X422783500Y-151122000D01*
X423836500Y-152190000D01*
G37*
G36*
X504307500Y-407224000D02*
G01*
X503338500Y-408370000D01*
X502193500Y-407401000D01*
X503161500Y-406256000D01*
X504307500Y-407224000D01*
G37*
G36*
X502707500Y-405872000D02*
G01*
X501739500Y-407017000D01*
X500593500Y-406049000D01*
X501562500Y-404903000D01*
X502707500Y-405872000D01*
G37*
G36*
X501107500Y-404519000D02*
G01*
X500139500Y-405665000D01*
X498993500Y-404696000D01*
X499962500Y-403551000D01*
X501107500Y-404519000D01*
G37*
G36*
X499507500Y-403167000D02*
G01*
X498539500Y-404312000D01*
X497393500Y-403344000D01*
X498362500Y-402198000D01*
X499507500Y-403167000D01*
G37*
G36*
X497908500Y-401814000D02*
G01*
X496939500Y-402959000D01*
X495794500Y-401991000D01*
X496762500Y-400845000D01*
X497908500Y-401814000D01*
G37*
G36*
X496308500Y-400461000D02*
G01*
X495339500Y-401607000D01*
X494194500Y-400638000D01*
X495162500Y-399493000D01*
X496308500Y-400461000D01*
G37*
G36*
X494708500Y-399109000D02*
G01*
X493739500Y-400254000D01*
X492594500Y-399286000D01*
X493562500Y-398140000D01*
X494708500Y-399109000D01*
G37*
G36*
X490176500Y-395278000D02*
G01*
X489208500Y-396423000D01*
X488062500Y-395455000D01*
X489031500Y-394309000D01*
X490176500Y-395278000D01*
G37*
G36*
X488518500Y-393875000D02*
G01*
X487549500Y-395021000D01*
X486404500Y-394052000D01*
X487372500Y-392907000D01*
X488518500Y-393875000D01*
G37*
G36*
X486859500Y-392473000D02*
G01*
X485891500Y-393618000D01*
X484745500Y-392650000D01*
X485714500Y-391504000D01*
X486859500Y-392473000D01*
G37*
G36*
X485197500Y-391050000D02*
G01*
X484253500Y-392216000D01*
X483087500Y-391272000D01*
X484031500Y-390106000D01*
X485197500Y-391050000D01*
G37*
G36*
X483358500Y-389655000D02*
G01*
X482638500Y-390972000D01*
X481322500Y-390252000D01*
X482041500Y-388936000D01*
X483358500Y-389655000D01*
G37*
G36*
X481298500Y-388613000D02*
G01*
X480827500Y-390037000D01*
X479403500Y-389566000D01*
X479874500Y-388142000D01*
X481298500Y-388613000D01*
G37*
G36*
X475289500Y-387649000D02*
G01*
X475213500Y-389147000D01*
X473715500Y-389071000D01*
X473790500Y-387573000D01*
X475289500Y-387649000D01*
G37*
G36*
X473141500Y-387540000D02*
G01*
X473065500Y-389038000D01*
X471567500Y-388962000D01*
X471643500Y-387464000D01*
X473141500Y-387540000D01*
G37*
G36*
X470994500Y-387431000D02*
G01*
X470918500Y-388929000D01*
X469420500Y-388853000D01*
X469496500Y-387355000D01*
X470994500Y-387431000D01*
G37*
G36*
X468847500Y-387322000D02*
G01*
X468771500Y-388820000D01*
X467273500Y-388744000D01*
X467349500Y-387246000D01*
X468847500Y-387322000D01*
G37*
G36*
X466699500Y-387213000D02*
G01*
X466624500Y-388711000D01*
X465125500Y-388635000D01*
X465201500Y-387137000D01*
X466699500Y-387213000D01*
G37*
G36*
X464552500Y-387104000D02*
G01*
X464476500Y-388602000D01*
X462978500Y-388527000D01*
X463054500Y-387029000D01*
X464552500Y-387104000D01*
G37*
G36*
X458731500Y-386711000D02*
G01*
X458375500Y-388168000D01*
X456917500Y-387811000D01*
X457274500Y-386354000D01*
X458731500Y-386711000D01*
G37*
G36*
X456718500Y-386065000D02*
G01*
X455968500Y-387365000D01*
X454669500Y-386615000D01*
X455419500Y-385316000D01*
X456718500Y-386065000D01*
G37*
G36*
X454851500Y-384917000D02*
G01*
X453877500Y-386058000D01*
X452736500Y-385085000D01*
X453709500Y-383944000D01*
X454851500Y-384917000D01*
G37*
G36*
X453200500Y-383376000D02*
G01*
X452127500Y-384424000D01*
X451079500Y-383351000D01*
X452152500Y-382303000D01*
X453200500Y-383376000D01*
G37*
G36*
X451574500Y-381711000D02*
G01*
X450501500Y-382759000D01*
X449452500Y-381686000D01*
X450525500Y-380638000D01*
X451574500Y-381711000D01*
G37*
G36*
X449947500Y-380045000D02*
G01*
X448874500Y-381093000D01*
X447826500Y-380020000D01*
X448899500Y-378972000D01*
X449947500Y-380045000D01*
G37*
G36*
X448320500Y-378380000D02*
G01*
X447247500Y-379428000D01*
X446199500Y-378355000D01*
X447272500Y-377307000D01*
X448320500Y-378380000D01*
G37*
G36*
X446694500Y-376714000D02*
G01*
X445621500Y-377763000D01*
X444572500Y-376689000D01*
X445646500Y-375641000D01*
X446694500Y-376714000D01*
G37*
G36*
X445067500Y-375049000D02*
G01*
X443994500Y-376097000D01*
X442946500Y-375024000D01*
X444019500Y-373976000D01*
X445067500Y-375049000D01*
G37*
G36*
X440920500Y-370804000D02*
G01*
X439847500Y-371852000D01*
X438799500Y-370779000D01*
X439872500Y-369731000D01*
X440920500Y-370804000D01*
G37*
G36*
X439424500Y-369272000D02*
G01*
X438351500Y-370320000D01*
X437303500Y-369247000D01*
X438376500Y-368199000D01*
X439424500Y-369272000D01*
G37*
G36*
X437928500Y-367740000D02*
G01*
X436855500Y-368788000D01*
X435807500Y-367715000D01*
X436880500Y-366667000D01*
X437928500Y-367740000D01*
G37*
G36*
X436432500Y-366209000D02*
G01*
X435359500Y-367257000D01*
X434311500Y-366184000D01*
X435384500Y-365136000D01*
X436432500Y-366209000D01*
G37*
G36*
X345515500Y-105105800D02*
G01*
X344015500Y-105105800D01*
X344015500Y-103605800D01*
X345515500Y-103605800D01*
X345515500Y-105105800D01*
G37*
G36*
X345515500Y-49622700D02*
G01*
X344015500Y-49622700D01*
X344015500Y-48122700D01*
X345515500Y-48122700D01*
X345515500Y-49622700D01*
G37*
G36*
X345515500Y-51866700D02*
G01*
X344015500Y-51866700D01*
X344015500Y-50366700D01*
X345515500Y-50366700D01*
X345515500Y-51866700D01*
G37*
G36*
X417114500Y-224117000D02*
G01*
X415614500Y-224117000D01*
X415614500Y-222617000D01*
X417114500Y-222617000D01*
X417114500Y-224117000D01*
G37*
G36*
X414558500Y-161341000D02*
G01*
X413490500Y-162395000D01*
X412437500Y-161327000D01*
X413505500Y-160274000D01*
X414558500Y-161341000D01*
G37*
G36*
X416105500Y-159816000D02*
G01*
X415037500Y-160869000D01*
X413983500Y-159802000D01*
X415051500Y-158748000D01*
X416105500Y-159816000D01*
G37*
G36*
X417651500Y-158291000D02*
G01*
X416583500Y-159344000D01*
X415530500Y-158276000D01*
X416598500Y-157223000D01*
X417651500Y-158291000D01*
G37*
G36*
X405482500Y-170294000D02*
G01*
X404414500Y-171347000D01*
X403361500Y-170279000D01*
X404429500Y-169226000D01*
X405482500Y-170294000D01*
G37*
G36*
X407098500Y-168700000D02*
G01*
X406030500Y-169754000D01*
X404976500Y-168686000D01*
X406044500Y-167632000D01*
X407098500Y-168700000D01*
G37*
G36*
X408713500Y-167107000D02*
G01*
X407645500Y-168160000D01*
X406592500Y-167092000D01*
X407660500Y-166039000D01*
X408713500Y-167107000D01*
G37*
G36*
X410329500Y-165514000D02*
G01*
X409261500Y-166567000D01*
X408207500Y-165499000D01*
X409275500Y-164446000D01*
X410329500Y-165514000D01*
G37*
G36*
X391272500Y-183892000D02*
G01*
X390211500Y-184952000D01*
X389150500Y-183892000D01*
X390211500Y-182831000D01*
X391272500Y-183892000D01*
G37*
G36*
X389700500Y-185463000D02*
G01*
X388640500Y-186524000D01*
X387579500Y-185463000D01*
X388640500Y-184402000D01*
X389700500Y-185463000D01*
G37*
G36*
X388076500Y-187076000D02*
G01*
X386925500Y-188038000D01*
X385963500Y-186887000D01*
X387114500Y-185925000D01*
X388076500Y-187076000D01*
G37*
G36*
X386268500Y-188522000D02*
G01*
X385008500Y-189336000D01*
X384194500Y-188075000D01*
X385455500Y-187262000D01*
X386268500Y-188522000D01*
G37*
G36*
X384297500Y-189735000D02*
G01*
X382947500Y-190388000D01*
X382294500Y-189038000D01*
X383644500Y-188385000D01*
X384297500Y-189735000D01*
G37*
G36*
X382192500Y-190697000D02*
G01*
X380772500Y-191180000D01*
X380289500Y-189759000D01*
X381709500Y-189277000D01*
X382192500Y-190697000D01*
G37*
G36*
X379985500Y-191394000D02*
G01*
X378516500Y-191699000D01*
X378211500Y-190230000D01*
X379680500Y-189925000D01*
X379985500Y-191394000D01*
G37*
G36*
X377709500Y-191815000D02*
G01*
X376214500Y-191937000D01*
X376091500Y-190442000D01*
X377586500Y-190320000D01*
X377709500Y-191815000D01*
G37*
G36*
X375430500Y-191939000D02*
G01*
X373930500Y-191939000D01*
X373930500Y-190439000D01*
X375430500Y-190439000D01*
X375430500Y-191939000D01*
G37*
G36*
X373208500Y-191939000D02*
G01*
X371708500Y-191939000D01*
X371708500Y-190439000D01*
X373208500Y-190439000D01*
X373208500Y-191939000D01*
G37*
G36*
X370986500Y-191939000D02*
G01*
X369486500Y-191939000D01*
X369486500Y-190439000D01*
X370986500Y-190439000D01*
X370986500Y-191939000D01*
G37*
G36*
X368764500Y-191939000D02*
G01*
X367264500Y-191939000D01*
X367264500Y-190439000D01*
X368764500Y-190439000D01*
X368764500Y-191939000D01*
G37*
G36*
X366542500Y-191939000D02*
G01*
X365042500Y-191939000D01*
X365042500Y-190439000D01*
X366542500Y-190439000D01*
X366542500Y-191939000D01*
G37*
G36*
X364320500Y-191939000D02*
G01*
X362820500Y-191939000D01*
X362820500Y-190439000D01*
X364320500Y-190439000D01*
X364320500Y-191939000D01*
G37*
G36*
X362098500Y-191939000D02*
G01*
X360598500Y-191939000D01*
X360598500Y-190439000D01*
X362098500Y-190439000D01*
X362098500Y-191939000D01*
G37*
G36*
X359876500Y-191939000D02*
G01*
X358376500Y-191939000D01*
X358376500Y-190439000D01*
X359876500Y-190439000D01*
X359876500Y-191939000D01*
G37*
G36*
X357653500Y-191939000D02*
G01*
X356154500Y-191939000D01*
X356154500Y-190439000D01*
X357653500Y-190439000D01*
X357653500Y-191939000D01*
G37*
G36*
X355383500Y-191939000D02*
G01*
X353883500Y-191939000D01*
X353883500Y-190439000D01*
X355383500Y-190439000D01*
X355383500Y-191939000D01*
G37*
G36*
X353055500Y-191939000D02*
G01*
X351555500Y-191939000D01*
X351555500Y-190439000D01*
X353055500Y-190439000D01*
X353055500Y-191939000D01*
G37*
G36*
X350963500Y-192006000D02*
G01*
X349540500Y-192481000D01*
X349065500Y-191058000D01*
X350488500Y-190583000D01*
X350963500Y-192006000D01*
G37*
G36*
X349031500Y-192758000D02*
G01*
X347855500Y-193689000D01*
X346924500Y-192513000D01*
X348100500Y-191582000D01*
X349031500Y-192758000D01*
G37*
G36*
X347468500Y-194123000D02*
G01*
X346678500Y-195397000D01*
X345403500Y-194606000D01*
X346194500Y-193332000D01*
X347468500Y-194123000D01*
G37*
G36*
X253231500Y-256338000D02*
G01*
X251731500Y-256338000D01*
X251731500Y-254838000D01*
X253231500Y-254838000D01*
X253231500Y-256338000D01*
G37*
G36*
X346462500Y-195934000D02*
G01*
X346155500Y-197402000D01*
X344686500Y-197095000D01*
X344994500Y-195627000D01*
X346462500Y-195934000D01*
G37*
G36*
X346182500Y-199583000D02*
G01*
X344682500Y-199583000D01*
X344682500Y-198083000D01*
X346182500Y-198083000D01*
X346182500Y-199583000D01*
G37*
G36*
X346182500Y-201911000D02*
G01*
X344682500Y-201911000D01*
X344682500Y-200411000D01*
X346182500Y-200411000D01*
X346182500Y-201911000D01*
G37*
G36*
X346182500Y-204239000D02*
G01*
X344682500Y-204239000D01*
X344682500Y-202739000D01*
X346182500Y-202739000D01*
X346182500Y-204239000D01*
G37*
G36*
X346182500Y-206567000D02*
G01*
X344682500Y-206567000D01*
X344682500Y-205067000D01*
X346182500Y-205067000D01*
X346182500Y-206567000D01*
G37*
G36*
X346182500Y-208910000D02*
G01*
X344682500Y-208910000D01*
X344682500Y-207410000D01*
X346182500Y-207410000D01*
X346182500Y-208910000D01*
G37*
G36*
X346182500Y-211278000D02*
G01*
X344682500Y-211278000D01*
X344682500Y-209778000D01*
X346182500Y-209778000D01*
X346182500Y-211278000D01*
G37*
G36*
X346398500Y-213502000D02*
G01*
X344920500Y-213758000D01*
X344664500Y-212280000D01*
X346142500Y-212024000D01*
X346398500Y-213502000D01*
G37*
G36*
X347360500Y-215377000D02*
G01*
X346063500Y-216130000D01*
X345310500Y-214832000D01*
X346608500Y-214079000D01*
X347360500Y-215377000D01*
G37*
G36*
X348911500Y-216809000D02*
G01*
X347950500Y-217962000D01*
X346798500Y-217001000D01*
X347759500Y-215849000D01*
X348911500Y-216809000D01*
G37*
G36*
X350858500Y-217620000D02*
G01*
X350354500Y-219033000D01*
X348941500Y-218529000D01*
X349446500Y-217116000D01*
X350858500Y-217620000D01*
G37*
G36*
X352985500Y-219201000D02*
G01*
X351485500Y-219225000D01*
X351461500Y-217725000D01*
X352961500Y-217701000D01*
X352985500Y-219201000D01*
G37*
G36*
X355353500Y-219163000D02*
G01*
X353853500Y-219187000D01*
X353829500Y-217687000D01*
X355329500Y-217663000D01*
X355353500Y-219163000D01*
G37*
G36*
X357721500Y-219125000D02*
G01*
X356221500Y-219149000D01*
X356197500Y-217649000D01*
X357697500Y-217625000D01*
X357721500Y-219125000D01*
G37*
G36*
X360018500Y-219088000D02*
G01*
X358518500Y-219112000D01*
X358494500Y-217612000D01*
X359994500Y-217588000D01*
X360018500Y-219088000D01*
G37*
G36*
X362307500Y-217566000D02*
G01*
X362304500Y-219066000D01*
X360803500Y-219062000D01*
X360807500Y-217562000D01*
X362307500Y-217566000D01*
G37*
G36*
X364682500Y-217793000D02*
G01*
X364508500Y-219283000D01*
X363018500Y-219108000D01*
X363193500Y-217619000D01*
X364682500Y-217793000D01*
G37*
G36*
X367017500Y-218293000D02*
G01*
X366671500Y-219753000D01*
X365211500Y-219407000D01*
X365557500Y-217947000D01*
X367017500Y-218293000D01*
G37*
G36*
X369277500Y-219060000D02*
G01*
X368765500Y-220470000D01*
X367355500Y-219957000D01*
X367868500Y-218548000D01*
X369277500Y-219060000D01*
G37*
G36*
X371434500Y-220083000D02*
G01*
X370762500Y-221424000D01*
X369421500Y-220752000D01*
X370093500Y-219411000D01*
X371434500Y-220083000D01*
G37*
G36*
X373458500Y-221348000D02*
G01*
X372637500Y-222602000D01*
X371382500Y-221781000D01*
X372204500Y-220526000D01*
X373458500Y-221348000D01*
G37*
G36*
X375324500Y-222836000D02*
G01*
X374364500Y-223988000D01*
X373211500Y-223028000D01*
X374172500Y-221875000D01*
X375324500Y-222836000D01*
G37*
G36*
X377007500Y-224527000D02*
G01*
X375922500Y-225562000D01*
X374886500Y-224477000D01*
X375972500Y-223441000D01*
X377007500Y-224527000D01*
G37*
G36*
X378486500Y-226400000D02*
G01*
X377289500Y-227304000D01*
X376385500Y-226107000D01*
X377582500Y-225203000D01*
X378486500Y-226400000D01*
G37*
G36*
X379740500Y-228430000D02*
G01*
X378447500Y-229191000D01*
X377687500Y-227898000D01*
X378979500Y-227138000D01*
X379740500Y-228430000D01*
G37*
G36*
X380735500Y-230551000D02*
G01*
X379364500Y-231160000D01*
X378755500Y-229789000D01*
X380126500Y-229180000D01*
X380735500Y-230551000D01*
G37*
G36*
X381493500Y-232812000D02*
G01*
X380061500Y-233258000D01*
X379615500Y-231826000D01*
X381047500Y-231380000D01*
X381493500Y-232812000D01*
G37*
G36*
X381984500Y-235147000D02*
G01*
X380509500Y-235424000D01*
X380233500Y-233949000D01*
X381707500Y-233673000D01*
X381984500Y-235147000D01*
G37*
G36*
X382201500Y-237522000D02*
G01*
X380705500Y-237627000D01*
X380600500Y-236131000D01*
X382096500Y-236025000D01*
X382201500Y-237522000D01*
G37*
G36*
X382200500Y-239873000D02*
G01*
X380700500Y-239873000D01*
X380700500Y-238373000D01*
X382200500Y-238373000D01*
X382200500Y-239873000D01*
G37*
G36*
X382200500Y-242171000D02*
G01*
X380700500Y-242171000D01*
X380700500Y-240671000D01*
X382200500Y-240671000D01*
X382200500Y-242171000D01*
G37*
G36*
X382200500Y-244469000D02*
G01*
X380700500Y-244469000D01*
X380700500Y-242969000D01*
X382200500Y-242969000D01*
X382200500Y-244469000D01*
G37*
G36*
X382200500Y-246767000D02*
G01*
X380700500Y-246767000D01*
X380700500Y-245267000D01*
X382200500Y-245267000D01*
X382200500Y-246767000D01*
G37*
G36*
X382200500Y-249065000D02*
G01*
X380700500Y-249065000D01*
X380700500Y-247565000D01*
X382200500Y-247565000D01*
X382200500Y-249065000D01*
G37*
G36*
X382200500Y-251363000D02*
G01*
X380700500Y-251363000D01*
X380700500Y-249863000D01*
X382200500Y-249863000D01*
X382200500Y-251363000D01*
G37*
G36*
X382200500Y-253661000D02*
G01*
X380700500Y-253661000D01*
X380700500Y-252161000D01*
X382200500Y-252161000D01*
X382200500Y-253661000D01*
G37*
G36*
X382200500Y-255735000D02*
G01*
X380700500Y-255735000D01*
X380700500Y-254235000D01*
X382200500Y-254235000D01*
X382200500Y-255735000D01*
G37*
G36*
X382200500Y-257956000D02*
G01*
X380700500Y-257956000D01*
X380700500Y-256456000D01*
X382200500Y-256456000D01*
X382200500Y-257956000D01*
G37*
G36*
X382200500Y-260177000D02*
G01*
X380700500Y-260177000D01*
X380700500Y-258677000D01*
X382200500Y-258677000D01*
X382200500Y-260177000D01*
G37*
G36*
X382200500Y-262398000D02*
G01*
X380700500Y-262398000D01*
X380700500Y-260898000D01*
X382200500Y-260898000D01*
X382200500Y-262398000D01*
G37*
G36*
X382200500Y-264619000D02*
G01*
X380700500Y-264619000D01*
X380700500Y-263119000D01*
X382200500Y-263119000D01*
X382200500Y-264619000D01*
G37*
G36*
X382200500Y-283906000D02*
G01*
X380700500Y-283906000D01*
X380700500Y-282406000D01*
X382200500Y-282406000D01*
X382200500Y-283906000D01*
G37*
G36*
X382200500Y-286321000D02*
G01*
X380700500Y-286321000D01*
X380700500Y-284821000D01*
X382200500Y-284821000D01*
X382200500Y-286321000D01*
G37*
G36*
X382200500Y-288736000D02*
G01*
X380700500Y-288736000D01*
X380700500Y-287236000D01*
X382200500Y-287236000D01*
X382200500Y-288736000D01*
G37*
G36*
X382200500Y-291151000D02*
G01*
X380700500Y-291151000D01*
X380700500Y-289651000D01*
X382200500Y-289651000D01*
X382200500Y-291151000D01*
G37*
G36*
X382200500Y-293566000D02*
G01*
X380700500Y-293566000D01*
X380700500Y-292066000D01*
X382200500Y-292066000D01*
X382200500Y-293566000D01*
G37*
G36*
X382200500Y-295981000D02*
G01*
X380700500Y-295981000D01*
X380700500Y-294481000D01*
X382200500Y-294481000D01*
X382200500Y-295981000D01*
G37*
G36*
X382200500Y-298396000D02*
G01*
X380700500Y-298396000D01*
X380700500Y-296896000D01*
X382200500Y-296896000D01*
X382200500Y-298396000D01*
G37*
G36*
X382200500Y-300811000D02*
G01*
X380700500Y-300811000D01*
X380700500Y-299311000D01*
X382200500Y-299311000D01*
X382200500Y-300811000D01*
G37*
G36*
X382200500Y-303226000D02*
G01*
X380700500Y-303226000D01*
X380700500Y-301726000D01*
X382200500Y-301726000D01*
X382200500Y-303226000D01*
G37*
G36*
X382200500Y-305641000D02*
G01*
X380700500Y-305641000D01*
X380700500Y-304141000D01*
X382200500Y-304141000D01*
X382200500Y-305641000D01*
G37*
G36*
X382200500Y-325105000D02*
G01*
X380700500Y-325105000D01*
X380700500Y-323605000D01*
X382200500Y-323605000D01*
X382200500Y-325105000D01*
G37*
G36*
X382200500Y-327422000D02*
G01*
X380700500Y-327422000D01*
X380700500Y-325922000D01*
X382200500Y-325922000D01*
X382200500Y-327422000D01*
G37*
G36*
X382200500Y-329739000D02*
G01*
X380700500Y-329739000D01*
X380700500Y-328239000D01*
X382200500Y-328239000D01*
X382200500Y-329739000D01*
G37*
G36*
X382200500Y-332056000D02*
G01*
X380700500Y-332056000D01*
X380700500Y-330556000D01*
X382200500Y-330556000D01*
X382200500Y-332056000D01*
G37*
G36*
X382200500Y-334373000D02*
G01*
X380700500Y-334373000D01*
X380700500Y-332873000D01*
X382200500Y-332873000D01*
X382200500Y-334373000D01*
G37*
G36*
X382200500Y-336690000D02*
G01*
X380700500Y-336690000D01*
X380700500Y-335190000D01*
X382200500Y-335190000D01*
X382200500Y-336690000D01*
G37*
G36*
X382200500Y-339007000D02*
G01*
X380700500Y-339007000D01*
X380700500Y-337507000D01*
X382200500Y-337507000D01*
X382200500Y-339007000D01*
G37*
G36*
X382200500Y-341324000D02*
G01*
X380700500Y-341324000D01*
X380700500Y-339824000D01*
X382200500Y-339824000D01*
X382200500Y-341324000D01*
G37*
G36*
X382200500Y-343641000D02*
G01*
X380700500Y-343641000D01*
X380700500Y-342141000D01*
X382200500Y-342141000D01*
X382200500Y-343641000D01*
G37*
G36*
X382200500Y-345958000D02*
G01*
X380700500Y-345958000D01*
X380700500Y-344458000D01*
X382200500Y-344458000D01*
X382200500Y-345958000D01*
G37*
G36*
X382487500Y-348108000D02*
G01*
X381014500Y-348395000D01*
X380728500Y-346922000D01*
X382200500Y-346636000D01*
X382487500Y-348108000D01*
G37*
G36*
X383361500Y-350034000D02*
G01*
X382022500Y-350708000D01*
X381347500Y-349368000D01*
X382687500Y-348694000D01*
X383361500Y-350034000D01*
G37*
G36*
X384722500Y-351654000D02*
G01*
X383613500Y-352664000D01*
X382604500Y-351554000D01*
X383713500Y-350545000D01*
X384722500Y-351654000D01*
G37*
G36*
X386468500Y-352853000D02*
G01*
X385669500Y-354122000D01*
X384399500Y-353323000D01*
X385198500Y-352054000D01*
X386468500Y-352853000D01*
G37*
G36*
X388470500Y-353535000D02*
G01*
X388043500Y-354973000D01*
X386605500Y-354547000D01*
X387032500Y-353109000D01*
X388470500Y-353535000D01*
G37*
G36*
X390583500Y-353653000D02*
G01*
X390559500Y-355152000D01*
X389059500Y-355128000D01*
X389083500Y-353628000D01*
X390583500Y-353653000D01*
G37*
G36*
X392888500Y-355140000D02*
G01*
X391388500Y-355140000D01*
X391388500Y-353640000D01*
X392888500Y-353640000D01*
X392888500Y-355140000D01*
G37*
G36*
X395205500Y-355139000D02*
G01*
X393705500Y-355139000D01*
X393705500Y-353639000D01*
X395205500Y-353639000D01*
X395205500Y-355139000D01*
G37*
G36*
X401154500Y-355137000D02*
G01*
X399654500Y-355137000D01*
X399654500Y-353637000D01*
X401154500Y-353637000D01*
X401154500Y-355137000D01*
G37*
G36*
X403445500Y-355136000D02*
G01*
X401945500Y-355136000D01*
X401945500Y-353636000D01*
X403445500Y-353636000D01*
X403445500Y-355136000D01*
G37*
G36*
X405736500Y-355135000D02*
G01*
X404236500Y-355135000D01*
X404236500Y-353635000D01*
X405736500Y-353635000D01*
X405736500Y-355135000D01*
G37*
G36*
X408027500Y-355134000D02*
G01*
X406527500Y-355134000D01*
X406527500Y-353634000D01*
X408027500Y-353634000D01*
X408027500Y-355134000D01*
G37*
G36*
X413942500Y-355132000D02*
G01*
X412442500Y-355132000D01*
X412442500Y-353632000D01*
X413942500Y-353632000D01*
X413942500Y-355132000D01*
G37*
G36*
X416254500Y-355131000D02*
G01*
X414754500Y-355131000D01*
X414754500Y-353631000D01*
X416254500Y-353631000D01*
X416254500Y-355131000D01*
G37*
G36*
X418566500Y-355131000D02*
G01*
X417066500Y-355131000D01*
X417066500Y-353631000D01*
X418566500Y-353631000D01*
X418566500Y-355131000D01*
G37*
G36*
X420939500Y-353737000D02*
G01*
X420811500Y-355231000D01*
X419316500Y-355104000D01*
X419444500Y-353609000D01*
X420939500Y-353737000D01*
G37*
G36*
X423329500Y-354357000D02*
G01*
X422893500Y-355792000D01*
X421458500Y-355356000D01*
X421894500Y-353921000D01*
X423329500Y-354357000D01*
G37*
G36*
X425538500Y-355461000D02*
G01*
X424813500Y-356774000D01*
X423500500Y-356049000D01*
X424225500Y-354736000D01*
X425538500Y-355461000D01*
G37*
G36*
X427469500Y-357001000D02*
G01*
X426486500Y-358134000D01*
X425353500Y-357152000D01*
X426336500Y-356018000D01*
X427469500Y-357001000D01*
G37*
G36*
X429114500Y-358716000D02*
G01*
X428040500Y-359764000D01*
X426992500Y-358691000D01*
X428065500Y-357643000D01*
X429114500Y-358716000D01*
G37*
G36*
X430729500Y-360370000D02*
G01*
X429656500Y-361418000D01*
X428608500Y-360345000D01*
X429681500Y-359297000D01*
X430729500Y-360370000D01*
G37*
G36*
X432345500Y-362024000D02*
G01*
X431271500Y-363072000D01*
X430223500Y-361999000D01*
X431296500Y-360951000D01*
X432345500Y-362024000D01*
G37*
G36*
X345515500Y-54110700D02*
G01*
X344015500Y-54110700D01*
X344015500Y-52610700D01*
X345515500Y-52610700D01*
X345515500Y-54110700D01*
G37*
G36*
X345515500Y-56354700D02*
G01*
X344015500Y-56354700D01*
X344015500Y-54854700D01*
X345515500Y-54854700D01*
X345515500Y-56354700D01*
G37*
G36*
X345515500Y-58598800D02*
G01*
X344015500Y-58598800D01*
X344015500Y-57098800D01*
X345515500Y-57098800D01*
X345515500Y-58598800D01*
G37*
G36*
X345515500Y-60842800D02*
G01*
X344015500Y-60842800D01*
X344015500Y-59342700D01*
X345515500Y-59342700D01*
X345515500Y-60842800D01*
G37*
G36*
X345515500Y-63086800D02*
G01*
X344015500Y-63086800D01*
X344015500Y-61586800D01*
X345515500Y-61586800D01*
X345515500Y-63086800D01*
G37*
G36*
X345515500Y-69064800D02*
G01*
X344015500Y-69064800D01*
X344015500Y-67564700D01*
X345515500Y-67564700D01*
X345515500Y-69064800D01*
G37*
G36*
X345515500Y-71338800D02*
G01*
X344015500Y-71338800D01*
X344015500Y-69838800D01*
X345515500Y-69838800D01*
X345515500Y-71338800D01*
G37*
G36*
X345515500Y-73612800D02*
G01*
X344015500Y-73612800D01*
X344015500Y-72112800D01*
X345515500Y-72112800D01*
X345515500Y-73612800D01*
G37*
G36*
X345515500Y-75886800D02*
G01*
X344015500Y-75886800D01*
X344015500Y-74386800D01*
X345515500Y-74386800D01*
X345515500Y-75886800D01*
G37*
G36*
X345515500Y-78160800D02*
G01*
X344015500Y-78160800D01*
X344015500Y-76660800D01*
X345515500Y-76660800D01*
X345515500Y-78160800D01*
G37*
G36*
X345515500Y-80434800D02*
G01*
X344015500Y-80434800D01*
X344015500Y-78934800D01*
X345515500Y-78934800D01*
X345515500Y-80434800D01*
G37*
G36*
X345515500Y-82708900D02*
G01*
X344015500Y-82708900D01*
X344015500Y-81208800D01*
X345515500Y-81208800D01*
X345515500Y-82708900D01*
G37*
G36*
X345515500Y-88681000D02*
G01*
X344015500Y-88681000D01*
X344015500Y-87181000D01*
X345515500Y-87181000D01*
X345515500Y-88681000D01*
G37*
G36*
X345515500Y-90927100D02*
G01*
X344015500Y-90927100D01*
X344015500Y-89427100D01*
X345515500Y-89427100D01*
X345515500Y-90927100D01*
G37*
G36*
X345515500Y-93173100D02*
G01*
X344015500Y-93173100D01*
X344015500Y-91673100D01*
X345515500Y-91673100D01*
X345515500Y-93173100D01*
G37*
G36*
X345515500Y-95419100D02*
G01*
X344015500Y-95419100D01*
X344015500Y-93919100D01*
X345515500Y-93919100D01*
X345515500Y-95419100D01*
G37*
G36*
X345515500Y-97665100D02*
G01*
X344015500Y-97665100D01*
X344015500Y-96165100D01*
X345515500Y-96165100D01*
X345515500Y-97665100D01*
G37*
G36*
X345515500Y-99911100D02*
G01*
X344015500Y-99911100D01*
X344015500Y-98411100D01*
X345515500Y-98411100D01*
X345515500Y-99911100D01*
G37*
G36*
X345515500Y-102157100D02*
G01*
X344015500Y-102157100D01*
X344015500Y-100657100D01*
X345515500Y-100657100D01*
X345515500Y-102157100D01*
G37*
G36*
X345515500Y-108150100D02*
G01*
X344015500Y-108150100D01*
X344015500Y-106650100D01*
X345515500Y-106650100D01*
X345515500Y-108150100D01*
G37*
G36*
X345515500Y-110333100D02*
G01*
X344015500Y-110333100D01*
X344015500Y-108833100D01*
X345515500Y-108833100D01*
X345515500Y-110333100D01*
G37*
G36*
X345515500Y-112516100D02*
G01*
X344015500Y-112516100D01*
X344015500Y-111016100D01*
X345515500Y-111016100D01*
X345515500Y-112516100D01*
G37*
G36*
X345515500Y-114699100D02*
G01*
X344015500Y-114699100D01*
X344015500Y-113199100D01*
X345515500Y-113199100D01*
X345515500Y-114699100D01*
G37*
G36*
X345515500Y-116882100D02*
G01*
X344015500Y-116882100D01*
X344015500Y-115382100D01*
X345515500Y-115382100D01*
X345515500Y-116882100D01*
G37*
G36*
X345515500Y-119065200D02*
G01*
X344015500Y-119065200D01*
X344015500Y-117565100D01*
X345515500Y-117565100D01*
X345515500Y-119065200D01*
G37*
G36*
X345515500Y-121248200D02*
G01*
X344015500Y-121248200D01*
X344015500Y-119748100D01*
X345515500Y-119748100D01*
X345515500Y-121248200D01*
G37*
G36*
X345609500Y-123369500D02*
G01*
X344114500Y-123486300D01*
X343997500Y-121990800D01*
X345493500Y-121874100D01*
X345609500Y-123369500D01*
G37*
G36*
X346071500Y-125372700D02*
G01*
X344618500Y-125743400D01*
X344247500Y-124289900D01*
X345700500Y-123919200D01*
X346071500Y-125372700D01*
G37*
G36*
X346868500Y-127267500D02*
G01*
X345500500Y-127881000D01*
X344886500Y-126512400D01*
X346255500Y-125898800D01*
X346868500Y-127267500D01*
G37*
G36*
X347977500Y-128998000D02*
G01*
X346734500Y-129837000D01*
X345895500Y-128593000D01*
X347139500Y-127755000D01*
X347977500Y-128998000D01*
G37*
G36*
X349366500Y-130514000D02*
G01*
X348284500Y-131553000D01*
X347245500Y-130471000D01*
X348328500Y-129432000D01*
X349366500Y-130514000D01*
G37*
G36*
X350937500Y-131982000D02*
G01*
X349902500Y-133068000D01*
X348817500Y-132033000D01*
X349852500Y-130947000D01*
X350937500Y-131982000D01*
G37*
G36*
X355236500Y-136080000D02*
G01*
X354201500Y-137166000D01*
X353115500Y-136131000D01*
X354150500Y-135045000D01*
X355236500Y-136080000D01*
G37*
G36*
X356792500Y-137563000D02*
G01*
X355757500Y-138648000D01*
X354671500Y-137614000D01*
X355706500Y-136528000D01*
X356792500Y-137563000D01*
G37*
G36*
X358347500Y-139046000D02*
G01*
X357312500Y-140131000D01*
X356226500Y-139096000D01*
X357261500Y-138011000D01*
X358347500Y-139046000D01*
G37*
G36*
X359903500Y-140528000D02*
G01*
X358868500Y-141614000D01*
X357782500Y-140579000D01*
X358817500Y-139493000D01*
X359903500Y-140528000D01*
G37*
G36*
X361458500Y-142011000D02*
G01*
X360423500Y-143097000D01*
X359337500Y-142062000D01*
X360372500Y-140976000D01*
X361458500Y-142011000D01*
G37*
G36*
X363014500Y-143494000D02*
G01*
X361979500Y-144580000D01*
X360893500Y-143545000D01*
X361928500Y-142459000D01*
X363014500Y-143494000D01*
G37*
G36*
X364569500Y-144977000D02*
G01*
X363534500Y-146062000D01*
X362448500Y-145027000D01*
X363483500Y-143942000D01*
X364569500Y-144977000D01*
G37*
G36*
X366125500Y-146459000D02*
G01*
X365090500Y-147545000D01*
X364004500Y-146510000D01*
X365039500Y-145425000D01*
X366125500Y-146459000D01*
G37*
G36*
X367680500Y-147942000D02*
G01*
X366645500Y-149028000D01*
X365559500Y-147993000D01*
X366594500Y-146907000D01*
X367680500Y-147942000D01*
G37*
G36*
X369236500Y-149425000D02*
G01*
X368201500Y-150511000D01*
X367115500Y-149476000D01*
X368150500Y-148390000D01*
X369236500Y-149425000D01*
G37*
G36*
X370791500Y-150908000D02*
G01*
X369756500Y-151994000D01*
X368670500Y-150959000D01*
X369705500Y-149873000D01*
X370791500Y-150908000D01*
G37*
G36*
X372347500Y-152391000D02*
G01*
X371312500Y-153476000D01*
X370226500Y-152441000D01*
X371261500Y-151356000D01*
X372347500Y-152391000D01*
G37*
G36*
X373902500Y-153873000D02*
G01*
X372867500Y-154959000D01*
X371781500Y-153924000D01*
X372816500Y-152838000D01*
X373902500Y-153873000D01*
G37*
G36*
X375458500Y-155356000D02*
G01*
X374423500Y-156442000D01*
X373337500Y-155407000D01*
X374372500Y-154321000D01*
X375458500Y-155356000D01*
G37*
G36*
X377013500Y-156839000D02*
G01*
X375978500Y-157925000D01*
X374892500Y-156890000D01*
X375927500Y-155804000D01*
X377013500Y-156839000D01*
G37*
G36*
X345515500Y-46709700D02*
G01*
X344015500Y-46709700D01*
X344015500Y-45209700D01*
X345515500Y-45209700D01*
X345515500Y-46709700D01*
G37*
G36*
X297792500Y-370358000D02*
G01*
X296753500Y-371439000D01*
X295671500Y-370401000D01*
X296710500Y-369319000D01*
X297792500Y-370358000D01*
G37*
G36*
X369896500Y-310495000D02*
G01*
X368396500Y-310497000D01*
X368395500Y-308997000D01*
X369895500Y-308995000D01*
X369896500Y-310495000D01*
G37*
G36*
X376656500Y-310582000D02*
G01*
X375156500Y-310582000D01*
X375156500Y-309082000D01*
X376656500Y-309082000D01*
X376656500Y-310582000D01*
G37*
G36*
X383613500Y-308997000D02*
G01*
X383612500Y-310497000D01*
X382112500Y-310495000D01*
X382113500Y-308995000D01*
X383613500Y-308997000D01*
G37*
G36*
X369896500Y-318895000D02*
G01*
X369895500Y-320395000D01*
X368395500Y-320393000D01*
X368396500Y-318893000D01*
X369896500Y-318895000D01*
G37*
G36*
X376636500Y-318789000D02*
G01*
X376629500Y-320289000D01*
X375129500Y-320282000D01*
X375136500Y-318782000D01*
X376636500Y-318789000D01*
G37*
G36*
X383613500Y-320393000D02*
G01*
X382113500Y-320395000D01*
X382112500Y-318895000D01*
X383612500Y-318893000D01*
X383613500Y-320393000D01*
G37*
G36*
X371761500Y-322289000D02*
G01*
X370261500Y-322289000D01*
X370261500Y-320789000D01*
X371761500Y-320789000D01*
X371761500Y-322289000D01*
G37*
G36*
X371891500Y-315545000D02*
G01*
X370391500Y-315545000D01*
X370391500Y-314045000D01*
X371891500Y-314045000D01*
X371891500Y-315545000D01*
G37*
G36*
X371761500Y-308601000D02*
G01*
X370261500Y-308601000D01*
X370261500Y-307101000D01*
X371761500Y-307101000D01*
X371761500Y-308601000D01*
G37*
G36*
X381746500Y-308601000D02*
G01*
X380246500Y-308601000D01*
X380246500Y-307101000D01*
X381746500Y-307101000D01*
X381746500Y-308601000D01*
G37*
G36*
X381597500Y-314068000D02*
G01*
X381591500Y-315568000D01*
X380091500Y-315562000D01*
X380097500Y-314062000D01*
X381597500Y-314068000D01*
G37*
G36*
X381746500Y-322289000D02*
G01*
X380246500Y-322289000D01*
X380246500Y-320789000D01*
X381746500Y-320789000D01*
X381746500Y-322289000D01*
G37*
G36*
X335671500Y-281028000D02*
G01*
X334171500Y-281030000D01*
X334168500Y-279530000D01*
X335668500Y-279528000D01*
X335671500Y-281028000D01*
G37*
G36*
X335922500Y-274255000D02*
G01*
X334422500Y-274255000D01*
X334422500Y-272755000D01*
X335922500Y-272755000D01*
X335922500Y-274255000D01*
G37*
G36*
X335660500Y-267527000D02*
G01*
X334159500Y-267527000D01*
X334159500Y-266027000D01*
X335660500Y-266027000D01*
X335660500Y-267527000D01*
G37*
G36*
X345938500Y-266027000D02*
G01*
X345932500Y-267527000D01*
X344432500Y-267521000D01*
X344438500Y-266021000D01*
X345938500Y-266027000D01*
G37*
G36*
X345667500Y-274255000D02*
G01*
X344167500Y-274255000D01*
X344167500Y-272755000D01*
X345667500Y-272755000D01*
X345667500Y-274255000D01*
G37*
G36*
X345874500Y-279554000D02*
G01*
X345865500Y-281054000D01*
X344365500Y-281046000D01*
X344374500Y-279546000D01*
X345874500Y-279554000D01*
G37*
G36*
X332265500Y-272756000D02*
G01*
X332263500Y-274256000D01*
X330763500Y-274253000D01*
X330765500Y-272753000D01*
X332265500Y-272756000D01*
G37*
G36*
X349326500Y-274253000D02*
G01*
X347826500Y-274256000D01*
X347824500Y-272756000D01*
X349324500Y-272753000D01*
X349326500Y-274253000D01*
G37*
G36*
X376783500Y-272757000D02*
G01*
X376777500Y-274257000D01*
X375277500Y-274251000D01*
X375283500Y-272751000D01*
X376783500Y-272757000D01*
G37*
G36*
X368224500Y-272790000D02*
G01*
X368222500Y-274290000D01*
X366722500Y-274288000D01*
X366724500Y-272788000D01*
X368224500Y-272790000D01*
G37*
G36*
X385286500Y-274288000D02*
G01*
X383786500Y-274290000D01*
X383783500Y-272790000D01*
X385283500Y-272788000D01*
X385286500Y-274288000D01*
G37*
G36*
X381626500Y-274257000D02*
G01*
X380126500Y-274257000D01*
X380126500Y-272757000D01*
X381626500Y-272757000D01*
X381626500Y-274257000D01*
G37*
G36*
X381833500Y-279557000D02*
G01*
X381824500Y-281057000D01*
X380324500Y-281049000D01*
X380333500Y-279549000D01*
X381833500Y-279557000D01*
G37*
G36*
X371630500Y-281031000D02*
G01*
X370130500Y-281033000D01*
X370128500Y-279533000D01*
X371628500Y-279531000D01*
X371630500Y-281031000D01*
G37*
G36*
X371881500Y-274257000D02*
G01*
X370381500Y-274257000D01*
X370381500Y-272757000D01*
X371881500Y-272757000D01*
X371881500Y-274257000D01*
G37*
G36*
X371619500Y-267530000D02*
G01*
X370119500Y-267530000D01*
X370119500Y-266030000D01*
X371619500Y-266030000D01*
X371619500Y-267530000D01*
G37*
G36*
X381898500Y-266055000D02*
G01*
X381891500Y-267555000D01*
X380391500Y-267548000D01*
X380398500Y-266048000D01*
X381898500Y-266055000D01*
G37*
G36*
X463662500Y-290884000D02*
G01*
X462191500Y-291181000D01*
X461894500Y-289711000D01*
X463364500Y-289414000D01*
X463662500Y-290884000D01*
G37*
G36*
X450721500Y-290028000D02*
G01*
X450714500Y-291528000D01*
X449214500Y-291521000D01*
X449221500Y-290021000D01*
X450721500Y-290028000D01*
G37*
G36*
X457282500Y-290509000D02*
G01*
X457276500Y-292009000D01*
X455776500Y-292003000D01*
X455782500Y-290503000D01*
X457282500Y-290509000D01*
G37*
G36*
X450905500Y-302344000D02*
G01*
X449405500Y-302344000D01*
X449405500Y-300844000D01*
X450905500Y-300844000D01*
X450905500Y-302344000D01*
G37*
G36*
X457165500Y-301709000D02*
G01*
X455665500Y-301709000D01*
X455665500Y-300209000D01*
X457165500Y-300209000D01*
X457165500Y-301709000D01*
G37*
G36*
X463776500Y-302338000D02*
G01*
X462276500Y-302341000D01*
X462274500Y-300841000D01*
X463774500Y-300838000D01*
X463776500Y-302338000D01*
G37*
G36*
X294580500Y-379295000D02*
G01*
X294572500Y-380795000D01*
X293072500Y-380787000D01*
X293080500Y-379287000D01*
X294580500Y-379295000D01*
G37*
G36*
X284377500Y-380769000D02*
G01*
X282877500Y-380771000D01*
X282875500Y-379271000D01*
X284375500Y-379269000D01*
X284377500Y-380769000D01*
G37*
G36*
X284638500Y-374135000D02*
G01*
X283138500Y-374135000D01*
X283138500Y-372635000D01*
X284638500Y-372635000D01*
X284638500Y-374135000D01*
G37*
G36*
X284366500Y-367308000D02*
G01*
X282866500Y-367308000D01*
X282866500Y-365808000D01*
X284366500Y-365808000D01*
X284366500Y-367308000D01*
G37*
G36*
X312408500Y-460810000D02*
G01*
X310908500Y-460810000D01*
X310908500Y-459310000D01*
X312408500Y-459310000D01*
X312408500Y-460810000D01*
G37*
G36*
X312680500Y-467637000D02*
G01*
X311180500Y-467637000D01*
X311180500Y-466137000D01*
X312680500Y-466137000D01*
X312680500Y-467637000D01*
G37*
G36*
X312506500Y-473065000D02*
G01*
X311749500Y-474360000D01*
X310454500Y-473603000D01*
X311211500Y-472308000D01*
X312506500Y-473065000D01*
G37*
G36*
X322622500Y-472797000D02*
G01*
X322613500Y-474297000D01*
X321113500Y-474289000D01*
X321122500Y-472789000D01*
X322622500Y-472797000D01*
G37*
G36*
X322386500Y-466160000D02*
G01*
X322380500Y-467660000D01*
X320880500Y-467654000D01*
X320886500Y-466154000D01*
X322386500Y-466160000D01*
G37*
G36*
X322687500Y-459334000D02*
G01*
X322680500Y-460834000D01*
X321180500Y-460828000D01*
X321187500Y-459328000D01*
X322687500Y-459334000D01*
G37*
G36*
X218944500Y-263662000D02*
G01*
X217444500Y-263662000D01*
X217444500Y-262162000D01*
X218944500Y-262162000D01*
X218944500Y-263662000D01*
G37*
G36*
X219216500Y-270489000D02*
G01*
X217716500Y-270489000D01*
X217716500Y-268989000D01*
X219216500Y-268989000D01*
X219216500Y-270489000D01*
G37*
G36*
X218955500Y-277122000D02*
G01*
X217455500Y-277125000D01*
X217453500Y-275625000D01*
X218953500Y-275622000D01*
X218955500Y-277122000D01*
G37*
G36*
X229158500Y-275649000D02*
G01*
X229149500Y-277149000D01*
X227649500Y-277140000D01*
X227658500Y-275640000D01*
X229158500Y-275649000D01*
G37*
G36*
X228922500Y-269012000D02*
G01*
X228916500Y-270512000D01*
X227416500Y-270506000D01*
X227422500Y-269006000D01*
X228922500Y-269012000D01*
G37*
G36*
X229520500Y-262233000D02*
G01*
X229298500Y-263717000D01*
X227814500Y-263495000D01*
X228036500Y-262011000D01*
X229520500Y-262233000D01*
G37*
G36*
X385823500Y-174378000D02*
G01*
X384776500Y-175453000D01*
X383702500Y-174407000D01*
X384748500Y-173332000D01*
X385823500Y-174378000D01*
G37*
G36*
X390610500Y-169860000D02*
G01*
X389579500Y-170950000D01*
X388489500Y-169919000D01*
X389520500Y-168829000D01*
X390610500Y-169860000D01*
G37*
G36*
X393200500Y-181527000D02*
G01*
X392158500Y-182606000D01*
X391079500Y-181564000D01*
X392121500Y-180485000D01*
X393200500Y-181527000D01*
G37*
G36*
X397708500Y-176571000D02*
G01*
X396666500Y-177650000D01*
X395587500Y-176608000D01*
X396629500Y-175529000D01*
X397708500Y-176571000D01*
G37*
G36*
X402544500Y-171835000D02*
G01*
X401503500Y-172916000D01*
X400423500Y-171875000D01*
X401463500Y-170795000D01*
X402544500Y-171835000D01*
G37*
G36*
X400295500Y-179052000D02*
G01*
X399249500Y-180126000D01*
X398174500Y-179080000D01*
X399220500Y-178005000D01*
X400295500Y-179052000D01*
G37*
G36*
X394179500Y-173125000D02*
G01*
X393133500Y-174200000D01*
X392058500Y-173154000D01*
X393104500Y-172079000D01*
X394179500Y-173125000D01*
G37*
G36*
X387959500Y-167284000D02*
G01*
X386912500Y-168359000D01*
X385837500Y-167313000D01*
X386884500Y-166238000D01*
X387959500Y-167284000D01*
G37*
G36*
X322967500Y-505794000D02*
G01*
X321467500Y-505794000D01*
X321467500Y-504294000D01*
X322967500Y-504294000D01*
X322967500Y-505794000D01*
G37*
G36*
X220044500Y-515281000D02*
G01*
X218544500Y-515281000D01*
X218544500Y-513781000D01*
X220044500Y-513781000D01*
X220044500Y-515281000D01*
G37*
G36*
X104425100Y-292259000D02*
G01*
X102925100Y-292259000D01*
X102925100Y-290759000D01*
X104425100Y-290759000D01*
X104425100Y-292259000D01*
G37*
G36*
X179007500Y-292250000D02*
G01*
X177507300Y-292250000D01*
X177507300Y-290750000D01*
X179007500Y-290750000D01*
X179007500Y-292250000D01*
G37*
G36*
X193925500Y-292248000D02*
G01*
X192425500Y-292248000D01*
X192425500Y-290748000D01*
X193925500Y-290748000D01*
X193925500Y-292248000D01*
G37*
G36*
X498316500Y-264065000D02*
G01*
X497250500Y-265120000D01*
X496195500Y-264054000D01*
X497261500Y-262999000D01*
X498316500Y-264065000D01*
G37*
G36*
X257726500Y-183679000D02*
G01*
X256226500Y-183679000D01*
X256226500Y-182179000D01*
X257726500Y-182179000D01*
X257726500Y-183679000D01*
G37*
G36*
X397092500Y-274420000D02*
G01*
X395592500Y-274420000D01*
X395592500Y-272920000D01*
X397092500Y-272920000D01*
X397092500Y-274420000D01*
G37*
G36*
X450551500Y-125839400D02*
G01*
X449483500Y-126892800D01*
X448430500Y-125824900D01*
X449497500Y-124771500D01*
X450551500Y-125839400D01*
G37*
G36*
X438615500Y-137613000D02*
G01*
X437547500Y-138666000D01*
X436493500Y-137598000D01*
X437561500Y-136545000D01*
X438615500Y-137613000D01*
G37*
G36*
X425915500Y-150140000D02*
G01*
X424847500Y-151193000D01*
X423793500Y-150125000D01*
X424861500Y-149072000D01*
X425915500Y-150140000D01*
G37*
G36*
X398126500Y-355138000D02*
G01*
X396626500Y-355138000D01*
X396626500Y-353638000D01*
X398126500Y-353638000D01*
X398126500Y-355138000D01*
G37*
G36*
X410924500Y-355134000D02*
G01*
X409424500Y-355134000D01*
X409424500Y-353634000D01*
X410924500Y-353634000D01*
X410924500Y-355134000D01*
G37*
G36*
X434381500Y-364109000D02*
G01*
X433308500Y-365157000D01*
X432260500Y-364084000D01*
X433333500Y-363036000D01*
X434381500Y-364109000D01*
G37*
G36*
X443032500Y-372966000D02*
G01*
X441959500Y-374014000D01*
X440911500Y-372941000D01*
X441984500Y-371893000D01*
X443032500Y-372966000D01*
G37*
G36*
X461497500Y-386950000D02*
G01*
X461421500Y-388448000D01*
X459923500Y-388372000D01*
X459999500Y-386874000D01*
X461497500Y-386950000D01*
G37*
G36*
X478259500Y-387820000D02*
G01*
X478149500Y-389316000D01*
X476653500Y-389205000D01*
X476763500Y-387709000D01*
X478259500Y-387820000D01*
G37*
G36*
X492473500Y-397219000D02*
G01*
X491505500Y-398365000D01*
X490359500Y-397396000D01*
X491328500Y-396251000D01*
X492473500Y-397219000D01*
G37*
G36*
X506598500Y-409161000D02*
G01*
X505629500Y-410307000D01*
X504484500Y-409338000D01*
X505452500Y-408193000D01*
X506598500Y-409161000D01*
G37*
G36*
X496174500Y-302340000D02*
G01*
X494674500Y-302340000D01*
X494674500Y-300840000D01*
X496174500Y-300840000D01*
X496174500Y-302340000D01*
G37*
G36*
X498417500Y-302340000D02*
G01*
X496917500Y-302340000D01*
X496917500Y-300840000D01*
X498417500Y-300840000D01*
X498417500Y-302340000D01*
G37*
G36*
X500660500Y-302340000D02*
G01*
X499160500Y-302340000D01*
X499160500Y-300840000D01*
X500660500Y-300840000D01*
X500660500Y-302340000D01*
G37*
G36*
X502903500Y-302340000D02*
G01*
X501403500Y-302340000D01*
X501403500Y-300840000D01*
X502903500Y-300840000D01*
X502903500Y-302340000D01*
G37*
G36*
X505146500Y-302340000D02*
G01*
X503646500Y-302340000D01*
X503646500Y-300840000D01*
X505146500Y-300840000D01*
X505146500Y-302340000D01*
G37*
G36*
X507389500Y-302340000D02*
G01*
X505889500Y-302340000D01*
X505889500Y-300840000D01*
X507389500Y-300840000D01*
X507389500Y-302340000D01*
G37*
G36*
X509632500Y-302340000D02*
G01*
X508132500Y-302340000D01*
X508132500Y-300840000D01*
X509632500Y-300840000D01*
X509632500Y-302340000D01*
G37*
G36*
X511875500Y-302340000D02*
G01*
X510375500Y-302340000D01*
X510375500Y-300840000D01*
X511875500Y-300840000D01*
X511875500Y-302340000D01*
G37*
G36*
X517858500Y-302340000D02*
G01*
X516358500Y-302340000D01*
X516358500Y-300840000D01*
X517858500Y-300840000D01*
X517858500Y-302340000D01*
G37*
G36*
X519898500Y-302340000D02*
G01*
X518398500Y-302340000D01*
X518398500Y-300840000D01*
X519898500Y-300840000D01*
X519898500Y-302340000D01*
G37*
G36*
X521938500Y-302340000D02*
G01*
X520438500Y-302340000D01*
X520438500Y-300840000D01*
X521938500Y-300840000D01*
X521938500Y-302340000D01*
G37*
G36*
X523978500Y-302340000D02*
G01*
X522478500Y-302340000D01*
X522478500Y-300840000D01*
X523978500Y-300840000D01*
X523978500Y-302340000D01*
G37*
G36*
X526018500Y-302340000D02*
G01*
X524518500Y-302340000D01*
X524518500Y-300840000D01*
X526018500Y-300840000D01*
X526018500Y-302340000D01*
G37*
G36*
X531961500Y-302340000D02*
G01*
X530461500Y-302340000D01*
X530461500Y-300840000D01*
X531961500Y-300840000D01*
X531961500Y-302340000D01*
G37*
G36*
X534009500Y-302340000D02*
G01*
X532509500Y-302340000D01*
X532509500Y-300840000D01*
X534009500Y-300840000D01*
X534009500Y-302340000D01*
G37*
G36*
X536057500Y-302340000D02*
G01*
X534557500Y-302340000D01*
X534557500Y-300840000D01*
X536057500Y-300840000D01*
X536057500Y-302340000D01*
G37*
G36*
X538105500Y-302340000D02*
G01*
X536605500Y-302340000D01*
X536605500Y-300840000D01*
X538105500Y-300840000D01*
X538105500Y-302340000D01*
G37*
G36*
X540153500Y-302340000D02*
G01*
X538653500Y-302340000D01*
X538653500Y-300840000D01*
X540153500Y-300840000D01*
X540153500Y-302340000D01*
G37*
G36*
X546096500Y-302340000D02*
G01*
X544596500Y-302340000D01*
X544596500Y-300840000D01*
X546096500Y-300840000D01*
X546096500Y-302340000D01*
G37*
G36*
X548274500Y-302340000D02*
G01*
X546774500Y-302340000D01*
X546774500Y-300840000D01*
X548274500Y-300840000D01*
X548274500Y-302340000D01*
G37*
G36*
X550452500Y-302340000D02*
G01*
X548952500Y-302340000D01*
X548952500Y-300840000D01*
X550452500Y-300840000D01*
X550452500Y-302340000D01*
G37*
G36*
X552630500Y-302340000D02*
G01*
X551130500Y-302340000D01*
X551130500Y-300840000D01*
X552630500Y-300840000D01*
X552630500Y-302340000D01*
G37*
G36*
X554808500Y-302340000D02*
G01*
X553308500Y-302340000D01*
X553308500Y-300840000D01*
X554808500Y-300840000D01*
X554808500Y-302340000D01*
G37*
G36*
X556986500Y-302340000D02*
G01*
X555486500Y-302340000D01*
X555486500Y-300840000D01*
X556986500Y-300840000D01*
X556986500Y-302340000D01*
G37*
G36*
X524622500Y-238029000D02*
G01*
X523556500Y-239084000D01*
X522501500Y-238018000D01*
X523567500Y-236963000D01*
X524622500Y-238029000D01*
G37*
G36*
X289339500Y-256338000D02*
G01*
X287839500Y-256338000D01*
X287839500Y-254838000D01*
X289339500Y-254838000D01*
X289339500Y-256338000D01*
G37*
G36*
X291695500Y-256338000D02*
G01*
X290195500Y-256338000D01*
X290195500Y-254838000D01*
X291695500Y-254838000D01*
X291695500Y-256338000D01*
G37*
G36*
X294051500Y-256338000D02*
G01*
X292551500Y-256338000D01*
X292551500Y-254838000D01*
X294051500Y-254838000D01*
X294051500Y-256338000D01*
G37*
G36*
X296407500Y-256338000D02*
G01*
X294907500Y-256338000D01*
X294907500Y-254838000D01*
X296407500Y-254838000D01*
X296407500Y-256338000D01*
G37*
G36*
X298763500Y-256338000D02*
G01*
X297263500Y-256338000D01*
X297263500Y-254838000D01*
X298763500Y-254838000D01*
X298763500Y-256338000D01*
G37*
G36*
X301119500Y-256338000D02*
G01*
X299619500Y-256338000D01*
X299619500Y-254838000D01*
X301119500Y-254838000D01*
X301119500Y-256338000D01*
G37*
G36*
X303475500Y-256338000D02*
G01*
X301975500Y-256338000D01*
X301975500Y-254838000D01*
X303475500Y-254838000D01*
X303475500Y-256338000D01*
G37*
G36*
X305831500Y-256338000D02*
G01*
X304331500Y-256338000D01*
X304331500Y-254838000D01*
X305831500Y-254838000D01*
X305831500Y-256338000D01*
G37*
G36*
X308187500Y-256338000D02*
G01*
X306687500Y-256338000D01*
X306687500Y-254838000D01*
X308187500Y-254838000D01*
X308187500Y-256338000D01*
G37*
G36*
X323484500Y-256338000D02*
G01*
X321984500Y-256338000D01*
X321984500Y-254838000D01*
X323484500Y-254838000D01*
X323484500Y-256338000D01*
G37*
G36*
X326218500Y-255179000D02*
G01*
X325944500Y-256653000D01*
X324469500Y-256380000D01*
X324743500Y-254905000D01*
X326218500Y-255179000D01*
G37*
G36*
X328786500Y-256143000D02*
G01*
X328187500Y-257518000D01*
X326811500Y-256919000D01*
X327411500Y-255544000D01*
X328786500Y-256143000D01*
G37*
G36*
X331070500Y-257659000D02*
G01*
X330178500Y-258865000D01*
X328972500Y-257973000D01*
X329865500Y-256767000D01*
X331070500Y-257659000D01*
G37*
G36*
X332959500Y-259646000D02*
G01*
X331820500Y-260623000D01*
X330843500Y-259484000D01*
X331982500Y-258508000D01*
X332959500Y-259646000D01*
G37*
G36*
X334356500Y-262005000D02*
G01*
X333028500Y-262702000D01*
X332330500Y-261374000D01*
X333658500Y-260677000D01*
X334356500Y-262005000D01*
G37*
G36*
X335187500Y-264619000D02*
G01*
X333735500Y-264999000D01*
X333356500Y-263548000D01*
X334807500Y-263168000D01*
X335187500Y-264619000D01*
G37*
G36*
X335392500Y-283938000D02*
G01*
X333891500Y-283938000D01*
X333891500Y-282438000D01*
X335392500Y-282438000D01*
X335392500Y-283938000D01*
G37*
G36*
X335392500Y-286361000D02*
G01*
X333891500Y-286361000D01*
X333891500Y-284861000D01*
X335392500Y-284861000D01*
X335392500Y-286361000D01*
G37*
G36*
X335392500Y-288784000D02*
G01*
X333891500Y-288784000D01*
X333891500Y-287284000D01*
X335392500Y-287284000D01*
X335392500Y-288784000D01*
G37*
G36*
X335392500Y-291054000D02*
G01*
X333891500Y-291054000D01*
X333891500Y-289554000D01*
X335392500Y-289554000D01*
X335392500Y-291054000D01*
G37*
G36*
X335392500Y-293342000D02*
G01*
X333891500Y-293342000D01*
X333891500Y-291842000D01*
X335392500Y-291842000D01*
X335392500Y-293342000D01*
G37*
G36*
X335392500Y-295630000D02*
G01*
X333891500Y-295630000D01*
X333891500Y-294130000D01*
X335392500Y-294130000D01*
X335392500Y-295630000D01*
G37*
G36*
X335392500Y-297918000D02*
G01*
X333891500Y-297918000D01*
X333891500Y-296418000D01*
X335392500Y-296418000D01*
X335392500Y-297918000D01*
G37*
G36*
X335392500Y-300206000D02*
G01*
X333891500Y-300206000D01*
X333891500Y-298706000D01*
X335392500Y-298706000D01*
X335392500Y-300206000D01*
G37*
G36*
X335392500Y-302494000D02*
G01*
X333891500Y-302494000D01*
X333891500Y-300994000D01*
X335392500Y-300994000D01*
X335392500Y-302494000D01*
G37*
G36*
X335555500Y-304612000D02*
G01*
X334063500Y-304762000D01*
X333912500Y-303270000D01*
X335404500Y-303119000D01*
X335555500Y-304612000D01*
G37*
G36*
X336012500Y-306776000D02*
G01*
X334551500Y-307117000D01*
X334211500Y-305656000D01*
X335672500Y-305315000D01*
X336012500Y-306776000D01*
G37*
G36*
X336744500Y-308864000D02*
G01*
X335339500Y-309389000D01*
X334813500Y-307984000D01*
X336218500Y-307459000D01*
X336744500Y-308864000D01*
G37*
G36*
X337737500Y-310840000D02*
G01*
X336411500Y-311541000D01*
X335710500Y-310215000D01*
X337036500Y-309514000D01*
X337737500Y-310840000D01*
G37*
G36*
X338975500Y-312674000D02*
G01*
X337750500Y-313539000D01*
X336885500Y-312313000D01*
X338111500Y-311448000D01*
X338975500Y-312674000D01*
G37*
G36*
X340437500Y-314336000D02*
G01*
X339331500Y-315349000D01*
X338317500Y-314243000D01*
X339423500Y-313230000D01*
X340437500Y-314336000D01*
G37*
G36*
X342097500Y-315799000D02*
G01*
X341129500Y-316945000D01*
X339983500Y-315976000D01*
X340952500Y-314831000D01*
X342097500Y-315799000D01*
G37*
G36*
X343930500Y-317039000D02*
G01*
X343115500Y-318299000D01*
X341855500Y-317484000D01*
X342670500Y-316224000D01*
X343930500Y-317039000D01*
G37*
G36*
X345905500Y-318035000D02*
G01*
X345258500Y-319388000D01*
X343905500Y-318741000D01*
X344552500Y-317388000D01*
X345905500Y-318035000D01*
G37*
G36*
X347992500Y-318769000D02*
G01*
X347524500Y-320194000D01*
X346099500Y-319726000D01*
X346567500Y-318301000D01*
X347992500Y-318769000D01*
G37*
G36*
X350156500Y-319229000D02*
G01*
X349875500Y-320702000D01*
X348401500Y-320421000D01*
X348682500Y-318948000D01*
X350156500Y-319229000D01*
G37*
G36*
X352361500Y-319408000D02*
G01*
X352270500Y-320905000D01*
X350773500Y-320814000D01*
X350864500Y-319317000D01*
X352361500Y-319408000D01*
G37*
G36*
X354624500Y-320895000D02*
G01*
X353124500Y-320895000D01*
X353124500Y-319395000D01*
X354624500Y-319395000D01*
X354624500Y-320895000D01*
G37*
G36*
X356932500Y-320895000D02*
G01*
X355432500Y-320895000D01*
X355432500Y-319395000D01*
X356932500Y-319395000D01*
X356932500Y-320895000D01*
G37*
G36*
X359240500Y-320895000D02*
G01*
X357740500Y-320895000D01*
X357740500Y-319395000D01*
X359240500Y-319395000D01*
X359240500Y-320895000D01*
G37*
G36*
X361548500Y-320895000D02*
G01*
X360049500Y-320895000D01*
X360049500Y-319395000D01*
X361548500Y-319395000D01*
X361548500Y-320895000D01*
G37*
G36*
X363857500Y-320895000D02*
G01*
X362356500Y-320895000D01*
X362356500Y-319395000D01*
X363857500Y-319395000D01*
X363857500Y-320895000D01*
G37*
G36*
X389365500Y-320883000D02*
G01*
X387865500Y-320883000D01*
X387865500Y-319383000D01*
X389365500Y-319383000D01*
X389365500Y-320883000D01*
G37*
G36*
X391770500Y-320883000D02*
G01*
X390270500Y-320883000D01*
X390270500Y-319383000D01*
X391770500Y-319383000D01*
X391770500Y-320883000D01*
G37*
G36*
X394175500Y-320883000D02*
G01*
X392675500Y-320883000D01*
X392675500Y-319383000D01*
X394175500Y-319383000D01*
X394175500Y-320883000D01*
G37*
G36*
X396580500Y-320883000D02*
G01*
X395080500Y-320883000D01*
X395080500Y-319383000D01*
X396580500Y-319383000D01*
X396580500Y-320883000D01*
G37*
G36*
X398905500Y-320883000D02*
G01*
X397405500Y-320883000D01*
X397405500Y-319383000D01*
X398905500Y-319383000D01*
X398905500Y-320883000D01*
G37*
G36*
X401290500Y-320883000D02*
G01*
X399790500Y-320883000D01*
X399790500Y-319383000D01*
X401290500Y-319383000D01*
X401290500Y-320883000D01*
G37*
G36*
X403675500Y-320883000D02*
G01*
X402175500Y-320883000D01*
X402175500Y-319383000D01*
X403675500Y-319383000D01*
X403675500Y-320883000D01*
G37*
G36*
X406060500Y-320883000D02*
G01*
X404560500Y-320883000D01*
X404560500Y-319383000D01*
X406060500Y-319383000D01*
X406060500Y-320883000D01*
G37*
G36*
X408445500Y-320883000D02*
G01*
X406945500Y-320883000D01*
X406945500Y-319383000D01*
X408445500Y-319383000D01*
X408445500Y-320883000D01*
G37*
G36*
X410830500Y-320883000D02*
G01*
X409330500Y-320883000D01*
X409330500Y-319383000D01*
X410830500Y-319383000D01*
X410830500Y-320883000D01*
G37*
G36*
X413124500Y-320883000D02*
G01*
X411624500Y-320883000D01*
X411624500Y-319383000D01*
X413124500Y-319383000D01*
X413124500Y-320883000D01*
G37*
G36*
X415357500Y-320883000D02*
G01*
X413857500Y-320883000D01*
X413857500Y-319383000D01*
X415357500Y-319383000D01*
X415357500Y-320883000D01*
G37*
G36*
X417656500Y-320716000D02*
G01*
X416163500Y-320861000D01*
X416018500Y-319368000D01*
X417511500Y-319223000D01*
X417656500Y-320716000D01*
G37*
G36*
X419933500Y-320275000D02*
G01*
X418467500Y-320590000D01*
X418152500Y-319123000D01*
X419618500Y-318808000D01*
X419933500Y-320275000D01*
G37*
G36*
X422145500Y-319576000D02*
G01*
X420724500Y-320057000D01*
X420243500Y-318636000D01*
X421664500Y-318155000D01*
X422145500Y-319576000D01*
G37*
G36*
X424262500Y-318629000D02*
G01*
X422905500Y-319269000D01*
X422265500Y-317913000D01*
X423622500Y-317272000D01*
X424262500Y-318629000D01*
G37*
G36*
X426257500Y-317446000D02*
G01*
X424982500Y-318237000D01*
X424191500Y-316963000D01*
X425466500Y-316171000D01*
X426257500Y-317446000D01*
G37*
G36*
X428103500Y-316042000D02*
G01*
X426928500Y-316974000D01*
X425996500Y-315799000D01*
X427171500Y-314867000D01*
X428103500Y-316042000D01*
G37*
G36*
X429777500Y-314436000D02*
G01*
X428716500Y-315497000D01*
X427655500Y-314435000D01*
X428716500Y-313375000D01*
X429777500Y-314436000D01*
G37*
G36*
X431173500Y-312993000D02*
G01*
X430126500Y-314067000D01*
X429052500Y-313020000D01*
X430100500Y-311946000D01*
X431173500Y-312993000D01*
G37*
G36*
X432801500Y-311325000D02*
G01*
X431754500Y-312398000D01*
X430680500Y-311351000D01*
X431727500Y-310277000D01*
X432801500Y-311325000D01*
G37*
G36*
X434429500Y-309656000D02*
G01*
X433381500Y-310730000D01*
X432308500Y-309682000D01*
X433355500Y-308609000D01*
X434429500Y-309656000D01*
G37*
G36*
X436056500Y-307987000D02*
G01*
X435009500Y-309061000D01*
X433935500Y-308014000D01*
X434983500Y-306940000D01*
X436056500Y-307987000D01*
G37*
G36*
X437684500Y-306319000D02*
G01*
X436637500Y-307393000D01*
X435563500Y-306345000D01*
X436610500Y-305271000D01*
X437684500Y-306319000D01*
G37*
G36*
X439394500Y-304891000D02*
G01*
X438211500Y-305813000D01*
X437289500Y-304629000D01*
X438473500Y-303708000D01*
X439394500Y-304891000D01*
G37*
G36*
X441285500Y-303777000D02*
G01*
X439975500Y-304507000D01*
X439245500Y-303196000D01*
X440556500Y-302467000D01*
X441285500Y-303777000D01*
G37*
G36*
X443397500Y-302944000D02*
G01*
X441988500Y-303457000D01*
X441475500Y-302047000D01*
X442884500Y-301534000D01*
X443397500Y-302944000D01*
G37*
G36*
X445614500Y-302455000D02*
G01*
X444141500Y-302738000D01*
X443858500Y-301265000D01*
X445331500Y-300982000D01*
X445614500Y-302455000D01*
G37*
G36*
X447881500Y-302323000D02*
G01*
X446382500Y-302370000D01*
X446335500Y-300870000D01*
X447835500Y-300824000D01*
X447881500Y-302323000D01*
G37*
G36*
X467003500Y-302340000D02*
G01*
X465503500Y-302340000D01*
X465503500Y-300840000D01*
X467003500Y-300840000D01*
X467003500Y-302340000D01*
G37*
G36*
X469352500Y-302340000D02*
G01*
X467852500Y-302340000D01*
X467852500Y-300840000D01*
X469352500Y-300840000D01*
X469352500Y-302340000D01*
G37*
G36*
X471701500Y-302340000D02*
G01*
X470201500Y-302340000D01*
X470201500Y-300840000D01*
X471701500Y-300840000D01*
X471701500Y-302340000D01*
G37*
G36*
X474050500Y-302340000D02*
G01*
X472550500Y-302340000D01*
X472550500Y-300840000D01*
X474050500Y-300840000D01*
X474050500Y-302340000D01*
G37*
G36*
X476399500Y-302340000D02*
G01*
X474899500Y-302340000D01*
X474899500Y-300840000D01*
X476399500Y-300840000D01*
X476399500Y-302340000D01*
G37*
G36*
X478748500Y-302340000D02*
G01*
X477248500Y-302340000D01*
X477248500Y-300840000D01*
X478748500Y-300840000D01*
X478748500Y-302340000D01*
G37*
G36*
X481097500Y-302340000D02*
G01*
X479597500Y-302340000D01*
X479597500Y-300840000D01*
X481097500Y-300840000D01*
X481097500Y-302340000D01*
G37*
G36*
X483446500Y-302340000D02*
G01*
X481946500Y-302340000D01*
X481946500Y-300840000D01*
X483446500Y-300840000D01*
X483446500Y-302340000D01*
G37*
G36*
X485795500Y-302340000D02*
G01*
X484295500Y-302340000D01*
X484295500Y-300840000D01*
X485795500Y-300840000D01*
X485795500Y-302340000D01*
G37*
G36*
X491688500Y-302340000D02*
G01*
X490188500Y-302340000D01*
X490188500Y-300840000D01*
X491688500Y-300840000D01*
X491688500Y-302340000D01*
G37*
G36*
X493931500Y-302340000D02*
G01*
X492431500Y-302340000D01*
X492431500Y-300840000D01*
X493931500Y-300840000D01*
X493931500Y-302340000D01*
G37*
G36*
X306099500Y-213511000D02*
G01*
X305038500Y-214571000D01*
X303978500Y-213510000D01*
X305039500Y-212450000D01*
X306099500Y-213511000D01*
G37*
G36*
X496113500Y-266246000D02*
G01*
X495047500Y-267301000D01*
X493992500Y-266235000D01*
X495058500Y-265180000D01*
X496113500Y-266246000D01*
G37*
G36*
X500326500Y-262080000D02*
G01*
X499260500Y-263135000D01*
X498204500Y-262069000D01*
X499270500Y-261014000D01*
X500326500Y-262080000D01*
G37*
G36*
X501886500Y-260535000D02*
G01*
X500820500Y-261591000D01*
X499764500Y-260525000D01*
X500830500Y-259469000D01*
X501886500Y-260535000D01*
G37*
G36*
X503445500Y-258991000D02*
G01*
X502379500Y-260046000D01*
X501324500Y-258980000D01*
X502390500Y-257925000D01*
X503445500Y-258991000D01*
G37*
G36*
X505005500Y-257447000D02*
G01*
X503939500Y-258502000D01*
X502884500Y-257436000D01*
X503950500Y-256381000D01*
X505005500Y-257447000D01*
G37*
G36*
X506565500Y-255902000D02*
G01*
X505499500Y-256958000D01*
X504444500Y-255892000D01*
X505510500Y-254836000D01*
X506565500Y-255902000D01*
G37*
G36*
X508125500Y-254358000D02*
G01*
X507059500Y-255413000D01*
X506003500Y-254347000D01*
X507069500Y-253292000D01*
X508125500Y-254358000D01*
G37*
G36*
X509685500Y-252813000D02*
G01*
X508619500Y-253869000D01*
X507563500Y-252803000D01*
X508629500Y-251748000D01*
X509685500Y-252813000D01*
G37*
G36*
X513844500Y-248696000D02*
G01*
X512778500Y-249751000D01*
X511723500Y-248685000D01*
X512789500Y-247630000D01*
X513844500Y-248696000D01*
G37*
G36*
X515294500Y-247261000D02*
G01*
X514228500Y-248316000D01*
X513173500Y-247250000D01*
X514239500Y-246195000D01*
X515294500Y-247261000D01*
G37*
G36*
X516744500Y-245826000D02*
G01*
X515678500Y-246881000D01*
X514623500Y-245815000D01*
X515689500Y-244760000D01*
X516744500Y-245826000D01*
G37*
G36*
X518194500Y-244391000D02*
G01*
X517128500Y-245446000D01*
X516073500Y-244380000D01*
X517139500Y-243325000D01*
X518194500Y-244391000D01*
G37*
G36*
X519644500Y-242956000D02*
G01*
X518578500Y-244011000D01*
X517523500Y-242945000D01*
X518589500Y-241890000D01*
X519644500Y-242956000D01*
G37*
G36*
X521094500Y-241521000D02*
G01*
X520028500Y-242576000D01*
X518973500Y-241510000D01*
X520039500Y-240455000D01*
X521094500Y-241521000D01*
G37*
G36*
X522544500Y-240086000D02*
G01*
X521478500Y-241141000D01*
X520423500Y-240075000D01*
X521489500Y-239020000D01*
X522544500Y-240086000D01*
G37*
G36*
X526759500Y-235915000D02*
G01*
X525693500Y-236970000D01*
X524637500Y-235904000D01*
X525704500Y-234849000D01*
X526759500Y-235915000D01*
G37*
G36*
X528187500Y-234501000D02*
G01*
X527121500Y-235556000D01*
X526066500Y-234490000D01*
X527132500Y-233435000D01*
X528187500Y-234501000D01*
G37*
G36*
X529616500Y-233087000D02*
G01*
X528550500Y-234142000D01*
X527495500Y-233076000D01*
X528561500Y-232021000D01*
X529616500Y-233087000D01*
G37*
G36*
X531045500Y-231673000D02*
G01*
X529978500Y-232728000D01*
X528923500Y-231662000D01*
X529989500Y-230607000D01*
X531045500Y-231673000D01*
G37*
G36*
X532473500Y-230259000D02*
G01*
X531407500Y-231314000D01*
X530352500Y-230248000D01*
X531418500Y-229193000D01*
X532473500Y-230259000D01*
G37*
G36*
X533902500Y-228845000D02*
G01*
X532836500Y-229900000D01*
X531780500Y-228834000D01*
X532847500Y-227779000D01*
X533902500Y-228845000D01*
G37*
G36*
X535330500Y-227431000D02*
G01*
X534264500Y-228486000D01*
X533209500Y-227420000D01*
X534275500Y-226365000D01*
X535330500Y-227431000D01*
G37*
G36*
X511739500Y-250781000D02*
G01*
X510672500Y-251836000D01*
X509617500Y-250770000D01*
X510683500Y-249715000D01*
X511739500Y-250781000D01*
G37*
G36*
X514870500Y-302340000D02*
G01*
X513370500Y-302340000D01*
X513370500Y-300840000D01*
X514870500Y-300840000D01*
X514870500Y-302340000D01*
G37*
G36*
X528986500Y-302340000D02*
G01*
X527486500Y-302340000D01*
X527486500Y-300840000D01*
X528986500Y-300840000D01*
X528986500Y-302340000D01*
G37*
G36*
X543144500Y-302340000D02*
G01*
X541644500Y-302340000D01*
X541644500Y-300840000D01*
X543144500Y-300840000D01*
X543144500Y-302340000D01*
G37*
G36*
X559918500Y-302339000D02*
G01*
X558418500Y-302339000D01*
X558418500Y-300839000D01*
X559918500Y-300839000D01*
X559918500Y-302339000D01*
G37*
G36*
X537394500Y-225389000D02*
G01*
X536328500Y-226444000D01*
X535272500Y-225378000D01*
X536338500Y-224323000D01*
X537394500Y-225389000D01*
G37*
G36*
X488722500Y-302340000D02*
G01*
X487222500Y-302340000D01*
X487222500Y-300840000D01*
X488722500Y-300840000D01*
X488722500Y-302340000D01*
G37*
G36*
X340795500Y-274255000D02*
G01*
X339295500Y-274255000D01*
X339295500Y-272755000D01*
X340795500Y-272755000D01*
X340795500Y-274255000D01*
G37*
G36*
X289278500Y-196681000D02*
G01*
X288217500Y-197742000D01*
X287157500Y-196681000D01*
X288217500Y-195620000D01*
X289278500Y-196681000D01*
G37*
G36*
X291098500Y-198502000D02*
G01*
X290037500Y-199563000D01*
X288977500Y-198502000D01*
X290038500Y-197442000D01*
X291098500Y-198502000D01*
G37*
G36*
X292919500Y-200324000D02*
G01*
X291858500Y-201384000D01*
X290797500Y-200323000D01*
X291858500Y-199263000D01*
X292919500Y-200324000D01*
G37*
G36*
X294739500Y-202145000D02*
G01*
X293678500Y-203205000D01*
X292618500Y-202145000D01*
X293679500Y-201084000D01*
X294739500Y-202145000D01*
G37*
G36*
X298928500Y-206336000D02*
G01*
X297867500Y-207397000D01*
X296807500Y-206336000D01*
X297868500Y-205275000D01*
X298928500Y-206336000D01*
G37*
G36*
X300622500Y-208031000D02*
G01*
X299561500Y-209091000D01*
X298501500Y-208030000D01*
X299561500Y-206970000D01*
X300622500Y-208031000D01*
G37*
G36*
X302316500Y-209725000D02*
G01*
X301255500Y-210786000D01*
X300194500Y-209725000D01*
X301255500Y-208665000D01*
X302316500Y-209725000D01*
G37*
G36*
X304010500Y-211420000D02*
G01*
X302949500Y-212481000D01*
X301888500Y-211420000D01*
X302949500Y-210359000D01*
X304010500Y-211420000D01*
G37*
G36*
X308184500Y-215596000D02*
G01*
X307123500Y-216657000D01*
X306062500Y-215596000D01*
X307123500Y-214535000D01*
X308184500Y-215596000D01*
G37*
G36*
X310102500Y-217516000D02*
G01*
X309041500Y-218576000D01*
X307981500Y-217515000D01*
X309042500Y-216455000D01*
X310102500Y-217516000D01*
G37*
G36*
X312021500Y-219436000D02*
G01*
X310960500Y-220496000D01*
X309900500Y-219435000D01*
X310960500Y-218375000D01*
X312021500Y-219436000D01*
G37*
G36*
X313800500Y-221646000D02*
G01*
X312574500Y-222511000D01*
X311709500Y-221285000D01*
X312935500Y-220420000D01*
X313800500Y-221646000D01*
G37*
G36*
X315616500Y-227720000D02*
G01*
X314125500Y-227878000D01*
X313967500Y-226386000D01*
X315459500Y-226228000D01*
X315616500Y-227720000D01*
G37*
G36*
X315594500Y-230042000D02*
G01*
X314094500Y-230042000D01*
X314094500Y-228542000D01*
X315594500Y-228542000D01*
X315594500Y-230042000D01*
G37*
G36*
X315594500Y-232283000D02*
G01*
X314094500Y-232283000D01*
X314094500Y-230783000D01*
X315594500Y-230783000D01*
X315594500Y-232283000D01*
G37*
G36*
X315594500Y-234524000D02*
G01*
X314094500Y-234524000D01*
X314094500Y-233024000D01*
X315594500Y-233024000D01*
X315594500Y-234524000D01*
G37*
G36*
X315594500Y-236765000D02*
G01*
X314094500Y-236765000D01*
X314094500Y-235265000D01*
X315594500Y-235265000D01*
X315594500Y-236765000D01*
G37*
G36*
X315594500Y-239006000D02*
G01*
X314094500Y-239006000D01*
X314094500Y-237506000D01*
X315594500Y-237506000D01*
X315594500Y-239006000D01*
G37*
G36*
X315594500Y-241247000D02*
G01*
X314094500Y-241247000D01*
X314094500Y-239748000D01*
X315594500Y-239748000D01*
X315594500Y-241247000D01*
G37*
G36*
X315594500Y-243489000D02*
G01*
X314094500Y-243489000D01*
X314094500Y-241989000D01*
X315594500Y-241989000D01*
X315594500Y-243489000D01*
G37*
G36*
X315594500Y-245730000D02*
G01*
X314094500Y-245730000D01*
X314094500Y-244230000D01*
X315594500Y-244230000D01*
X315594500Y-245730000D01*
G37*
G36*
X315594500Y-247971000D02*
G01*
X314094500Y-247971000D01*
X314094500Y-246471000D01*
X315594500Y-246471000D01*
X315594500Y-247971000D01*
G37*
G36*
X315594500Y-250212000D02*
G01*
X314094500Y-250212000D01*
X314094500Y-248712000D01*
X315594500Y-248712000D01*
X315594500Y-250212000D01*
G37*
G36*
X315594500Y-252453000D02*
G01*
X314094500Y-252453000D01*
X314094500Y-250953000D01*
X315594500Y-250953000D01*
X315594500Y-252453000D01*
G37*
G36*
X315594500Y-254694000D02*
G01*
X314094500Y-254694000D01*
X314094500Y-253194000D01*
X315594500Y-253194000D01*
X315594500Y-254694000D01*
G37*
G36*
X315594500Y-256935000D02*
G01*
X314094500Y-256935000D01*
X314094500Y-255435000D01*
X315594500Y-255435000D01*
X315594500Y-256935000D01*
G37*
G36*
X315594500Y-259176000D02*
G01*
X314094500Y-259176000D01*
X314094500Y-257676000D01*
X315594500Y-257676000D01*
X315594500Y-259176000D01*
G37*
G36*
X315594500Y-261417000D02*
G01*
X314094500Y-261417000D01*
X314094500Y-259917000D01*
X315594500Y-259917000D01*
X315594500Y-261417000D01*
G37*
G36*
X315594500Y-263658000D02*
G01*
X314094500Y-263658000D01*
X314094500Y-262158000D01*
X315594500Y-262158000D01*
X315594500Y-263658000D01*
G37*
G36*
X315594500Y-265899000D02*
G01*
X314094500Y-265899000D01*
X314094500Y-264399000D01*
X315594500Y-264399000D01*
X315594500Y-265899000D01*
G37*
G36*
X315594500Y-268140000D02*
G01*
X314094500Y-268140000D01*
X314094500Y-266640000D01*
X315594500Y-266640000D01*
X315594500Y-268140000D01*
G37*
G36*
X316121500Y-270061000D02*
G01*
X314702500Y-270548000D01*
X314216500Y-269129000D01*
X315635500Y-268642000D01*
X316121500Y-270061000D01*
G37*
G36*
X317327500Y-271620000D02*
G01*
X316182500Y-272589000D01*
X315213500Y-271444000D01*
X316358500Y-270475000D01*
X317327500Y-271620000D01*
G37*
G36*
X319014500Y-272639000D02*
G01*
X318297500Y-273957000D01*
X316980500Y-273240000D01*
X317697500Y-271922000D01*
X319014500Y-272639000D01*
G37*
G36*
X320955500Y-272972000D02*
G01*
X320768500Y-274460000D01*
X319280500Y-274273000D01*
X319467500Y-272785000D01*
X320955500Y-272972000D01*
G37*
G36*
X323107500Y-274420000D02*
G01*
X321607500Y-274420000D01*
X321607500Y-272920000D01*
X323107500Y-272920000D01*
X323107500Y-274420000D01*
G37*
G36*
X325348500Y-274420000D02*
G01*
X323848500Y-274420000D01*
X323848500Y-272920000D01*
X325348500Y-272920000D01*
X325348500Y-274420000D01*
G37*
G36*
X327589500Y-274420000D02*
G01*
X326089500Y-274420000D01*
X326089500Y-272920000D01*
X327589500Y-272920000D01*
X327589500Y-274420000D01*
G37*
G36*
X329830500Y-274420000D02*
G01*
X328330500Y-274420000D01*
X328330500Y-272920000D01*
X329830500Y-272920000D01*
X329830500Y-274420000D01*
G37*
G36*
X351585500Y-274420000D02*
G01*
X350085500Y-274420000D01*
X350085500Y-272920000D01*
X351585500Y-272920000D01*
X351585500Y-274420000D01*
G37*
G36*
X353616500Y-274420000D02*
G01*
X352116500Y-274420000D01*
X352116500Y-272920000D01*
X353616500Y-272920000D01*
X353616500Y-274420000D01*
G37*
G36*
X355647500Y-274420000D02*
G01*
X354147500Y-274420000D01*
X354147500Y-272920000D01*
X355647500Y-272920000D01*
X355647500Y-274420000D01*
G37*
G36*
X357678500Y-274420000D02*
G01*
X356178500Y-274420000D01*
X356178500Y-272920000D01*
X357678500Y-272920000D01*
X357678500Y-274420000D01*
G37*
G36*
X359709500Y-274420000D02*
G01*
X358209500Y-274420000D01*
X358209500Y-272920000D01*
X359709500Y-272920000D01*
X359709500Y-274420000D01*
G37*
G36*
X361740500Y-274420000D02*
G01*
X360240500Y-274420000D01*
X360240500Y-272920000D01*
X361740500Y-272920000D01*
X361740500Y-274420000D01*
G37*
G36*
X363771500Y-274420000D02*
G01*
X362271500Y-274420000D01*
X362271500Y-272920000D01*
X363771500Y-272920000D01*
X363771500Y-274420000D01*
G37*
G36*
X365802500Y-274420000D02*
G01*
X364302500Y-274420000D01*
X364302500Y-272920000D01*
X365802500Y-272920000D01*
X365802500Y-274420000D01*
G37*
G36*
X387587500Y-274420000D02*
G01*
X386087500Y-274420000D01*
X386087500Y-272920000D01*
X387587500Y-272920000D01*
X387587500Y-274420000D01*
G37*
G36*
X389789500Y-274420000D02*
G01*
X388289500Y-274420000D01*
X388289500Y-272920000D01*
X389789500Y-272920000D01*
X389789500Y-274420000D01*
G37*
G36*
X391991500Y-274420000D02*
G01*
X390491500Y-274420000D01*
X390491500Y-272920000D01*
X391991500Y-272920000D01*
X391991500Y-274420000D01*
G37*
G36*
X394193500Y-274420000D02*
G01*
X392693500Y-274420000D01*
X392693500Y-272920000D01*
X394193500Y-272920000D01*
X394193500Y-274420000D01*
G37*
G36*
X400088500Y-274420000D02*
G01*
X398588500Y-274420000D01*
X398588500Y-272920000D01*
X400088500Y-272920000D01*
X400088500Y-274420000D01*
G37*
G36*
X402323500Y-274420000D02*
G01*
X400823500Y-274420000D01*
X400823500Y-272920000D01*
X402323500Y-272920000D01*
X402323500Y-274420000D01*
G37*
G36*
X404558500Y-274420000D02*
G01*
X403058500Y-274420000D01*
X403058500Y-272920000D01*
X404558500Y-272920000D01*
X404558500Y-274420000D01*
G37*
G36*
X406793500Y-274420000D02*
G01*
X405293500Y-274420000D01*
X405293500Y-272920000D01*
X406793500Y-272920000D01*
X406793500Y-274420000D01*
G37*
G36*
X409104500Y-274278000D02*
G01*
X407613500Y-274442000D01*
X407449500Y-272951000D01*
X408940500Y-272787000D01*
X409104500Y-274278000D01*
G37*
G36*
X411410500Y-273541000D02*
G01*
X410005500Y-274065000D01*
X409481500Y-272659000D01*
X410886500Y-272135000D01*
X411410500Y-273541000D01*
G37*
G36*
X413466500Y-272262000D02*
G01*
X412231500Y-273113000D01*
X411380500Y-271878000D01*
X412615500Y-271027000D01*
X413466500Y-272262000D01*
G37*
G36*
X415149500Y-270525000D02*
G01*
X414157500Y-271650000D01*
X413032500Y-270657000D01*
X414025500Y-269532000D01*
X415149500Y-270525000D01*
G37*
G36*
X416362500Y-268431000D02*
G01*
X415672500Y-269763000D01*
X414340500Y-269073000D01*
X415030500Y-267741000D01*
X416362500Y-268431000D01*
G37*
G36*
X417114500Y-263752000D02*
G01*
X415614500Y-263752000D01*
X415614500Y-262252000D01*
X417114500Y-262252000D01*
X417114500Y-263752000D01*
G37*
G36*
X417114500Y-261469000D02*
G01*
X415614500Y-261469000D01*
X415614500Y-259969000D01*
X417114500Y-259969000D01*
X417114500Y-261469000D01*
G37*
G36*
X417114500Y-259186000D02*
G01*
X415614500Y-259186000D01*
X415614500Y-257686000D01*
X417114500Y-257686000D01*
X417114500Y-259186000D01*
G37*
G36*
X417114500Y-256903000D02*
G01*
X415614500Y-256903000D01*
X415614500Y-255403000D01*
X417114500Y-255403000D01*
X417114500Y-256903000D01*
G37*
G36*
X417114500Y-254620000D02*
G01*
X415614500Y-254620000D01*
X415614500Y-253120000D01*
X417114500Y-253120000D01*
X417114500Y-254620000D01*
G37*
G36*
X417114500Y-252337000D02*
G01*
X415614500Y-252337000D01*
X415614500Y-250837000D01*
X417114500Y-250837000D01*
X417114500Y-252337000D01*
G37*
G36*
X417114500Y-250054000D02*
G01*
X415614500Y-250054000D01*
X415614500Y-248554000D01*
X417114500Y-248554000D01*
X417114500Y-250054000D01*
G37*
G36*
X417114500Y-247771000D02*
G01*
X415614500Y-247771000D01*
X415614500Y-246271000D01*
X417114500Y-246271000D01*
X417114500Y-247771000D01*
G37*
G36*
X417114500Y-245488000D02*
G01*
X415614500Y-245488000D01*
X415614500Y-243988000D01*
X417114500Y-243988000D01*
X417114500Y-245488000D01*
G37*
G36*
X417114500Y-239446000D02*
G01*
X415614500Y-239446000D01*
X415614500Y-237946000D01*
X417114500Y-237946000D01*
X417114500Y-239446000D01*
G37*
G36*
X417114500Y-236975000D02*
G01*
X415614500Y-236975000D01*
X415614500Y-235475000D01*
X417114500Y-235475000D01*
X417114500Y-236975000D01*
G37*
G36*
X417114500Y-234504000D02*
G01*
X415614500Y-234504000D01*
X415614500Y-233004000D01*
X417114500Y-233004000D01*
X417114500Y-234504000D01*
G37*
G36*
X417114500Y-232033000D02*
G01*
X415614500Y-232033000D01*
X415614500Y-230533000D01*
X417114500Y-230533000D01*
X417114500Y-232033000D01*
G37*
G36*
X417114500Y-229562000D02*
G01*
X415614500Y-229562000D01*
X415614500Y-228062000D01*
X417114500Y-228062000D01*
X417114500Y-229562000D01*
G37*
G36*
X417114500Y-227091000D02*
G01*
X415614500Y-227091000D01*
X415614500Y-225591000D01*
X417114500Y-225591000D01*
X417114500Y-227091000D01*
G37*
G36*
X417114500Y-221103000D02*
G01*
X415614500Y-221103000D01*
X415614500Y-219603000D01*
X417114500Y-219603000D01*
X417114500Y-221103000D01*
G37*
G36*
X417114500Y-218883000D02*
G01*
X415614500Y-218883000D01*
X415614500Y-217383000D01*
X417114500Y-217383000D01*
X417114500Y-218883000D01*
G37*
G36*
X417114500Y-216663000D02*
G01*
X415614500Y-216663000D01*
X415614500Y-215163000D01*
X417114500Y-215163000D01*
X417114500Y-216663000D01*
G37*
G36*
X417114500Y-214443000D02*
G01*
X415614500Y-214443000D01*
X415614500Y-212943000D01*
X417114500Y-212943000D01*
X417114500Y-214443000D01*
G37*
G36*
X417114500Y-212223000D02*
G01*
X415614500Y-212223000D01*
X415614500Y-210723000D01*
X417114500Y-210723000D01*
X417114500Y-212223000D01*
G37*
G36*
X417114500Y-210003000D02*
G01*
X415614500Y-210003000D01*
X415614500Y-208503000D01*
X417114500Y-208503000D01*
X417114500Y-210003000D01*
G37*
G36*
X417114500Y-207783000D02*
G01*
X415614500Y-207783000D01*
X415614500Y-206283000D01*
X417114500Y-206283000D01*
X417114500Y-207783000D01*
G37*
G36*
X417114500Y-205563000D02*
G01*
X415614500Y-205563000D01*
X415614500Y-204063000D01*
X417114500Y-204063000D01*
X417114500Y-205563000D01*
G37*
G36*
X417114500Y-203343000D02*
G01*
X415614500Y-203343000D01*
X415614500Y-201843000D01*
X417114500Y-201843000D01*
X417114500Y-203343000D01*
G37*
G36*
X416898500Y-197083000D02*
G01*
X415462500Y-197519000D01*
X415026500Y-196084000D01*
X416461500Y-195648000D01*
X416898500Y-197083000D01*
G37*
G36*
X416108500Y-194828000D02*
G01*
X414837500Y-195623000D01*
X414041500Y-194352000D01*
X415313500Y-193556000D01*
X416108500Y-194828000D01*
G37*
G36*
X414777500Y-192915000D02*
G01*
X413679500Y-193937000D01*
X412657500Y-192839000D01*
X413754500Y-191817000D01*
X414777500Y-192915000D01*
G37*
G36*
X413201500Y-191333000D02*
G01*
X412166500Y-192418000D01*
X411081500Y-191383000D01*
X412115500Y-190298000D01*
X413201500Y-191333000D01*
G37*
G36*
X411617500Y-189822000D02*
G01*
X410582500Y-190908000D01*
X409496500Y-189873000D01*
X410531500Y-188787000D01*
X411617500Y-189822000D01*
G37*
G36*
X410032500Y-188312000D02*
G01*
X408997500Y-189398000D01*
X407911500Y-188363000D01*
X408946500Y-187277000D01*
X410032500Y-188312000D01*
G37*
G36*
X408448500Y-186802000D02*
G01*
X407413500Y-187887000D01*
X406327500Y-186852000D01*
X407362500Y-185767000D01*
X408448500Y-186802000D01*
G37*
G36*
X406863500Y-185291000D02*
G01*
X405828500Y-186377000D01*
X404743500Y-185342000D01*
X405777500Y-184256000D01*
X406863500Y-185291000D01*
G37*
G36*
X405279500Y-183781000D02*
G01*
X404244500Y-184867000D01*
X403158500Y-183832000D01*
X404193500Y-182746000D01*
X405279500Y-183781000D01*
G37*
G36*
X403694500Y-182271000D02*
G01*
X402659500Y-183356000D01*
X401574500Y-182321000D01*
X402608500Y-181236000D01*
X403694500Y-182271000D01*
G37*
G36*
X402110500Y-180760000D02*
G01*
X401075500Y-181846000D01*
X399989500Y-180811000D01*
X401024500Y-179725000D01*
X402110500Y-180760000D01*
G37*
G36*
X386346500Y-165736000D02*
G01*
X385311500Y-166822000D01*
X384225500Y-165787000D01*
X385260500Y-164701000D01*
X386346500Y-165736000D01*
G37*
G36*
X384791500Y-164253000D02*
G01*
X383756500Y-165339000D01*
X382670500Y-164304000D01*
X383705500Y-163218000D01*
X384791500Y-164253000D01*
G37*
G36*
X383235500Y-162770000D02*
G01*
X382200500Y-163856000D01*
X381114500Y-162821000D01*
X382149500Y-161735000D01*
X383235500Y-162770000D01*
G37*
G36*
X381680500Y-161287000D02*
G01*
X380645500Y-162373000D01*
X379559500Y-161338000D01*
X380594500Y-160252000D01*
X381680500Y-161287000D01*
G37*
G36*
X380124500Y-159805000D02*
G01*
X379089500Y-160890000D01*
X378003500Y-159855000D01*
X379038500Y-158770000D01*
X380124500Y-159805000D01*
G37*
G36*
X378569500Y-158322000D02*
G01*
X377534500Y-159408000D01*
X376448500Y-158373000D01*
X377483500Y-157287000D01*
X378569500Y-158322000D01*
G37*
G36*
X417114500Y-200341000D02*
G01*
X415614500Y-200341000D01*
X415614500Y-198841000D01*
X417114500Y-198841000D01*
X417114500Y-200341000D01*
G37*
G36*
X305050500Y-362983000D02*
G01*
X304008500Y-364061000D01*
X302929500Y-363018000D01*
X303972500Y-361940000D01*
X305050500Y-362983000D01*
G37*
G36*
X306750500Y-361224000D02*
G01*
X305708500Y-362303000D01*
X304629500Y-361260000D01*
X305672500Y-360182000D01*
X306750500Y-361224000D01*
G37*
G36*
X308451500Y-359466000D02*
G01*
X307408500Y-360544000D01*
X306330500Y-359501000D01*
X307372500Y-358423000D01*
X308451500Y-359466000D01*
G37*
G36*
X310151500Y-357707000D02*
G01*
X309108500Y-358786000D01*
X308030500Y-357743000D01*
X309073500Y-356665000D01*
X310151500Y-357707000D01*
G37*
G36*
X311851500Y-355949000D02*
G01*
X310809500Y-357027000D01*
X309730500Y-355985000D01*
X310773500Y-354906000D01*
X311851500Y-355949000D01*
G37*
G36*
X313552500Y-354191000D02*
G01*
X312509500Y-355269000D01*
X311431500Y-354226000D01*
X312473500Y-353148000D01*
X313552500Y-354191000D01*
G37*
G36*
X315252500Y-352432000D02*
G01*
X314209500Y-353510000D01*
X313131500Y-352468000D01*
X314173500Y-351389000D01*
X315252500Y-352432000D01*
G37*
G36*
X316952500Y-350674000D02*
G01*
X315909500Y-351752000D01*
X314831500Y-350709000D01*
X315874500Y-349631000D01*
X316952500Y-350674000D01*
G37*
G36*
X318652500Y-348915000D02*
G01*
X317610500Y-349994000D01*
X316531500Y-348951000D01*
X317574500Y-347872000D01*
X318652500Y-348915000D01*
G37*
G36*
X320353500Y-347157000D02*
G01*
X319310500Y-348235000D01*
X318232500Y-347192000D01*
X319274500Y-346114000D01*
X320353500Y-347157000D01*
G37*
G36*
X322150500Y-345718000D02*
G01*
X320926500Y-346585000D01*
X320059500Y-345361000D01*
X321284500Y-344494000D01*
X322150500Y-345718000D01*
G37*
G36*
X324225500Y-344827000D02*
G01*
X322823500Y-345359000D01*
X322290500Y-343957000D01*
X323692500Y-343424000D01*
X324225500Y-344827000D01*
G37*
G36*
X326457500Y-344483000D02*
G01*
X324966500Y-344648000D01*
X324802500Y-343157000D01*
X326292500Y-342992000D01*
X326457500Y-344483000D01*
G37*
G36*
X328823500Y-344512000D02*
G01*
X327323500Y-344512000D01*
X327323500Y-343012000D01*
X328823500Y-343012000D01*
X328823500Y-344512000D01*
G37*
G36*
X331269500Y-344512000D02*
G01*
X329769500Y-344512000D01*
X329769500Y-343012000D01*
X331269500Y-343012000D01*
X331269500Y-344512000D01*
G37*
G36*
X333715500Y-344512000D02*
G01*
X332215500Y-344512000D01*
X332215500Y-343012000D01*
X333715500Y-343012000D01*
X333715500Y-344512000D01*
G37*
G36*
X336161500Y-344512000D02*
G01*
X334661500Y-344512000D01*
X334661500Y-343012000D01*
X336161500Y-343012000D01*
X336161500Y-344512000D01*
G37*
G36*
X338607500Y-344512000D02*
G01*
X337107500Y-344512000D01*
X337107500Y-343012000D01*
X338607500Y-343012000D01*
X338607500Y-344512000D01*
G37*
G36*
X341053500Y-344512000D02*
G01*
X339553500Y-344512000D01*
X339553500Y-343012000D01*
X341053500Y-343012000D01*
X341053500Y-344512000D01*
G37*
G36*
X343499500Y-344512000D02*
G01*
X341999500Y-344512000D01*
X341999500Y-343012000D01*
X343499500Y-343012000D01*
X343499500Y-344512000D01*
G37*
G36*
X345945500Y-344512000D02*
G01*
X344445500Y-344512000D01*
X344445500Y-343012000D01*
X345945500Y-343012000D01*
X345945500Y-344512000D01*
G37*
G36*
X348391500Y-344512000D02*
G01*
X346891500Y-344512000D01*
X346891500Y-343012000D01*
X348391500Y-343012000D01*
X348391500Y-344512000D01*
G37*
G36*
X350837500Y-344512000D02*
G01*
X349337500Y-344512000D01*
X349337500Y-343012000D01*
X350837500Y-343012000D01*
X350837500Y-344512000D01*
G37*
G36*
X353283500Y-344512000D02*
G01*
X351783500Y-344512000D01*
X351783500Y-343012000D01*
X353283500Y-343012000D01*
X353283500Y-344512000D01*
G37*
G36*
X355729500Y-344512000D02*
G01*
X354229500Y-344512000D01*
X354229500Y-343012000D01*
X355729500Y-343012000D01*
X355729500Y-344512000D01*
G37*
G36*
X358175500Y-344512000D02*
G01*
X356675500Y-344512000D01*
X356675500Y-343012000D01*
X358175500Y-343012000D01*
X358175500Y-344512000D01*
G37*
G36*
X360621500Y-344512000D02*
G01*
X359121500Y-344512000D01*
X359121500Y-343012000D01*
X360621500Y-343012000D01*
X360621500Y-344512000D01*
G37*
G36*
X363067500Y-344512000D02*
G01*
X361567500Y-344512000D01*
X361567500Y-343012000D01*
X363067500Y-343012000D01*
X363067500Y-344512000D01*
G37*
G36*
X365624500Y-344270000D02*
G01*
X364146500Y-344525000D01*
X363891500Y-343047000D01*
X365369500Y-342792000D01*
X365624500Y-344270000D01*
G37*
G36*
X368071500Y-343111000D02*
G01*
X366769500Y-343857000D01*
X366023500Y-342556000D01*
X367324500Y-341810000D01*
X368071500Y-343111000D01*
G37*
G36*
X369975500Y-341191000D02*
G01*
X369004500Y-342334000D01*
X367861500Y-341363000D01*
X368832500Y-340220000D01*
X369975500Y-341191000D01*
G37*
G36*
X371114500Y-338737000D02*
G01*
X370591500Y-340143000D01*
X369185500Y-339619000D01*
X369709500Y-338214000D01*
X371114500Y-338737000D01*
G37*
G36*
X371346500Y-336041000D02*
G01*
X371333500Y-337541000D01*
X369833500Y-337528000D01*
X369847500Y-336028000D01*
X371346500Y-336041000D01*
G37*
G36*
X371340500Y-335089000D02*
G01*
X369840500Y-335089000D01*
X369840500Y-333589000D01*
X371340500Y-333589000D01*
X371340500Y-335089000D01*
G37*
G36*
X371340500Y-332643000D02*
G01*
X369840500Y-332643000D01*
X369840500Y-331143000D01*
X371340500Y-331143000D01*
X371340500Y-332643000D01*
G37*
G36*
X371340500Y-330197000D02*
G01*
X369840500Y-330197000D01*
X369840500Y-328697000D01*
X371340500Y-328697000D01*
X371340500Y-330197000D01*
G37*
G36*
X371341500Y-327751000D02*
G01*
X369841500Y-327751000D01*
X369841500Y-326251000D01*
X371341500Y-326251000D01*
X371341500Y-327751000D01*
G37*
G36*
X371341500Y-325305000D02*
G01*
X369841500Y-325305000D01*
X369841500Y-323804000D01*
X371341500Y-323804000D01*
X371341500Y-325305000D01*
G37*
G36*
X371341500Y-305728000D02*
G01*
X369841500Y-305728000D01*
X369841500Y-304228000D01*
X371341500Y-304228000D01*
X371341500Y-305728000D01*
G37*
G36*
X371341500Y-303313000D02*
G01*
X369841500Y-303313000D01*
X369841500Y-301813000D01*
X371341500Y-301813000D01*
X371341500Y-303313000D01*
G37*
G36*
X485340500Y-276908000D02*
G01*
X484274500Y-277963000D01*
X483219500Y-276897000D01*
X484285500Y-275842000D01*
X485340500Y-276908000D01*
G37*
G36*
X417114500Y-242427000D02*
G01*
X415614500Y-242427000D01*
X415614500Y-240927000D01*
X417114500Y-240927000D01*
X417114500Y-242427000D01*
G37*
G36*
X315118500Y-224600000D02*
G01*
X313708500Y-225112000D01*
X313196500Y-223702000D01*
X314606500Y-223190000D01*
X315118500Y-224600000D01*
G37*
G36*
X412472500Y-163399000D02*
G01*
X411404500Y-164452000D01*
X410351500Y-163385000D01*
X411419500Y-162331000D01*
X412472500Y-163399000D01*
G37*
G36*
X494382500Y-267959000D02*
G01*
X493316500Y-269014000D01*
X492261500Y-267948000D01*
X493327500Y-266893000D01*
X494382500Y-267959000D01*
G37*
G36*
X492652500Y-269672000D02*
G01*
X491586500Y-270727000D01*
X490530500Y-269661000D01*
X491596500Y-268605000D01*
X492652500Y-269672000D01*
G37*
G36*
X490921500Y-271384000D02*
G01*
X489855500Y-272440000D01*
X488800500Y-271374000D01*
X489866500Y-270318000D01*
X490921500Y-271384000D01*
G37*
G36*
X489190500Y-273097000D02*
G01*
X488124500Y-274153000D01*
X487069500Y-273086000D01*
X488135500Y-272031000D01*
X489190500Y-273097000D01*
G37*
G36*
X487460500Y-274810000D02*
G01*
X486393500Y-275865000D01*
X485338500Y-274799000D01*
X486404500Y-273744000D01*
X487460500Y-274810000D01*
G37*
G36*
X483184500Y-279042000D02*
G01*
X482118500Y-280097000D01*
X481063500Y-279031000D01*
X482129500Y-277976000D01*
X483184500Y-279042000D01*
G37*
G36*
X481608500Y-280601000D02*
G01*
X480542500Y-281657000D01*
X479487500Y-280590000D01*
X480553500Y-279535000D01*
X481608500Y-280601000D01*
G37*
G36*
X480017500Y-282204000D02*
G01*
X478895500Y-283199000D01*
X477899500Y-282077000D01*
X479021500Y-281082000D01*
X480017500Y-282204000D01*
G37*
G36*
X478313500Y-283687000D02*
G01*
X477137500Y-284618000D01*
X476206500Y-283442000D01*
X477382500Y-282511000D01*
X478313500Y-283687000D01*
G37*
G36*
X476528500Y-285073000D02*
G01*
X475302500Y-285937000D01*
X474438500Y-284710000D01*
X475665500Y-283847000D01*
X476528500Y-285073000D01*
G37*
G36*
X474668500Y-286357000D02*
G01*
X473393500Y-287148000D01*
X472602500Y-285874000D01*
X473877500Y-285083000D01*
X474668500Y-286357000D01*
G37*
G36*
X472732500Y-287532000D02*
G01*
X471411500Y-288242000D01*
X470701500Y-286920000D01*
X472022500Y-286210000D01*
X472732500Y-287532000D01*
G37*
G36*
X470721500Y-288584000D02*
G01*
X469353500Y-289199000D01*
X468738500Y-287832000D01*
X470105500Y-287216000D01*
X470721500Y-288584000D01*
G37*
G36*
X468631500Y-289493000D02*
G01*
X467217500Y-289993000D01*
X466716500Y-288579000D01*
X468130500Y-288079000D01*
X468631500Y-289493000D01*
G37*
G36*
X466454500Y-290224000D02*
G01*
X464996500Y-290574000D01*
X464646500Y-289116000D01*
X466104500Y-288765000D01*
X466454500Y-290224000D01*
G37*
G36*
X447560500Y-291488000D02*
G01*
X446060500Y-291488000D01*
X446060500Y-289988000D01*
X447560500Y-289988000D01*
X447560500Y-291488000D01*
G37*
G36*
X445452500Y-291499000D02*
G01*
X443957500Y-291614000D01*
X443841500Y-290119000D01*
X445337500Y-290003000D01*
X445452500Y-291499000D01*
G37*
G36*
X443364500Y-291687000D02*
G01*
X441885500Y-291938000D01*
X441634500Y-290459000D01*
X443113500Y-290208000D01*
X443364500Y-291687000D01*
G37*
G36*
X441300500Y-292064000D02*
G01*
X439850500Y-292448000D01*
X439467500Y-290997000D01*
X440917500Y-290614000D01*
X441300500Y-292064000D01*
G37*
G36*
X439280500Y-292626000D02*
G01*
X437870500Y-293140000D01*
X437357500Y-291730000D01*
X438767500Y-291217000D01*
X439280500Y-292626000D01*
G37*
G36*
X437318500Y-293369000D02*
G01*
X435961500Y-294008000D01*
X435322500Y-292651000D01*
X436680500Y-292012000D01*
X437318500Y-293369000D01*
G37*
G36*
X435432500Y-294287000D02*
G01*
X434139500Y-295046000D01*
X433380500Y-293752000D01*
X434673500Y-292993000D01*
X435432500Y-294287000D01*
G37*
G36*
X433648500Y-295365000D02*
G01*
X432427500Y-296237000D01*
X431555500Y-295017000D01*
X432775500Y-294145000D01*
X433648500Y-295365000D01*
G37*
G36*
X431803500Y-296733000D02*
G01*
X430675500Y-297722000D01*
X429686500Y-296595000D01*
X430813500Y-295605000D01*
X431803500Y-296733000D01*
G37*
G36*
X430093500Y-298304000D02*
G01*
X429033500Y-299364000D01*
X427972500Y-298304000D01*
X429033500Y-297243000D01*
X430093500Y-298304000D01*
G37*
G36*
X428417500Y-299980000D02*
G01*
X427356500Y-301041000D01*
X426295500Y-299980000D01*
X427356500Y-298919000D01*
X428417500Y-299980000D01*
G37*
G36*
X426740500Y-301657000D02*
G01*
X425679500Y-302717000D01*
X424619500Y-301657000D01*
X425679500Y-300596000D01*
X426740500Y-301657000D01*
G37*
G36*
X425064500Y-303333000D02*
G01*
X424003500Y-304394000D01*
X422942500Y-303333000D01*
X424003500Y-302273000D01*
X425064500Y-303333000D01*
G37*
G36*
X423387500Y-305010000D02*
G01*
X422326500Y-306070000D01*
X421266500Y-305010000D01*
X422326500Y-303949000D01*
X423387500Y-305010000D01*
G37*
G36*
X421898500Y-306499000D02*
G01*
X420837500Y-307559000D01*
X419777500Y-306499000D01*
X420837500Y-305438000D01*
X421898500Y-306499000D01*
G37*
G36*
X420113500Y-308224000D02*
G01*
X418852500Y-309037000D01*
X418039500Y-307776000D01*
X419300500Y-306963000D01*
X420113500Y-308224000D01*
G37*
G36*
X417907500Y-309471000D02*
G01*
X416469500Y-309898000D01*
X416042500Y-308460000D01*
X417480500Y-308033000D01*
X417907500Y-309471000D01*
G37*
G36*
X415441500Y-310049000D02*
G01*
X413941500Y-310056000D01*
X413934500Y-308556000D01*
X415434500Y-308549000D01*
X415441500Y-310049000D01*
G37*
G36*
X413117500Y-310053000D02*
G01*
X411617500Y-310053000D01*
X411617500Y-308553000D01*
X413117500Y-308553000D01*
X413117500Y-310053000D01*
G37*
G36*
X410924500Y-310053000D02*
G01*
X409424500Y-310053000D01*
X409424500Y-308553000D01*
X410924500Y-308553000D01*
X410924500Y-310053000D01*
G37*
G36*
X408519500Y-310053000D02*
G01*
X407019500Y-310053000D01*
X407019500Y-308553000D01*
X408519500Y-308553000D01*
X408519500Y-310053000D01*
G37*
G36*
X406114500Y-310053000D02*
G01*
X404614500Y-310053000D01*
X404614500Y-308553000D01*
X406114500Y-308553000D01*
X406114500Y-310053000D01*
G37*
G36*
X403709500Y-310053000D02*
G01*
X402209500Y-310053000D01*
X402209500Y-308553000D01*
X403709500Y-308553000D01*
X403709500Y-310053000D01*
G37*
G36*
X401304500Y-310053000D02*
G01*
X399804500Y-310053000D01*
X399804500Y-308553000D01*
X401304500Y-308553000D01*
X401304500Y-310053000D01*
G37*
G36*
X398899500Y-310053000D02*
G01*
X397399500Y-310053000D01*
X397399500Y-308553000D01*
X398899500Y-308553000D01*
X398899500Y-310053000D01*
G37*
G36*
X396522500Y-310053000D02*
G01*
X395022500Y-310053000D01*
X395022500Y-308553000D01*
X396522500Y-308553000D01*
X396522500Y-310053000D01*
G37*
G36*
X394124500Y-310053000D02*
G01*
X392623500Y-310053000D01*
X392623500Y-308553000D01*
X394124500Y-308553000D01*
X394124500Y-310053000D01*
G37*
G36*
X391725500Y-310053000D02*
G01*
X390225500Y-310053000D01*
X390225500Y-308553000D01*
X391725500Y-308553000D01*
X391725500Y-310053000D01*
G37*
G36*
X389327500Y-310053000D02*
G01*
X387827500Y-310053000D01*
X387827500Y-308553000D01*
X389327500Y-308553000D01*
X389327500Y-310053000D01*
G37*
G36*
X363827500Y-308549000D02*
G01*
X363819500Y-310049000D01*
X362319500Y-310041000D01*
X362327500Y-308541000D01*
X363827500Y-308549000D01*
G37*
G36*
X361466500Y-308536000D02*
G01*
X361458500Y-310036000D01*
X359958500Y-310028000D01*
X359966500Y-308528000D01*
X361466500Y-308536000D01*
G37*
G36*
X359105500Y-308523000D02*
G01*
X359097500Y-310023000D01*
X357597500Y-310015000D01*
X357605500Y-308515000D01*
X359105500Y-308523000D01*
G37*
G36*
X356744500Y-308511000D02*
G01*
X356736500Y-310011000D01*
X355236500Y-310003000D01*
X355244500Y-308503000D01*
X356744500Y-308511000D01*
G37*
G36*
X354400500Y-308513000D02*
G01*
X354358500Y-310013000D01*
X352859500Y-309971000D01*
X352901500Y-308471000D01*
X354400500Y-308513000D01*
G37*
G36*
X352259500Y-308360000D02*
G01*
X351789500Y-309784000D01*
X350365500Y-309315000D01*
X350834500Y-307890000D01*
X352259500Y-308360000D01*
G37*
G36*
X350249500Y-307596000D02*
G01*
X349397500Y-308831000D01*
X348162500Y-307979000D01*
X349014500Y-306745000D01*
X350249500Y-307596000D01*
G37*
G36*
X348526500Y-306296000D02*
G01*
X347373500Y-307254000D01*
X346414500Y-306101000D01*
X347567500Y-305142000D01*
X348526500Y-306296000D01*
G37*
G36*
X347213500Y-304576000D02*
G01*
X345848500Y-305197000D01*
X345227500Y-303831000D01*
X346592500Y-303210000D01*
X347213500Y-304576000D01*
G37*
G36*
X346398500Y-302570000D02*
G01*
X344918500Y-302812000D01*
X344676500Y-301331000D01*
X346156500Y-301090000D01*
X346398500Y-302570000D01*
G37*
G36*
X346193500Y-300650000D02*
G01*
X344693500Y-300650000D01*
X344693500Y-299150000D01*
X346193500Y-299150000D01*
X346193500Y-300650000D01*
G37*
G36*
X346193500Y-298251000D02*
G01*
X344693500Y-298251000D01*
X344693500Y-296751000D01*
X346193500Y-296751000D01*
X346193500Y-298251000D01*
G37*
G36*
X346193500Y-295852000D02*
G01*
X344693500Y-295852000D01*
X344693500Y-294352000D01*
X346193500Y-294352000D01*
X346193500Y-295852000D01*
G37*
G36*
X346193500Y-293453000D02*
G01*
X344693500Y-293453000D01*
X344693500Y-291953000D01*
X346193500Y-291953000D01*
X346193500Y-293453000D01*
G37*
G36*
X346193500Y-291054000D02*
G01*
X344693500Y-291054000D01*
X344693500Y-289554000D01*
X346193500Y-289554000D01*
X346193500Y-291054000D01*
G37*
G36*
X417114500Y-265333000D02*
G01*
X416887500Y-266815000D01*
X415405500Y-266589000D01*
X415631500Y-265106000D01*
X417114500Y-265333000D01*
G37*
G36*
X296777500Y-204184000D02*
G01*
X295716500Y-205245000D01*
X294656500Y-204184000D01*
X295717500Y-203123000D01*
X296777500Y-204184000D01*
G37*
G36*
X383587500Y-176559000D02*
G01*
X382527500Y-177620000D01*
X381466500Y-176559000D01*
X382527500Y-175498000D01*
X383587500Y-176559000D01*
G37*
G36*
X382002500Y-178144000D02*
G01*
X380941500Y-179205000D01*
X379881500Y-178144000D01*
X380941500Y-177084000D01*
X382002500Y-178144000D01*
G37*
G36*
X380194500Y-179808000D02*
G01*
X378880500Y-180531000D01*
X378157500Y-179216000D01*
X379472500Y-178494000D01*
X380194500Y-179808000D01*
G37*
G36*
X377950500Y-180864000D02*
G01*
X376475500Y-181141000D01*
X376199500Y-179666000D01*
X377673500Y-179390000D01*
X377950500Y-180864000D01*
G37*
G36*
X375590500Y-181137000D02*
G01*
X374090500Y-181137000D01*
X374090500Y-179637000D01*
X375590500Y-179637000D01*
X375590500Y-181137000D01*
G37*
G36*
X373348500Y-181137000D02*
G01*
X371848500Y-181137000D01*
X371848500Y-179637000D01*
X373348500Y-179637000D01*
X373348500Y-181137000D01*
G37*
G36*
X371106500Y-181137000D02*
G01*
X369606500Y-181137000D01*
X369606500Y-179637000D01*
X371106500Y-179637000D01*
X371106500Y-181137000D01*
G37*
G36*
X368864500Y-181137000D02*
G01*
X367364500Y-181137000D01*
X367364500Y-179637000D01*
X368864500Y-179637000D01*
X368864500Y-181137000D01*
G37*
G36*
X366622500Y-181137000D02*
G01*
X365122500Y-181137000D01*
X365122500Y-179637000D01*
X366622500Y-179637000D01*
X366622500Y-181137000D01*
G37*
G36*
X364380500Y-181137000D02*
G01*
X362880500Y-181137000D01*
X362880500Y-179637000D01*
X364380500Y-179637000D01*
X364380500Y-181137000D01*
G37*
G36*
X362138500Y-181137000D02*
G01*
X360638500Y-181137000D01*
X360638500Y-179637000D01*
X362138500Y-179637000D01*
X362138500Y-181137000D01*
G37*
G36*
X359896500Y-181137000D02*
G01*
X358396500Y-181137000D01*
X358396500Y-179637000D01*
X359896500Y-179637000D01*
X359896500Y-181137000D01*
G37*
G36*
X357653500Y-181137000D02*
G01*
X356154500Y-181137000D01*
X356154500Y-179637000D01*
X357653500Y-179637000D01*
X357653500Y-181137000D01*
G37*
G36*
X355824500Y-181137000D02*
G01*
X354324500Y-181137000D01*
X354324500Y-179637000D01*
X355824500Y-179637000D01*
X355824500Y-181137000D01*
G37*
G36*
X353563500Y-181137000D02*
G01*
X352063500Y-181137000D01*
X352063500Y-179637000D01*
X353563500Y-179637000D01*
X353563500Y-181137000D01*
G37*
G36*
X351360500Y-181130000D02*
G01*
X349865500Y-181250000D01*
X349746500Y-179754000D01*
X351241500Y-179635000D01*
X351360500Y-181130000D01*
G37*
G36*
X349207500Y-181345000D02*
G01*
X347741500Y-181659000D01*
X347427500Y-180192000D01*
X348894500Y-179878000D01*
X349207500Y-181345000D01*
G37*
G36*
X347102500Y-181840000D02*
G01*
X345689500Y-182343000D01*
X345185500Y-180930000D01*
X346599500Y-180427000D01*
X347102500Y-181840000D01*
G37*
G36*
X345079500Y-182606000D02*
G01*
X343744500Y-183290000D01*
X343060500Y-181955000D01*
X344395500Y-181271000D01*
X345079500Y-182606000D01*
G37*
G36*
X343173500Y-183631000D02*
G01*
X341939500Y-184483000D01*
X341087500Y-183249000D01*
X342321500Y-182397000D01*
X343173500Y-183631000D01*
G37*
G36*
X341417500Y-184896000D02*
G01*
X340304500Y-185901000D01*
X339299500Y-184787000D01*
X340412500Y-183782000D01*
X341417500Y-184896000D01*
G37*
G36*
X339840500Y-186378000D02*
G01*
X338866500Y-187518000D01*
X337725500Y-186544000D01*
X338699500Y-185404000D01*
X339840500Y-186378000D01*
G37*
G36*
X338467500Y-188051000D02*
G01*
X337649500Y-189308000D01*
X336392500Y-188491000D01*
X337210500Y-187233000D01*
X338467500Y-188051000D01*
G37*
G36*
X337324500Y-189888000D02*
G01*
X336677500Y-191241000D01*
X335324500Y-190595000D01*
X335971500Y-189241000D01*
X337324500Y-189888000D01*
G37*
G36*
X336431500Y-191858000D02*
G01*
X335967500Y-193284000D01*
X334541500Y-192821000D01*
X335004500Y-191394000D01*
X336431500Y-191858000D01*
G37*
G36*
X335804500Y-193928000D02*
G01*
X335531500Y-195403000D01*
X334056500Y-195131000D01*
X334329500Y-193656000D01*
X335804500Y-193928000D01*
G37*
G36*
X335454500Y-196063000D02*
G01*
X335375500Y-197561000D01*
X333877500Y-197483000D01*
X333956500Y-195985000D01*
X335454500Y-196063000D01*
G37*
G36*
X335391500Y-199784000D02*
G01*
X333891500Y-199784000D01*
X333891500Y-198284000D01*
X335391500Y-198284000D01*
X335391500Y-199784000D01*
G37*
G36*
X335391500Y-202045000D02*
G01*
X333891500Y-202045000D01*
X333891500Y-200545000D01*
X335391500Y-200545000D01*
X335391500Y-202045000D01*
G37*
G36*
X335391500Y-204306000D02*
G01*
X333891500Y-204306000D01*
X333891500Y-202806000D01*
X335391500Y-202806000D01*
X335391500Y-204306000D01*
G37*
G36*
X335391500Y-206567000D02*
G01*
X333891500Y-206567000D01*
X333891500Y-205067000D01*
X335391500Y-205067000D01*
X335391500Y-206567000D01*
G37*
G36*
X335391500Y-208657000D02*
G01*
X333891500Y-208657000D01*
X333891500Y-207157000D01*
X335391500Y-207157000D01*
X335391500Y-208657000D01*
G37*
G36*
X335391500Y-210923000D02*
G01*
X333891500Y-210923000D01*
X333891500Y-209423000D01*
X335391500Y-209423000D01*
X335391500Y-210923000D01*
G37*
G36*
X335400500Y-213181000D02*
G01*
X333901500Y-213197000D01*
X333884500Y-211697000D01*
X335384500Y-211681000D01*
X335400500Y-213181000D01*
G37*
G36*
X335667500Y-215331000D02*
G01*
X334182500Y-215547000D01*
X333967500Y-214062000D01*
X335452500Y-213847000D01*
X335667500Y-215331000D01*
G37*
G36*
X336219500Y-217425000D02*
G01*
X334777500Y-217838000D01*
X334364500Y-216396000D01*
X335806500Y-215983000D01*
X336219500Y-217425000D01*
G37*
G36*
X337049500Y-219426000D02*
G01*
X335675500Y-220029000D01*
X335072500Y-218655000D01*
X336445500Y-218052000D01*
X337049500Y-219426000D01*
G37*
G36*
X338139500Y-221297000D02*
G01*
X336859500Y-222079000D01*
X336077500Y-220799000D01*
X337357500Y-220017000D01*
X338139500Y-221297000D01*
G37*
G36*
X339470500Y-223006000D02*
G01*
X338306500Y-223952000D01*
X337360500Y-222787000D01*
X338525500Y-221842000D01*
X339470500Y-223006000D01*
G37*
G36*
X341017500Y-224524000D02*
G01*
X339988500Y-225616000D01*
X338896500Y-224587000D01*
X339925500Y-223496000D01*
X341017500Y-224524000D01*
G37*
G36*
X342751500Y-225822000D02*
G01*
X341877500Y-227041000D01*
X340658500Y-226167000D01*
X341532500Y-224948000D01*
X342751500Y-225822000D01*
G37*
G36*
X344643500Y-226877000D02*
G01*
X343940500Y-228202000D01*
X342615500Y-227499000D01*
X343318500Y-226174000D01*
X344643500Y-226877000D01*
G37*
G36*
X346659500Y-227668000D02*
G01*
X346140500Y-229076000D01*
X344733500Y-228557000D01*
X345252500Y-227150000D01*
X346659500Y-227668000D01*
G37*
G36*
X348763500Y-228181000D02*
G01*
X348438500Y-229645000D01*
X346974500Y-229321000D01*
X347298500Y-227856000D01*
X348763500Y-228181000D01*
G37*
G36*
X350917500Y-228406000D02*
G01*
X350792500Y-229901000D01*
X349297500Y-229775000D01*
X349422500Y-228281000D01*
X350917500Y-228406000D01*
G37*
G36*
X353121500Y-229901000D02*
G01*
X351621500Y-229901000D01*
X351621500Y-228401000D01*
X353121500Y-228401000D01*
X353121500Y-229901000D01*
G37*
G36*
X355387500Y-229901000D02*
G01*
X353887500Y-229901000D01*
X353887500Y-228401000D01*
X355387500Y-228401000D01*
X355387500Y-229901000D01*
G37*
G36*
X357653500Y-229901000D02*
G01*
X356153500Y-229901000D01*
X356153500Y-228401000D01*
X357653500Y-228401000D01*
X357653500Y-229901000D01*
G37*
G36*
X359761500Y-229901000D02*
G01*
X358261500Y-229901000D01*
X358261500Y-228401000D01*
X359761500Y-228401000D01*
X359761500Y-229901000D01*
G37*
G36*
X362152500Y-228425000D02*
G01*
X362111500Y-229925000D01*
X360611500Y-229883000D01*
X360652500Y-228384000D01*
X362152500Y-228425000D01*
G37*
G36*
X364647500Y-229001000D02*
G01*
X364232500Y-230443000D01*
X362791500Y-230029000D01*
X363205500Y-228587000D01*
X364647500Y-229001000D01*
G37*
G36*
X366917500Y-230187000D02*
G01*
X366154500Y-231478000D01*
X364863500Y-230715000D01*
X365626500Y-229424000D01*
X366917500Y-230187000D01*
G37*
G36*
X368819500Y-231901000D02*
G01*
X367759500Y-232961000D01*
X366698500Y-231901000D01*
X367759500Y-230840000D01*
X368819500Y-231901000D01*
G37*
G36*
X370235500Y-234033000D02*
G01*
X368944500Y-234796000D01*
X368181500Y-233505000D01*
X369472500Y-232742000D01*
X370235500Y-234033000D01*
G37*
G36*
X371001500Y-236139000D02*
G01*
X369573500Y-236599000D01*
X369113500Y-235171000D01*
X370541500Y-234711000D01*
X371001500Y-236139000D01*
G37*
G36*
X371285500Y-238461000D02*
G01*
X369790500Y-238582000D01*
X369670500Y-237086000D01*
X371165500Y-236966000D01*
X371285500Y-238461000D01*
G37*
G36*
X371265500Y-240686000D02*
G01*
X369765500Y-240690000D01*
X369760500Y-239190000D01*
X371260500Y-239186000D01*
X371265500Y-240686000D01*
G37*
G36*
X371271500Y-242851000D02*
G01*
X369771500Y-242855000D01*
X369767500Y-241355000D01*
X371267500Y-241351000D01*
X371271500Y-242851000D01*
G37*
G36*
X371278500Y-245016000D02*
G01*
X369778500Y-245020000D01*
X369773500Y-243520000D01*
X371273500Y-243516000D01*
X371278500Y-245016000D01*
G37*
G36*
X371285500Y-247181000D02*
G01*
X369785500Y-247185000D01*
X369780500Y-245685000D01*
X371280500Y-245681000D01*
X371285500Y-247181000D01*
G37*
G36*
X371291500Y-249346000D02*
G01*
X369791500Y-249350000D01*
X369787500Y-247850000D01*
X371287500Y-247846000D01*
X371291500Y-249346000D01*
G37*
G36*
X371298500Y-251511000D02*
G01*
X369798500Y-251515000D01*
X369793500Y-250015000D01*
X371293500Y-250011000D01*
X371298500Y-251511000D01*
G37*
G36*
X371305500Y-253676000D02*
G01*
X369805500Y-253680000D01*
X369800500Y-252180000D01*
X371300500Y-252176000D01*
X371305500Y-253676000D01*
G37*
G36*
X371311500Y-255765000D02*
G01*
X369811500Y-255770000D01*
X369807500Y-254270000D01*
X371307500Y-254265000D01*
X371311500Y-255765000D01*
G37*
G36*
X371318500Y-257943000D02*
G01*
X369818500Y-257948000D01*
X369813500Y-256448000D01*
X371313500Y-256443000D01*
X371318500Y-257943000D01*
G37*
G36*
X371325500Y-260121000D02*
G01*
X369825500Y-260126000D01*
X369820500Y-258626000D01*
X371320500Y-258621000D01*
X371325500Y-260121000D01*
G37*
G36*
X371331500Y-262299000D02*
G01*
X369831500Y-262304000D01*
X369827500Y-260804000D01*
X371327500Y-260799000D01*
X371331500Y-262299000D01*
G37*
G36*
X371338500Y-264477000D02*
G01*
X369838500Y-264482000D01*
X369833500Y-262982000D01*
X371333500Y-262977000D01*
X371338500Y-264477000D01*
G37*
G36*
X371342500Y-283993000D02*
G01*
X369842500Y-283993000D01*
X369842500Y-282493000D01*
X371342500Y-282493000D01*
X371342500Y-283993000D01*
G37*
G36*
X371342500Y-286408000D02*
G01*
X369842500Y-286408000D01*
X369842500Y-284908000D01*
X371342500Y-284908000D01*
X371342500Y-286408000D01*
G37*
G36*
X371342500Y-288823000D02*
G01*
X369842500Y-288823000D01*
X369842500Y-287323000D01*
X371342500Y-287323000D01*
X371342500Y-288823000D01*
G37*
G36*
X371342500Y-291238000D02*
G01*
X369842500Y-291238000D01*
X369842500Y-289738000D01*
X371342500Y-289738000D01*
X371342500Y-291238000D01*
G37*
G36*
X371342500Y-293653000D02*
G01*
X369842500Y-293653000D01*
X369842500Y-292153000D01*
X371342500Y-292153000D01*
X371342500Y-293653000D01*
G37*
G36*
X371342500Y-296068000D02*
G01*
X369842500Y-296068000D01*
X369842500Y-294568000D01*
X371342500Y-294568000D01*
X371342500Y-296068000D01*
G37*
G36*
X371342500Y-298483000D02*
G01*
X369842500Y-298483000D01*
X369842500Y-296983000D01*
X371342500Y-296983000D01*
X371342500Y-298483000D01*
G37*
G36*
X371342500Y-300898000D02*
G01*
X369842500Y-300898000D01*
X369842500Y-299398000D01*
X371342500Y-299398000D01*
X371342500Y-300898000D01*
G37*
G36*
X289333500Y-245517000D02*
G01*
X287833500Y-245517000D01*
X287833500Y-244017000D01*
X289333500Y-244017000D01*
X289333500Y-245517000D01*
G37*
G36*
X291671500Y-245517000D02*
G01*
X290171500Y-245517000D01*
X290171500Y-244017000D01*
X291671500Y-244017000D01*
X291671500Y-245517000D01*
G37*
G36*
X294009500Y-245517000D02*
G01*
X292509500Y-245517000D01*
X292509500Y-244017000D01*
X294009500Y-244017000D01*
X294009500Y-245517000D01*
G37*
G36*
X296347500Y-245517000D02*
G01*
X294847500Y-245517000D01*
X294847500Y-244017000D01*
X296347500Y-244017000D01*
X296347500Y-245517000D01*
G37*
G36*
X298685500Y-245517000D02*
G01*
X297185500Y-245517000D01*
X297185500Y-244017000D01*
X298685500Y-244017000D01*
X298685500Y-245517000D01*
G37*
G36*
X301023500Y-245517000D02*
G01*
X299523500Y-245517000D01*
X299523500Y-244017000D01*
X301023500Y-244017000D01*
X301023500Y-245517000D01*
G37*
G36*
X303361500Y-245517000D02*
G01*
X301861500Y-245517000D01*
X301861500Y-244017000D01*
X303361500Y-244017000D01*
X303361500Y-245517000D01*
G37*
G36*
X305699500Y-245517000D02*
G01*
X304199500Y-245517000D01*
X304199500Y-244017000D01*
X305699500Y-244017000D01*
X305699500Y-245517000D01*
G37*
G36*
X308037500Y-245517000D02*
G01*
X306537500Y-245517000D01*
X306537500Y-244017000D01*
X308037500Y-244017000D01*
X308037500Y-245517000D01*
G37*
G36*
X322771500Y-245517000D02*
G01*
X321271500Y-245517000D01*
X321271500Y-244017000D01*
X322771500Y-244017000D01*
X322771500Y-245517000D01*
G37*
G36*
X325453500Y-244130000D02*
G01*
X325346500Y-245626000D01*
X323850500Y-245519000D01*
X323957500Y-244023000D01*
X325453500Y-244130000D01*
G37*
G36*
X328131500Y-244568000D02*
G01*
X327850500Y-246042000D01*
X326377500Y-245761000D01*
X326658500Y-244287000D01*
X328131500Y-244568000D01*
G37*
G36*
X330604500Y-245271000D02*
G01*
X330160500Y-246704000D01*
X328728500Y-246260000D01*
X329171500Y-244827000D01*
X330604500Y-245271000D01*
G37*
G36*
X332983500Y-246246000D02*
G01*
X332382500Y-247620000D01*
X331008500Y-247019000D01*
X331609500Y-245645000D01*
X332983500Y-246246000D01*
G37*
G36*
X335239500Y-247479000D02*
G01*
X334489500Y-248778000D01*
X333190500Y-248028000D01*
X333940500Y-246729000D01*
X335239500Y-247479000D01*
G37*
G36*
X337343500Y-248954000D02*
G01*
X336454500Y-250163000D01*
X335246500Y-249273000D01*
X336135500Y-248065000D01*
X337343500Y-248954000D01*
G37*
G36*
X339272500Y-250653000D02*
G01*
X338255500Y-251755000D01*
X337153500Y-250739000D01*
X338169500Y-249636000D01*
X339272500Y-250653000D01*
G37*
G36*
X341002500Y-252553000D02*
G01*
X339870500Y-253537000D01*
X338886500Y-252405000D01*
X340018500Y-251421000D01*
X341002500Y-252553000D01*
G37*
G36*
X342512500Y-254632000D02*
G01*
X341278500Y-255486000D01*
X340425500Y-254252000D01*
X341659500Y-253399000D01*
X342512500Y-254632000D01*
G37*
G36*
X343783500Y-256867000D02*
G01*
X342462500Y-257578000D01*
X341751500Y-256257000D01*
X343072500Y-255546000D01*
X343783500Y-256867000D01*
G37*
G36*
X344797500Y-259229000D02*
G01*
X343406500Y-259788000D01*
X342846500Y-258397000D01*
X344238500Y-257837000D01*
X344797500Y-259229000D01*
G37*
G36*
X345542500Y-261689000D02*
G01*
X344097500Y-262090000D01*
X343696500Y-260645000D01*
X345141500Y-260244000D01*
X345542500Y-261689000D01*
G37*
G36*
X346008500Y-264218000D02*
G01*
X344527500Y-264455000D01*
X344289500Y-262974000D01*
X345770500Y-262737000D01*
X346008500Y-264218000D01*
G37*
G36*
X346193500Y-283979000D02*
G01*
X344693500Y-283979000D01*
X344693500Y-282479000D01*
X346193500Y-282479000D01*
X346193500Y-283979000D01*
G37*
G36*
X346193500Y-286463000D02*
G01*
X344693500Y-286463000D01*
X344693500Y-284963000D01*
X346193500Y-284963000D01*
X346193500Y-286463000D01*
G37*
D11*
G04 #@! TO.C,U1*
X478016000Y-295515600D02*
X478016000Y-290665600D01*
X482866000Y-295515600D02*
X478016000Y-295515600D01*
X482866000Y-290665600D02*
X482866000Y-295515600D01*
X478016000Y-290665600D02*
X482866000Y-290665600D01*
D12*
G04 #@! TO.C,REF\u002A\u002A*
X77448800Y-27432000D02*
X77448800Y-56813400D01*
X77444600Y-27436200D02*
X106826000Y-27436200D01*
X87759800Y-34747200D02*
G75*
G03*
X87759800Y-34747200I-3000000J0D01*
G01*
X577545200Y-27423500D02*
X548163800Y-27423500D01*
X577541000Y-27419300D02*
X577541000Y-56800700D01*
X573230000Y-34734500D02*
G75*
G03*
X573230000Y-34734500I-3000000J0D01*
G01*
X577541000Y-527507200D02*
X577541000Y-498125800D01*
X577545200Y-527503000D02*
X548163800Y-527503000D01*
X573230000Y-520192000D02*
G75*
G03*
X573230000Y-520192000I-3000000J0D01*
G01*
X77457300Y-527566500D02*
X106838700Y-527566500D01*
X77461500Y-527570700D02*
X77461500Y-498189300D01*
X87772500Y-520255500D02*
G75*
G03*
X87772500Y-520255500I-3000000J0D01*
G01*
G04 #@! TD*
M02*
